
<svg width="140" height="50" viewBox="0 0 140 50" fill="none" xmlns="http://www.w3.org/2000/svg">
<path d="M38.2367 45.8331H40.4766C40.7829 45.8323 41.0565 45.7879 41.2961 45.7032C41.5358 45.6207 41.7428 45.5021 41.9175 45.3525C42.0935 45.2025 42.2368 45.0286 42.3512 44.8325C42.4648 44.6356 42.5498 44.4232 42.6035 44.1978C42.6587 43.9736 42.6868 43.7423 42.6868 43.5056C42.6868 43.1293 42.6084 42.8101 42.4501 42.544C42.2921 42.28 42.0571 42.0756 41.7461 41.9377C41.4348 41.7969 41.0469 41.727 40.5838 41.7257H38.1684L36.6814 48.748H37.6203L38.2367 45.8331ZM38.9309 42.5474H40.5055C40.8068 42.5474 41.0498 42.5914 41.232 42.676C41.4151 42.7619 41.5471 42.8867 41.6289 43.0489C41.7105 43.2123 41.7491 43.4092 41.7478 43.6426C41.7491 43.7339 41.7361 43.8395 41.7122 43.9569C41.6874 44.0763 41.6452 44.1969 41.5848 44.3193C41.5245 44.4412 41.4412 44.5552 41.3339 44.6599C41.2274 44.7638 41.0926 44.8493 40.9295 44.9122C40.7662 44.9775 40.5692 45.0098 40.3392 45.0119H38.4122L38.9309 42.5474ZM44.2212 45.7941C44.2718 45.5825 44.343 45.3839 44.4365 45.1962C44.5296 45.0098 44.6418 44.8443 44.7767 44.701C44.9125 44.5573 45.0692 44.4441 45.2486 44.3633C45.4275 44.2816 45.6302 44.2409 45.8548 44.2388C46.0078 44.2376 46.1548 44.2606 46.2948 44.3059C46.4331 44.352 46.5588 44.4261 46.6698 44.5288C46.7791 44.6306 46.8667 44.768 46.9303 44.9365C46.9945 45.1062 47.0272 45.3136 47.0284 45.5599V45.7941H44.2212ZM47.8111 46.4398C47.8174 46.3694 47.824 46.2961 47.8304 46.2215C47.835 46.1461 47.8404 46.0585 47.8433 45.9575C47.8484 45.8562 47.8497 45.7338 47.8497 45.5893C47.8517 45.4832 47.8433 45.3575 47.8275 45.2159C47.8111 45.0726 47.778 44.9205 47.7306 44.7626C47.6853 44.6042 47.6167 44.4496 47.527 44.2975C47.4378 44.1467 47.32 44.0075 47.1767 43.8856C47.0318 43.7624 46.8541 43.6615 46.6404 43.5886C46.4284 43.5161 46.1757 43.4784 45.8841 43.4763C45.5497 43.4784 45.2435 43.537 44.9648 43.6522C44.6875 43.7683 44.4411 43.9296 44.2245 44.1349C44.0091 44.3402 43.8269 44.5803 43.6786 44.8535C43.5302 45.1271 43.4179 45.4225 43.3392 45.7388C43.2629 46.056 43.2235 46.3841 43.2235 46.7235C43.2252 47.1655 43.3036 47.5497 43.4598 47.8757C43.6166 48.2025 43.8415 48.4527 44.1348 48.632C44.4298 48.8122 44.7839 48.9014 45.1995 48.9043C45.6101 48.9031 45.9688 48.8331 46.2784 48.6948C46.5885 48.5553 46.8507 48.3525 47.0674 48.0852C47.2828 47.817 47.4554 47.4902 47.5857 47.1048H46.7347C46.6388 47.3122 46.523 47.4936 46.3894 47.6473C46.2553 47.8024 46.0974 47.923 45.9135 48.0098C45.7291 48.0957 45.5141 48.1397 45.2678 48.1418C44.9846 48.1397 44.7529 48.0852 44.574 47.975C44.3925 47.8673 44.2588 47.711 44.1725 47.5091C44.0874 47.3059 44.0452 47.0641 44.0452 46.7821C44.0452 46.718 44.0485 46.6594 44.0535 46.6028C44.0599 46.5475 44.0694 46.4939 44.0845 46.4398H47.8111ZM48.5733 48.748H55.3802L56.4658 43.6334H55.5855L54.6662 47.9846H52.5831L53.5019 43.6334H52.622L51.7023 47.9846H49.6195L50.5387 43.6334H49.6589L48.5733 48.748ZM58.0886 45.7941C58.1392 45.5825 58.2109 45.3839 58.3036 45.1962C58.3966 45.0098 58.5089 44.8443 58.6441 44.701C58.7795 44.5573 58.9362 44.4441 59.1156 44.3633C59.2945 44.2816 59.4969 44.2409 59.7218 44.2388C59.8748 44.2376 60.0214 44.2606 60.1618 44.3059C60.3 44.352 60.4258 44.4261 60.5368 44.5288C60.6461 44.6306 60.7337 44.768 60.7979 44.9365C60.861 45.1062 60.8933 45.3136 60.8959 45.5599V45.7941H58.0886ZM61.6777 46.4398C61.6844 46.3694 61.6907 46.2961 61.6974 46.2215C61.702 46.1461 61.7074 46.0585 61.7103 45.9575C61.7154 45.8562 61.7171 45.7338 61.7171 45.5893C61.7184 45.4832 61.7103 45.3575 61.6945 45.2159C61.6777 45.0726 61.645 44.9205 61.598 44.7626C61.5524 44.6042 61.4837 44.4496 61.394 44.2975C61.3039 44.1467 61.1867 44.0075 61.0437 43.8856C60.8984 43.7624 60.7207 43.6615 60.5074 43.5886C60.2954 43.5161 60.0427 43.4784 59.7508 43.4763C59.4169 43.4784 59.1101 43.537 58.8318 43.6522C58.5545 43.7683 58.3085 43.9296 58.0919 44.1349C57.8766 44.3402 57.6939 44.5803 57.5451 44.8535C57.3968 45.1271 57.285 45.4225 57.2062 45.7388C57.1299 46.056 57.0905 46.3841 57.0905 46.7235C57.0923 47.1655 57.1706 47.5497 57.3268 47.8757C57.4836 48.2025 57.7086 48.4527 58.0018 48.632C58.2968 48.8122 58.6509 48.9014 59.067 48.9043C59.4776 48.9031 59.8358 48.8331 60.1454 48.6948C60.4555 48.5553 60.7174 48.3525 60.9344 48.0852C61.1498 47.817 61.3224 47.4902 61.4531 47.1048H60.6017C60.5062 47.3122 60.3902 47.4936 60.2561 47.6473C60.1229 47.8024 59.9649 47.923 59.7805 48.0098C59.5961 48.0957 59.3811 48.1397 59.1349 48.1418C58.8516 48.1397 58.6199 48.0852 58.4405 47.975C58.2595 47.8673 58.1258 47.711 58.0396 47.5091C57.955 47.3059 57.9122 47.0641 57.9122 46.7821C57.9122 46.718 57.9155 46.6594 57.9201 46.6028C57.9273 46.5475 57.9365 46.4939 57.9515 46.4398H61.6777ZM62.4394 48.748H63.3201L63.8283 46.3422H66.1567L65.6476 48.748H66.5279L67.6135 43.6334H66.7336L66.3034 45.637H63.9755L64.4057 43.6334H63.5254L62.4394 48.748ZM67.9844 48.748H68.9037L72.0629 44.8359H72.0826L71.2513 48.748H72.132L73.2172 43.6334H72.2389L69.1781 47.3486H69.1584L69.9503 43.6334H69.0705L67.9844 48.748ZM74.8102 45.7941C74.8609 45.5825 74.933 45.3839 75.0251 45.1962C75.1181 45.0098 75.2304 44.8443 75.3667 44.701C75.5016 44.5573 75.6579 44.4441 75.8368 44.3633C76.016 44.2816 76.2193 44.2409 76.4435 44.2388C76.5972 44.2376 76.7431 44.2606 76.8842 44.3059C77.0225 44.352 77.1473 44.4261 77.2583 44.5288C77.3686 44.6306 77.4561 44.768 77.5203 44.9365C77.5831 45.1062 77.6157 45.3136 77.6175 45.5599V45.7941H74.8102ZM78.4002 46.4398C78.4065 46.3694 78.4127 46.2961 78.419 46.2215C78.4245 46.1461 78.4294 46.0585 78.4329 45.9575C78.4379 45.8562 78.4387 45.7338 78.4387 45.5893C78.4412 45.4832 78.4329 45.3575 78.4157 45.2159C78.4002 45.0726 78.3666 44.9205 78.3206 44.7626C78.2744 44.6042 78.2061 44.4496 78.1161 44.2975C78.0265 44.1467 77.9091 44.0075 77.7654 43.8856C77.6208 43.7624 77.4427 43.6615 77.2291 43.5886C77.0174 43.5161 76.7653 43.4784 76.4728 43.4763C76.1388 43.4784 75.8325 43.537 75.5544 43.6522C75.2766 43.7683 75.0306 43.9296 74.8135 44.1349C74.599 44.3402 74.4156 44.5803 74.2681 44.8535C74.1193 45.1271 74.007 45.4225 73.9286 45.7388C73.852 46.056 73.813 46.3841 73.813 46.7235C73.8143 47.1655 73.8927 47.5497 74.0489 47.8757C74.206 48.2025 74.4302 48.4527 74.7235 48.632C75.0189 48.8122 75.3729 48.9014 75.7885 48.9043C76.1991 48.9031 76.5574 48.8331 76.8679 48.6948C77.1776 48.5553 77.4398 48.3525 77.6564 48.0852C77.8722 47.817 78.0448 47.4902 78.1747 47.1048H77.3246C77.2278 47.3122 77.1117 47.4936 76.9776 47.6473C76.8449 47.8024 76.6864 47.923 76.5021 48.0098C76.3178 48.0957 76.1032 48.1397 75.8569 48.1418C75.5732 48.1397 75.3415 48.0852 75.1621 47.975C74.9812 47.8673 74.8484 47.711 74.7612 47.5091C74.6761 47.3059 74.6347 47.0641 74.6347 46.7821C74.6347 46.718 74.6376 46.6594 74.6431 46.6028C74.6489 46.5475 74.6585 46.4939 74.6732 46.4398H78.4002ZM86.6158 48.0433H84.4253C84.6222 47.6473 84.7981 47.2514 84.9533 46.8546C85.1062 46.4574 85.2445 46.0518 85.3667 45.6362C85.4896 45.2226 85.6035 44.7886 85.7061 44.3373H87.3981L86.6158 48.0433ZM82.5766 50H83.3979L83.6711 48.748H87.1836L86.9086 50H87.7311L88.151 48.0433H87.4957L88.4351 43.6334H85.0014C84.9357 44.0063 84.8506 44.3855 84.7458 44.7722C84.6432 45.1585 84.5258 45.5419 84.3939 45.9232C84.2627 46.3045 84.1236 46.6732 83.9749 47.0314C83.8248 47.3909 83.6732 47.7278 83.5152 48.0433H82.9966L82.5766 50ZM92.581 48.748H93.4609L94.5469 43.6334H90.8895L90.028 47.0075C89.9552 47.2954 89.8882 47.5225 89.8261 47.688C89.7641 47.8548 89.6962 47.9721 89.6208 48.0412C89.5442 48.1103 89.449 48.1439 89.3338 48.1418C89.2805 48.1418 89.2312 48.1397 89.188 48.1334C89.1465 48.1271 89.1055 48.1175 89.0648 48.1011C89.0258 48.086 88.9818 48.063 88.9324 48.0341L88.7954 48.748C88.8595 48.7682 88.9316 48.7904 89.0091 48.8151C89.0886 48.8394 89.1675 48.8591 89.2471 48.8771C89.3275 48.8947 89.3975 48.9031 89.4603 48.9043C89.6794 48.9031 89.8638 48.8658 90.0117 48.7904C90.1605 48.7158 90.2828 48.611 90.3792 48.4791C90.4768 48.3471 90.556 48.1941 90.6201 48.0215C90.685 47.8485 90.7424 47.6641 90.7911 47.4672L91.5934 44.396H93.5007L92.581 48.748ZM100.13 43.6334H97.2452C96.9783 43.6342 96.7479 43.6698 96.5594 43.7394C96.3695 43.8073 96.2116 43.8965 96.0859 44.0075C95.9622 44.1207 95.863 44.2388 95.7892 44.3675C95.7163 44.4986 95.6606 44.6243 95.627 44.7458C95.5907 44.8707 95.5685 44.9775 95.558 45.0705C95.5463 45.1636 95.542 45.2289 95.5433 45.2662C95.5454 45.474 95.5777 45.6425 95.6397 45.7778C95.7017 45.9148 95.778 46.0229 95.873 46.1046C95.9657 46.1842 96.0616 46.2479 96.1584 46.2919C96.2556 46.3338 96.3407 46.3686 96.4135 46.3912C96.2438 46.4155 96.111 46.4616 96.0125 46.5307C95.9162 46.6011 95.8416 46.6879 95.7884 46.7918C95.7331 46.8953 95.6837 47.0084 95.6417 47.1341L95.2597 48.1217C95.2157 48.2457 95.1746 48.3408 95.139 48.4087C95.1012 48.477 95.0678 48.5251 95.0384 48.5545C95.007 48.5817 94.9797 48.5993 94.9546 48.6048C94.9303 48.611 94.9073 48.6131 94.8889 48.611V48.748H95.8952C95.9275 48.7074 95.9615 48.6613 95.9916 48.6098C96.0243 48.5587 96.0565 48.4958 96.0921 48.4204C96.127 48.3441 96.1668 48.2474 96.2082 48.1325L96.4923 47.3298C96.546 47.1747 96.6075 47.0515 96.68 46.9615C96.7521 46.8722 96.8422 46.8064 96.9532 46.7696C97.0643 46.7318 97.208 46.7122 97.3827 46.7138H98.576L98.1452 48.748H99.0356L100.13 43.6334ZM98.7226 46.0196H97.3429C97.2947 46.0204 97.2318 46.0175 97.1585 46.0112C97.0839 46.0061 97.0034 45.9902 96.9209 45.9672C96.838 45.9433 96.7592 45.9052 96.6859 45.8532C96.613 45.7996 96.553 45.7271 96.5049 45.6362C96.4596 45.5453 96.4358 45.4275 96.4337 45.2855C96.4358 45.1032 96.4629 44.9503 96.5187 44.8275C96.5741 44.7052 96.6486 44.6076 96.7438 44.5363C96.8359 44.4642 96.9407 44.4115 97.0559 44.3825C97.1724 44.352 97.2905 44.3352 97.412 44.3373H99.0741L98.7226 46.0196ZM104.541 48.748H105.364L106.243 44.5133H106.263L106.694 48.748H107.574L109.813 44.5719H109.833L108.904 48.748H109.725L110.812 43.6334H109.608L107.369 47.7701H107.349L106.889 43.6334H105.628L104.541 48.748ZM112.434 45.7941C112.484 45.5825 112.556 45.3839 112.648 45.1962C112.742 45.0098 112.854 44.8443 112.989 44.701C113.126 44.5573 113.281 44.4441 113.46 44.3633C113.639 44.2816 113.842 44.2409 114.067 44.2388C114.22 44.2376 114.367 44.2606 114.507 44.3059C114.646 44.352 114.771 44.4261 114.882 44.5288C114.991 44.6306 115.08 44.768 115.143 44.9365C115.206 45.1062 115.24 45.3136 115.241 45.5599V45.7941H112.434ZM116.024 46.4398C116.03 46.3694 116.037 46.2961 116.043 46.2215C116.047 46.1461 116.053 46.0585 116.056 45.9575C116.06 45.8562 116.062 45.7338 116.062 45.5893C116.063 45.4832 116.056 45.3575 116.04 45.2159C116.024 45.0726 115.99 44.9205 115.943 44.7626C115.898 44.6042 115.829 44.4496 115.74 44.2975C115.649 44.1467 115.532 44.0075 115.389 43.8856C115.244 43.7624 115.066 43.6615 114.852 43.5886C114.641 43.5161 114.389 43.4784 114.096 43.4763C113.763 43.4784 113.456 43.537 113.177 43.6522C112.9 43.7683 112.654 43.9296 112.437 44.1349C112.222 44.3402 112.039 44.5803 111.891 44.8535C111.743 45.1271 111.629 45.4225 111.552 45.7388C111.476 46.056 111.436 46.3841 111.436 46.7235C111.438 47.1655 111.517 47.5497 111.672 47.8757C111.829 48.2025 112.054 48.4527 112.347 48.632C112.643 48.8122 112.997 48.9014 113.411 48.9043C113.823 48.9031 114.181 48.8331 114.491 48.6948C114.8 48.5553 115.063 48.3525 115.28 48.0852C115.495 47.817 115.668 47.4902 115.798 47.1048H114.947C114.851 47.3122 114.736 47.4936 114.603 47.6473C114.468 47.8024 114.31 47.923 114.125 48.0098C113.942 48.0957 113.726 48.1397 113.481 48.1418C113.196 48.1397 112.965 48.0852 112.785 47.975C112.604 47.8673 112.471 47.711 112.384 47.5091C112.3 47.3059 112.258 47.0641 112.258 46.7821C112.258 46.718 112.261 46.6594 112.265 46.6028C112.273 46.5475 112.282 46.4939 112.296 46.4398H116.024ZM120.913 41.6272C120.891 41.6955 120.838 41.7529 120.75 41.7995C120.662 41.843 120.546 41.8841 120.404 41.9226C120.262 41.9608 120.101 42.0048 119.921 42.0517C119.737 42.1007 119.543 42.1636 119.335 42.239C119.127 42.3157 118.912 42.415 118.692 42.5377C118.465 42.6668 118.266 42.8289 118.091 43.025C117.917 43.2207 117.764 43.4386 117.635 43.6816C117.506 43.9225 117.396 44.1789 117.307 44.4462C117.219 44.7152 117.147 44.9859 117.093 45.2603C117.04 45.5335 117 45.7996 116.978 46.0585C116.953 46.3183 116.941 46.5592 116.941 46.7821C116.944 47.1747 117.002 47.5057 117.115 47.7781C117.227 48.0504 117.378 48.2683 117.57 48.4338C117.761 48.5993 117.975 48.72 118.213 48.7933C118.45 48.8687 118.694 48.9064 118.947 48.9043C119.264 48.9031 119.549 48.8591 119.804 48.7715C120.057 48.6844 120.282 48.5662 120.477 48.4154C120.671 48.2654 120.841 48.0957 120.985 47.9042C121.128 47.7136 121.246 47.5124 121.345 47.3038C121.443 47.093 121.521 46.8869 121.58 46.6795C121.638 46.4742 121.68 46.2802 121.707 46.0992C121.732 45.9177 121.744 45.7619 121.744 45.6278C121.742 45.3416 121.7 45.0873 121.619 44.8682C121.537 44.6482 121.425 44.4609 121.286 44.3046C121.143 44.1475 120.986 44.021 120.809 43.9212C120.631 43.8219 120.445 43.7486 120.252 43.7038C120.059 43.6556 119.868 43.6334 119.68 43.6334C119.494 43.6313 119.326 43.6439 119.177 43.6724C119.031 43.6996 118.888 43.7486 118.748 43.8186C118.608 43.889 118.455 43.9866 118.291 44.1119H118.272C118.4 43.871 118.524 43.6698 118.646 43.5056C118.77 43.343 118.903 43.2089 119.045 43.1034C119.189 42.9986 119.357 42.9127 119.549 42.8457C119.743 42.7786 119.971 42.7221 120.238 42.6739C120.516 42.632 120.748 42.567 120.933 42.477C121.118 42.3877 121.268 42.2717 121.38 42.1313C121.495 41.9909 121.583 41.8233 121.645 41.6272H120.913ZM119.631 44.3268C119.871 44.3268 120.085 44.3792 120.269 44.4852C120.453 44.59 120.598 44.745 120.703 44.9478C120.809 45.1531 120.862 45.407 120.865 45.7066C120.865 45.8298 120.848 45.9764 120.822 46.1461C120.792 46.3141 120.747 46.4922 120.684 46.6795C120.622 46.8647 120.543 47.049 120.446 47.2284C120.349 47.4085 120.232 47.5711 120.094 47.7165C119.957 47.8631 119.799 47.9805 119.621 48.0663C119.442 48.1531 119.241 48.1983 119.015 48.2004C118.758 48.1983 118.54 48.1418 118.363 48.0274C118.186 47.9134 118.05 47.7492 117.959 47.5351C117.868 47.3214 117.823 47.0641 117.823 46.762C117.823 46.5068 117.849 46.2596 117.902 46.0204C117.956 45.7828 118.032 45.5616 118.135 45.3555C118.238 45.1502 118.362 44.9733 118.508 44.8179C118.655 44.6654 118.822 44.5439 119.012 44.4575C119.2 44.3729 119.406 44.3289 119.631 44.3268ZM123.583 45.7941C123.633 45.5825 123.704 45.3839 123.797 45.1962C123.89 45.0098 124.002 44.8443 124.137 44.701C124.272 44.5573 124.43 44.4441 124.609 44.3633C124.788 44.2816 124.99 44.2409 125.215 44.2388C125.368 44.2376 125.515 44.2606 125.655 44.3059C125.793 44.352 125.92 44.4261 126.03 44.5288C126.14 44.6306 126.228 44.768 126.291 44.9365C126.355 45.1062 126.387 45.3136 126.389 45.5599V45.7941H123.583ZM127.172 46.4398C127.177 46.3694 127.184 46.2961 127.191 46.2215C127.195 46.1461 127.2 46.0585 127.204 45.9575C127.209 45.8562 127.21 45.7338 127.21 45.5893C127.212 45.4832 127.204 45.3575 127.188 45.2159C127.172 45.0726 127.138 44.9205 127.091 44.7626C127.045 44.6042 126.977 44.4496 126.887 44.2975C126.798 44.1467 126.681 44.0075 126.538 43.8856C126.392 43.7624 126.215 43.6615 126.001 43.5886C125.788 43.5161 125.536 43.4784 125.245 43.4763C124.91 43.4784 124.604 43.537 124.325 43.6522C124.047 43.7683 123.801 43.9296 123.586 44.1349C123.37 44.3402 123.188 44.5803 123.039 44.8535C122.891 45.1271 122.778 45.4225 122.701 45.7388C122.623 46.056 122.584 46.3841 122.584 46.7235C122.585 47.1655 122.663 47.5497 122.821 47.8757C122.976 48.2025 123.202 48.4527 123.496 48.632C123.79 48.8122 124.144 48.9014 124.56 48.9043C124.971 48.9031 125.33 48.8331 125.639 48.6948C125.949 48.5553 126.212 48.3525 126.428 48.0852C126.643 47.817 126.815 47.4902 126.946 47.1048H126.096C125.999 47.3122 125.883 47.4936 125.749 47.6473C125.615 47.8024 125.459 47.923 125.274 48.0098C125.09 48.0957 124.875 48.1397 124.627 48.1418C124.345 48.1397 124.113 48.0852 123.934 47.975C123.753 47.8673 123.619 47.711 123.533 47.5091C123.448 47.3059 123.407 47.0641 123.407 46.7821C123.407 46.718 123.409 46.6594 123.414 46.6028C123.419 46.5475 123.43 46.4939 123.445 46.4398H127.172ZM131.474 48.748H132.354L133.439 43.6334H129.781L128.921 47.0075C128.847 47.2954 128.782 47.5225 128.719 47.688C128.656 47.8548 128.588 47.9721 128.514 48.0412C128.436 48.1103 128.342 48.1439 128.227 48.1418C128.172 48.1418 128.124 48.1397 128.081 48.1334C128.039 48.1271 127.999 48.1175 127.958 48.1011C127.919 48.086 127.875 48.063 127.826 48.0341L127.689 48.748C127.753 48.7682 127.824 48.7904 127.902 48.8151C127.981 48.8394 128.061 48.8591 128.14 48.8771C128.221 48.8947 128.29 48.9031 128.354 48.9043C128.572 48.9031 128.756 48.8658 128.905 48.7904C129.053 48.7158 129.175 48.611 129.272 48.4791C129.369 48.3471 129.45 48.1941 129.513 48.0215C129.578 47.8485 129.634 47.6641 129.684 47.4672L130.486 44.396H132.393L131.474 48.748ZM133.869 48.748H134.788L137.947 44.8359H137.967L137.136 48.748H138.017L139.102 43.6334H138.123L135.063 47.3486H135.042L135.835 43.6334H134.954L133.869 48.748Z" fill="#231F20"/>
<path d="M112.332 19.2982V27.7259H106.725V14.9189H114.98C121.005 14.9189 125.935 19.6188 125.935 25.6958C125.935 31.7448 120.979 36.4778 114.98 36.4778H106.725V28.4486H112.332V32.0575H113.835C117.989 32.0575 120.306 29.0792 120.329 25.6343C120.358 21.1627 116.484 19.2986 113.776 19.2982H112.332ZM31.091 36.8516C25.8976 36.8516 21.5388 33.2783 20.3379 28.4557H26.0849C27.0435 30.2386 28.9257 31.4498 31.091 31.4498C33.256 31.4498 35.1385 30.2386 36.0967 28.4557H41.8433C40.6428 33.2783 36.2844 36.8516 31.091 36.8516ZM20.1682 27.6442C20.0648 27.0345 20.0095 26.4082 20.0095 25.77C20.0095 19.6502 24.9712 14.6885 31.091 14.6885C37.2108 14.6885 42.1722 19.6502 42.1722 25.77C42.1722 26.4082 42.1172 27.0345 42.0134 27.6442H36.4545C36.6591 27.0575 36.771 26.4269 36.771 25.77C36.771 22.633 34.2277 20.0897 31.091 20.0897C27.9536 20.0897 25.4107 22.633 25.4107 25.77C25.4107 26.4269 25.5226 27.0575 25.7279 27.6442H20.1682ZM73.8163 27.6525L72.2764 21.5772H72.2228L70.1689 27.6525H64.3151L69.2111 14.9189H75.095L79.6529 27.6525H73.8163ZM79.9483 28.4374L82.9776 36.4778H77.0606L75.5949 32.732H68.3572L66.8706 36.4778H60.9217L64.0126 28.4374H79.9483ZM49.5649 27.6525L41.2663 14.9189H47.9861L52.6239 22.7382L57.2706 14.9189H63.9926L55.6943 27.6525H49.5649ZM55.4681 28.4374V36.4778H49.7643V28.4374H55.4681ZM9.88867 36.4778H0V14.9189H9.25935C12.9829 14.9189 15.9641 16.9656 15.9641 20.6972C15.9641 23.8904 14.1657 24.7012 13.4748 25.036C15.2518 25.3347 16.3588 26.1199 17.1716 27.6525H5.66145V32.2686C8.30446 32.2686 11.9523 32.478 12.0339 29.9004C12.0532 29.274 11.8538 28.7825 11.5784 28.4374H17.4477C18.9134 33.8276 14.8763 36.4778 9.88867 36.4778ZM5.64552 19.3062V23.5925C7.81508 23.6298 10.8808 23.7672 10.8808 21.3576C10.8808 19.0339 7.89678 19.2697 5.64552 19.3062ZM98.0697 28.4374L104.233 36.4778H97.2536L92.1255 28.4374H98.0697ZM91.8862 19.3062V24.5373C93.7616 24.5373 96.3636 24.392 96.3636 21.8206C96.3636 19.25 93.7583 19.3062 91.8862 19.3062ZM91.905 28.4374V36.4778H86.3001V28.4374H91.905ZM97.4747 27.6554L86.3001 27.6525V14.9189H94.68C98.9253 14.9189 102.054 16.9933 102.054 21.5491C102.054 24.5357 100.521 27.1049 97.4747 27.6554Z" fill="#231F20"/>
<path d="M85.2485 13.6094L90.4419 -0.000833511L94.6284 7.6488L92.3344 13.6094H85.2485ZM69.7783 13.6094L74.9713 -0.000833511L79.1583 7.6488L76.8644 13.6094H69.7783ZM77.5134 13.6094L82.706 -0.000833511C84.102 2.54879 85.4973 5.09874 86.8939 7.6488L84.5998 13.6094H77.5134Z" fill="#ED1C24"/>
</svg>
