<svg version="1.1" id="Слой_1" xmlns="http://www.w3.org/2000/svg" xmlns:xlink="http://www.w3.org/1999/xlink" x="0px" y="0px"
	 viewBox="0 0 255.86 106.3" style="enable-background:new 0 0 255.86 106.3;" xml:space="preserve">
<style type="text/css">
	.st0{fill-rule:evenodd;clip-rule:evenodd;fill:#E20042;}
	.st1{fill-rule:evenodd;clip-rule:evenodd;fill:#EE7E33;}
	.st2{fill-rule:evenodd;clip-rule:evenodd;fill:#FDC800;}
	.st3{fill-rule:evenodd;clip-rule:evenodd;fill:#FFEA00;}
	.st4{fill-rule:evenodd;clip-rule:evenodd;fill:#B0C907;}
	.st5{fill-rule:evenodd;clip-rule:evenodd;fill:#0D9BD7;}
	.st6{fill-rule:evenodd;clip-rule:evenodd;fill:#004387;}
	.st7{fill:#1D1D1B;}
</style>
<polygon class="st0" points="9.99,93.37 46.24,93.49 91.04,51.81 77.6,51.81 133.78,0 110.78,0 "/>
<polygon class="st1" points="19.58,72.32 27.17,72.32 105.15,0 97.56,0 "/>
<polygon class="st2" points="11.4,57.02 29.25,57.02 90.33,0 72.48,0 "/>
<polygon class="st3" points="12.08,34.22 0,45.47 13.08,45.47 25.16,34.22 "/>
<polygon class="st4" points="114.16,51.81 91.04,51.81 147.22,0 170.34,0 "/>
<polygon class="st5" points="126.7,44.62 174.83,0 179.41,0 131.28,44.62 "/>
<polygon class="st6" points="168.78,34.94 150.34,34.94 134.33,50.47 152.78,50.47 "/>
<path class="st7" d="M225.12,71.46v1.27c0,0.83,0.42,1.26,1.26,1.26h3.43c0.85,0,1.27,0.43,1.27,1.27v11.95
	c0,0.84,0.42,1.26,1.26,1.26h1.27c0.85,0,1.26-0.42,1.26-1.26V75.27c0-0.85,0.42-1.27,1.27-1.27h3.43c0.84,0,1.26-0.42,1.26-1.26
	v-1.27c0-0.84-0.43-1.26-1.26-1.26h-13.2C225.56,70.2,225.12,70.62,225.12,71.46 M208.58,84.68c0,2.54,2.54,3.8,7.61,3.8
	c5.07,0,7.61-1.26,7.61-3.8v-3.44c0-2.54-2.54-3.8-7.61-3.8c-2.54,0-3.81-0.42-3.81-1.27v-0.89c0-0.85,1.27-1.27,3.81-1.27
	s3.8,0.42,3.8,1.27c0,0.84,0.42,1.26,1.27,1.26h1.26c0.85,0,1.27-0.42,1.27-1.26V74c0-2.54-2.54-3.8-7.61-3.8
	c-5.07,0-7.61,1.27-7.61,3.8v3.44c0,2.54,2.54,3.8,7.61,3.8c2.54,0,3.8,0.43,3.8,1.27v0.89c0,0.85-1.26,1.27-3.8,1.27
	s-3.81-0.42-3.81-1.27c0-0.85-0.42-1.26-1.26-1.26h-1.27c-0.84,0-1.26,0.42-1.26,1.26V84.68z M179.43,70.2h-1.27
	c-0.84,0-1.26,0.43-1.26,1.26v13.22c0,2.54,2.54,3.8,7.61,3.8h2.54c0.85,0,1.26-0.42,1.26-1.26v-1.27c0-0.85-0.42-1.26-1.26-1.26
	h-2.54c-2.54,0-3.81-0.42-3.81-1.27V71.46C180.69,70.62,180.28,70.2,179.43,70.2z M149.01,84.68c-2.54,0-3.81-0.42-3.81-1.27v-8.14
	c0-0.76,1.27-1.23,3.81-1.27c2.54-0.04,3.8,0.43,3.8,1.27v8.14C152.82,84.26,151.55,84.68,149.01,84.68z M141.4,84.68
	c0,2.54,2.54,3.8,7.61,3.8c5.07,0,7.61-1.26,7.61-3.8V74c0-2.54-2.54-3.8-7.61-3.8c-5.07,0-7.61,1.27-7.61,3.8V84.68z M130,70.2
	h-1.27c-0.84,0-1.26,0.43-1.26,1.26v13.22c0,2.54,2.54,3.8,7.61,3.8h2.54c0.85,0,1.26-0.42,1.26-1.26v-1.27
	c0-0.85-0.42-1.26-1.26-1.26h-2.54c-2.54,0-3.81-0.42-3.81-1.27V71.46C131.26,70.62,130.85,70.2,130,70.2z M117.49,77.06
	L117.49,77.06l-0.16,0c-5.07,0-7.61,1.26-7.61,3.8v3.81c0,2.54,2.54,3.8,7.61,3.8h6.34c0.85,0,1.27-0.42,1.27-1.26V74
	c0-2.54-2.54-3.8-7.61-3.8h-6.35c-0.84,0-1.26,0.43-1.26,1.26v1.27c0,0.84,0.42,1.26,1.26,1.26h7.61c1.7,0,2.54,0.42,2.54,1.27
	c0,2.96,0,5.18,0,8.14c0,0.85-0.42,1.27-1.26,1.27h-2.54c-2.54,0-3.81-0.42-3.81-1.27v-1.26c0-0.85,1.27-1.27,3.81-1.27h0.65v-0.01
	c0.8-0.02,1.2-0.44,1.2-1.26v-1.27c0-0.84-0.42-1.26-1.26-1.26H117.49z M166.59,77.8L166.59,77.8l0.17,0c2.54,0,3.8-0.42,3.8-1.27
	v-1.26c0-0.85-1.27-1.27-3.8-1.27h-2.54c-0.85,0-1.27,0.42-1.27,1.27c0,4.23,0,7.72,0,11.95c0,0.84-0.42,1.26-1.26,1.26h-1.27
	c-0.84,0-1.26-0.42-1.26-1.26V71.46c0-0.84,0.42-1.26,1.26-1.26h6.35c5.07,0,7.61,1.27,7.61,3.8v3.81c0,2.54-2.54,3.8-7.61,3.8
	h-0.48v0h-0.12c-0.84,0-1.26-0.42-1.26-1.26v-1.27c0-0.84,0.42-1.26,1.26-1.26H166.59z M198.6,77.06L198.6,77.06l-0.16,0
	c-5.07,0-7.61,1.26-7.61,3.8v3.81c0,2.54,2.54,3.8,7.61,3.8h6.34c0.85,0,1.27-0.42,1.27-1.26V74c0-2.54-2.54-3.8-7.61-3.8h-6.35
	c-0.84,0-1.26,0.43-1.26,1.26v1.27c0,0.84,0.42,1.26,1.26,1.26h7.61c1.7,0,2.54,0.42,2.54,1.27c0,2.96,0,5.18,0,8.14
	c0,0.85-0.42,1.27-1.26,1.27h-2.54c-2.54,0-3.81-0.42-3.81-1.27v-1.26c0-0.85,1.27-1.27,3.81-1.27h0.65v-0.01
	c0.8-0.02,1.2-0.44,1.2-1.26v-1.27c0-0.84-0.42-1.26-1.26-1.26H198.6z M99.58,70.2c-5.07,0-7.61,1.27-7.61,3.8v10.68
	c0,2.54,2.54,3.8,7.61,3.8c5.07,0,7.61-1.26,7.61-3.8v-6.35c0-0.85-0.42-1.26-1.27-1.26h-5.07c-0.84,0-1.26,0.42-1.26,1.26v1.27
	c0,0.84,0.42,1.26,1.26,1.26h1.27c0.85,0,1.26,0.42,1.26,1.27v1.26c0,0.85-1.26,1.27-3.8,1.27c-2.54,0-3.81-0.42-3.81-1.27v-8.14
	c0-0.85,1.27-1.27,3.81-1.27h6.34c0.85,0,1.27-0.42,1.27-1.26v-1.27c0-0.84-0.43-1.26-1.27-1.26H99.58z"/>
<g>
	<path class="st7" d="M184.51,100.7h-0.69c-0.29,0-0.54,0.02-0.75,0.06c-0.21,0.04-0.37,0.11-0.51,0.19
		c-0.13,0.09-0.22,0.19-0.29,0.32c-0.06,0.12-0.09,0.26-0.09,0.42c0,0.27,0.08,0.48,0.26,0.64c0.17,0.16,0.41,0.23,0.71,0.23
		c0.26,0,0.49-0.06,0.71-0.19c0.21-0.13,0.43-0.32,0.65-0.57V100.7z M186.3,103.46c0,0.07-0.02,0.12-0.07,0.16
		c-0.05,0.04-0.12,0.06-0.23,0.08c-0.1,0.02-0.26,0.03-0.46,0.03c-0.22,0-0.37-0.01-0.47-0.03c-0.1-0.02-0.17-0.04-0.21-0.08
		c-0.04-0.04-0.06-0.09-0.06-0.16v-0.51c-0.26,0.28-0.57,0.5-0.9,0.67c-0.34,0.16-0.72,0.24-1.13,0.24c-0.34,0-0.66-0.04-0.94-0.13
		c-0.29-0.09-0.53-0.22-0.74-0.4c-0.21-0.18-0.37-0.39-0.49-0.65c-0.12-0.26-0.17-0.56-0.17-0.91c0-0.38,0.07-0.7,0.22-0.98
		c0.15-0.28,0.37-0.5,0.66-0.69c0.29-0.18,0.65-0.31,1.09-0.4c0.43-0.09,0.94-0.13,1.51-0.13h0.63v-0.39c0-0.2-0.02-0.38-0.06-0.53
		c-0.04-0.15-0.11-0.28-0.2-0.38c-0.09-0.1-0.22-0.18-0.37-0.22c-0.16-0.05-0.35-0.07-0.58-0.07c-0.3,0-0.57,0.03-0.81,0.1
		c-0.24,0.07-0.45,0.14-0.63,0.22c-0.18,0.08-0.33,0.16-0.46,0.22c-0.12,0.07-0.22,0.1-0.3,0.1c-0.05,0-0.1-0.02-0.14-0.05
		c-0.04-0.03-0.07-0.08-0.1-0.15c-0.02-0.06-0.05-0.14-0.06-0.23c-0.02-0.09-0.02-0.19-0.02-0.31c0-0.15,0.01-0.27,0.03-0.35
		c0.02-0.09,0.07-0.17,0.14-0.23c0.07-0.07,0.18-0.15,0.35-0.23c0.17-0.08,0.37-0.16,0.59-0.23c0.22-0.07,0.47-0.13,0.74-0.18
		c0.27-0.05,0.54-0.07,0.83-0.07c0.51,0,0.94,0.05,1.3,0.15c0.36,0.1,0.65,0.25,0.88,0.46c0.23,0.2,0.4,0.47,0.51,0.79
		c0.11,0.32,0.16,0.71,0.16,1.15V103.46z M179.35,103.4c0.01,0.12-0.05,0.2-0.17,0.25c-0.12,0.05-0.33,0.07-0.64,0.07
		c-0.19,0-0.34,0-0.45-0.01c-0.11,0-0.2-0.02-0.26-0.04c-0.06-0.02-0.1-0.05-0.12-0.08c-0.02-0.03-0.03-0.08-0.04-0.14l-0.38-3.46
		c-0.01-0.13-0.03-0.27-0.04-0.42c-0.01-0.16-0.03-0.31-0.04-0.47c-0.01-0.16-0.02-0.32-0.03-0.47c-0.01-0.16-0.02-0.3-0.04-0.42
		l0.01-0.18c-0.03,0.13-0.07,0.27-0.11,0.43c-0.04,0.15-0.09,0.31-0.13,0.47c-0.05,0.16-0.1,0.32-0.14,0.47
		c-0.04,0.16-0.08,0.3-0.12,0.42l-1.13,3.57c-0.02,0.06-0.05,0.11-0.09,0.15c-0.04,0.04-0.09,0.08-0.16,0.11
		c-0.07,0.03-0.16,0.04-0.27,0.06c-0.11,0.01-0.24,0.02-0.41,0.02c-0.15,0-0.28-0.01-0.38-0.02c-0.1-0.01-0.19-0.03-0.26-0.06
		c-0.07-0.03-0.12-0.06-0.16-0.11c-0.04-0.04-0.06-0.1-0.08-0.16l-1.11-3.56c-0.04-0.13-0.08-0.27-0.13-0.42
		c-0.04-0.16-0.09-0.31-0.14-0.47c-0.05-0.16-0.09-0.32-0.13-0.47c-0.04-0.16-0.08-0.3-0.11-0.43l0.01,0.18
		c-0.01,0.13-0.02,0.27-0.03,0.42c-0.01,0.16-0.02,0.31-0.04,0.47c-0.02,0.16-0.03,0.31-0.04,0.47c-0.01,0.15-0.02,0.29-0.03,0.42
		l-0.37,3.42c-0.01,0.06-0.03,0.11-0.05,0.16c-0.02,0.04-0.07,0.07-0.14,0.1c-0.07,0.03-0.16,0.04-0.27,0.05
		c-0.12,0.01-0.27,0.01-0.46,0.01c-0.17,0-0.3-0.01-0.4-0.01c-0.1-0.01-0.18-0.03-0.23-0.05c-0.06-0.03-0.09-0.06-0.11-0.1
		c-0.02-0.04-0.02-0.09-0.02-0.16l0.63-6.03c0.02-0.21,0.09-0.36,0.2-0.47c0.11-0.1,0.28-0.16,0.51-0.16h0.92
		c0.19,0,0.35,0.01,0.49,0.04c0.13,0.03,0.25,0.08,0.35,0.15c0.1,0.07,0.19,0.17,0.25,0.3c0.07,0.12,0.13,0.28,0.18,0.47l0.72,2.21
		c0.04,0.14,0.09,0.29,0.13,0.45c0.04,0.16,0.09,0.31,0.13,0.47c0.04,0.16,0.08,0.31,0.12,0.46c0.04,0.15,0.07,0.28,0.1,0.41h0.01
		c0.03-0.13,0.06-0.27,0.1-0.43c0.04-0.15,0.08-0.31,0.12-0.47c0.04-0.16,0.08-0.32,0.13-0.47c0.05-0.15,0.09-0.3,0.13-0.43
		l0.72-2.2c0.05-0.17,0.1-0.32,0.16-0.44c0.06-0.12,0.13-0.22,0.22-0.3c0.09-0.07,0.2-0.13,0.34-0.17c0.13-0.03,0.3-0.05,0.5-0.05
		h0.91c0.23,0,0.4,0.05,0.51,0.16c0.11,0.1,0.18,0.26,0.2,0.47L179.35,103.4z M163.66,99.51c0.02-0.51-0.09-0.91-0.31-1.2
		c-0.22-0.29-0.56-0.44-1.01-0.44c-0.23,0-0.43,0.04-0.6,0.13c-0.17,0.09-0.31,0.2-0.43,0.35c-0.11,0.15-0.2,0.32-0.26,0.52
		c-0.06,0.2-0.09,0.41-0.1,0.64H163.66z M165.42,100.03c0,0.22-0.05,0.38-0.15,0.49c-0.1,0.11-0.23,0.16-0.41,0.16h-3.92
		c0,0.28,0.03,0.52,0.1,0.75c0.07,0.22,0.17,0.41,0.31,0.57c0.14,0.16,0.33,0.28,0.55,0.36c0.22,0.08,0.49,0.12,0.81,0.12
		c0.32,0,0.6-0.02,0.84-0.07c0.24-0.05,0.45-0.1,0.63-0.15c0.17-0.05,0.32-0.11,0.44-0.15c0.12-0.05,0.21-0.07,0.28-0.07
		c0.04,0,0.08,0.01,0.11,0.02c0.03,0.02,0.05,0.05,0.07,0.09c0.02,0.04,0.03,0.1,0.04,0.18c0.01,0.08,0.01,0.18,0.01,0.3
		c0,0.11,0,0.2-0.01,0.27c-0.01,0.07-0.01,0.14-0.02,0.19c-0.01,0.05-0.02,0.1-0.04,0.13c-0.02,0.04-0.04,0.07-0.08,0.1
		c-0.03,0.03-0.12,0.08-0.26,0.14c-0.14,0.06-0.32,0.11-0.53,0.17c-0.22,0.05-0.46,0.1-0.74,0.14c-0.28,0.04-0.58,0.06-0.9,0.06
		c-0.57,0-1.07-0.07-1.51-0.22c-0.43-0.14-0.79-0.36-1.08-0.66c-0.29-0.29-0.5-0.67-0.65-1.11c-0.14-0.45-0.21-0.97-0.21-1.57
		c0-0.57,0.07-1.09,0.22-1.55c0.15-0.46,0.36-0.85,0.65-1.17c0.29-0.32,0.63-0.56,1.04-0.73c0.41-0.17,0.87-0.25,1.38-0.25
		c0.54,0,1,0.08,1.38,0.24c0.38,0.16,0.7,0.38,0.94,0.66c0.25,0.28,0.43,0.61,0.54,1c0.12,0.38,0.17,0.8,0.17,1.25V100.03z
		 M153.04,101.37c0-0.17-0.02-0.32-0.07-0.45c-0.05-0.13-0.13-0.24-0.25-0.34c-0.11-0.09-0.26-0.17-0.44-0.21
		c-0.18-0.05-0.41-0.07-0.67-0.07c-0.16,0-0.31,0-0.45,0.01c-0.14,0.01-0.27,0.02-0.39,0.03v2.08c0.14,0.01,0.28,0.03,0.41,0.04
		c0.14,0.01,0.29,0.01,0.47,0.01c0.48,0,0.83-0.1,1.06-0.29C152.93,101.98,153.04,101.72,153.04,101.37z M150.77,98.98
		c0.17-0.02,0.33-0.03,0.5-0.04c0.17-0.01,0.35-0.01,0.56-0.01c0.53,0,0.99,0.05,1.37,0.16c0.38,0.11,0.7,0.26,0.95,0.47
		c0.25,0.2,0.44,0.45,0.56,0.73c0.12,0.29,0.18,0.61,0.18,0.98c0,0.38-0.07,0.73-0.2,1.04c-0.14,0.32-0.35,0.58-0.63,0.81
		c-0.28,0.22-0.64,0.4-1.07,0.52c-0.43,0.12-0.95,0.18-1.55,0.18c-0.16,0-0.32,0-0.49,0c-0.16,0-0.32-0.01-0.48-0.01
		c-0.16-0.01-0.31-0.01-0.46-0.02c-0.15-0.01-0.29-0.02-0.43-0.04c-0.23-0.02-0.4-0.09-0.5-0.21c-0.1-0.11-0.16-0.29-0.16-0.52V97
		c0-0.05,0.01-0.09,0.04-0.13c0.03-0.04,0.08-0.07,0.14-0.09c0.07-0.02,0.16-0.04,0.27-0.05c0.11-0.01,0.25-0.02,0.41-0.02
		c0.35,0,0.59,0.02,0.74,0.07c0.14,0.05,0.21,0.12,0.21,0.22V98.98z M157.65,103.44c0,0.05-0.01,0.09-0.04,0.13
		c-0.03,0.03-0.08,0.07-0.15,0.09c-0.07,0.02-0.16,0.04-0.27,0.05c-0.12,0.01-0.26,0.02-0.45,0.02c-0.17,0-0.32-0.01-0.43-0.02
		c-0.12-0.01-0.21-0.03-0.28-0.05c-0.07-0.02-0.12-0.05-0.15-0.09c-0.03-0.04-0.04-0.08-0.04-0.13V97c0-0.05,0.01-0.09,0.04-0.13
		c0.03-0.04,0.08-0.07,0.15-0.09c0.07-0.02,0.16-0.04,0.28-0.05c0.11-0.01,0.26-0.02,0.43-0.02c0.18,0,0.33,0.01,0.45,0.02
		c0.12,0.01,0.21,0.03,0.27,0.05c0.07,0.02,0.12,0.05,0.15,0.09c0.03,0.03,0.04,0.08,0.04,0.13V103.44z M147.12,103.44
		c0,0.05-0.01,0.09-0.04,0.13c-0.03,0.03-0.08,0.07-0.15,0.09c-0.07,0.02-0.16,0.04-0.28,0.05c-0.12,0.01-0.26,0.02-0.44,0.02
		c-0.18,0-0.32-0.01-0.44-0.02c-0.12-0.01-0.21-0.03-0.28-0.05c-0.07-0.02-0.12-0.05-0.14-0.09c-0.03-0.04-0.04-0.08-0.04-0.13
		v-2.53h-2.61v2.53c0,0.05-0.01,0.09-0.04,0.13c-0.03,0.03-0.08,0.07-0.15,0.09c-0.07,0.02-0.16,0.04-0.28,0.05
		c-0.12,0.01-0.26,0.02-0.44,0.02c-0.18,0-0.33-0.01-0.44-0.02c-0.12-0.01-0.21-0.03-0.28-0.05c-0.07-0.02-0.12-0.05-0.15-0.09
		c-0.03-0.04-0.04-0.08-0.04-0.13V97c0-0.05,0.01-0.09,0.04-0.13c0.03-0.04,0.08-0.07,0.15-0.09c0.07-0.02,0.16-0.04,0.28-0.05
		c0.11-0.01,0.26-0.02,0.44-0.02c0.18,0,0.33,0.01,0.44,0.02c0.12,0.01,0.21,0.03,0.28,0.05c0.07,0.02,0.12,0.05,0.15,0.09
		c0.03,0.03,0.04,0.08,0.04,0.13v2.41h2.61V97c0-0.05,0.01-0.09,0.04-0.13c0.03-0.04,0.08-0.07,0.14-0.09
		c0.07-0.02,0.16-0.04,0.28-0.05c0.12-0.01,0.27-0.02,0.44-0.02c0.18,0,0.32,0.01,0.44,0.02c0.12,0.01,0.21,0.03,0.28,0.05
		c0.07,0.02,0.12,0.05,0.15,0.09c0.03,0.03,0.04,0.08,0.04,0.13V103.44z M139.07,103.44c0,0.05-0.01,0.09-0.04,0.13
		c-0.03,0.03-0.08,0.07-0.15,0.09c-0.07,0.02-0.16,0.04-0.28,0.05c-0.12,0.01-0.26,0.02-0.44,0.02c-0.18,0-0.32-0.01-0.44-0.02
		c-0.12-0.01-0.21-0.03-0.28-0.05c-0.07-0.02-0.12-0.05-0.15-0.09c-0.02-0.04-0.04-0.08-0.04-0.13v-2.22
		c-0.24,0.1-0.49,0.18-0.75,0.23c-0.27,0.05-0.56,0.08-0.88,0.08c-0.49,0-0.89-0.06-1.21-0.17c-0.32-0.12-0.58-0.28-0.77-0.49
		c-0.19-0.21-0.33-0.45-0.41-0.73c-0.08-0.28-0.12-0.64-0.12-1.07V97c0-0.05,0.01-0.09,0.04-0.13c0.02-0.04,0.07-0.07,0.14-0.09
		c0.07-0.02,0.16-0.04,0.28-0.05c0.12-0.01,0.26-0.02,0.44-0.02c0.18,0,0.33,0.01,0.44,0.02c0.11,0.01,0.21,0.03,0.28,0.05
		c0.07,0.02,0.12,0.05,0.15,0.09c0.03,0.03,0.04,0.08,0.04,0.13v1.8c0,0.32,0.02,0.55,0.07,0.7c0.05,0.15,0.12,0.27,0.2,0.35
		c0.09,0.09,0.19,0.15,0.32,0.19c0.13,0.04,0.27,0.05,0.43,0.05c0.23,0,0.46-0.03,0.68-0.08c0.22-0.05,0.43-0.14,0.65-0.24V97
		c0-0.05,0.01-0.09,0.04-0.13c0.03-0.04,0.08-0.07,0.15-0.09c0.07-0.02,0.16-0.04,0.28-0.05c0.12-0.01,0.27-0.02,0.44-0.02
		c0.18,0,0.32,0.01,0.44,0.02c0.12,0.01,0.21,0.03,0.28,0.05c0.07,0.02,0.12,0.05,0.15,0.09c0.03,0.03,0.04,0.08,0.04,0.13V103.44z
		 M130.36,100.23c0-0.32-0.02-0.61-0.08-0.88c-0.05-0.27-0.14-0.5-0.26-0.7c-0.12-0.2-0.28-0.35-0.48-0.46
		c-0.2-0.11-0.45-0.17-0.75-0.17c-0.27,0-0.51,0.05-0.71,0.15c-0.2,0.1-0.37,0.24-0.5,0.43c-0.13,0.19-0.23,0.42-0.29,0.69
		c-0.06,0.27-0.1,0.57-0.1,0.91c0,0.32,0.02,0.61,0.08,0.88c0.05,0.27,0.14,0.5,0.26,0.7c0.12,0.2,0.28,0.35,0.48,0.46
		c0.2,0.11,0.45,0.16,0.75,0.16c0.28,0,0.51-0.05,0.72-0.15c0.2-0.1,0.37-0.24,0.5-0.43c0.13-0.19,0.22-0.41,0.29-0.68
		C130.32,100.87,130.36,100.57,130.36,100.23z M132.23,100.15c0,0.55-0.07,1.05-0.22,1.5c-0.15,0.45-0.37,0.84-0.66,1.17
		c-0.29,0.33-0.66,0.58-1.1,0.76c-0.44,0.18-0.96,0.27-1.55,0.27c-0.57,0-1.07-0.08-1.49-0.24c-0.42-0.16-0.78-0.39-1.05-0.69
		c-0.28-0.3-0.49-0.68-0.62-1.12c-0.14-0.44-0.2-0.95-0.2-1.52c0-0.55,0.07-1.05,0.22-1.51c0.15-0.45,0.37-0.84,0.66-1.17
		c0.3-0.32,0.66-0.58,1.1-0.75c0.44-0.18,0.96-0.27,1.55-0.27c0.58,0,1.08,0.08,1.5,0.23c0.42,0.16,0.77,0.39,1.05,0.69
		c0.28,0.3,0.48,0.68,0.62,1.12C132.16,99.07,132.23,99.58,132.23,100.15z M124.25,103.4c0.01,0.12-0.05,0.2-0.17,0.25
		c-0.12,0.05-0.33,0.07-0.64,0.07c-0.19,0-0.34,0-0.45-0.01c-0.11,0-0.2-0.02-0.26-0.04c-0.06-0.02-0.1-0.05-0.12-0.08
		c-0.02-0.03-0.03-0.08-0.04-0.14l-0.38-3.46c-0.01-0.13-0.03-0.27-0.04-0.42c-0.01-0.16-0.03-0.31-0.04-0.47
		c-0.01-0.16-0.02-0.32-0.03-0.47c-0.01-0.16-0.02-0.3-0.04-0.42l0.01-0.18c-0.03,0.13-0.07,0.27-0.11,0.43
		c-0.04,0.15-0.09,0.31-0.13,0.47c-0.05,0.16-0.1,0.32-0.14,0.47c-0.04,0.16-0.08,0.3-0.12,0.42l-1.13,3.57
		c-0.02,0.06-0.05,0.11-0.09,0.15c-0.04,0.04-0.09,0.08-0.16,0.11c-0.07,0.03-0.16,0.04-0.27,0.06c-0.11,0.01-0.24,0.02-0.41,0.02
		c-0.15,0-0.28-0.01-0.38-0.02c-0.1-0.01-0.19-0.03-0.26-0.06c-0.07-0.03-0.12-0.06-0.16-0.11c-0.04-0.04-0.06-0.1-0.08-0.16
		l-1.11-3.56c-0.04-0.13-0.08-0.27-0.13-0.42c-0.04-0.16-0.09-0.31-0.14-0.47c-0.05-0.16-0.09-0.32-0.13-0.47
		c-0.04-0.16-0.08-0.3-0.11-0.43l0.01,0.18c-0.01,0.13-0.02,0.27-0.03,0.42c-0.01,0.16-0.02,0.31-0.04,0.47
		c-0.02,0.16-0.03,0.31-0.04,0.47c-0.01,0.15-0.02,0.29-0.03,0.42l-0.37,3.42c-0.01,0.06-0.03,0.11-0.05,0.16
		c-0.02,0.04-0.07,0.07-0.14,0.1c-0.07,0.03-0.16,0.04-0.27,0.05c-0.12,0.01-0.27,0.01-0.46,0.01c-0.17,0-0.3-0.01-0.4-0.01
		c-0.1-0.01-0.18-0.03-0.23-0.05c-0.06-0.03-0.09-0.06-0.11-0.1c-0.02-0.04-0.02-0.09-0.02-0.16l0.63-6.03
		c0.02-0.21,0.09-0.36,0.2-0.47c0.11-0.1,0.28-0.16,0.51-0.16h0.92c0.19,0,0.35,0.01,0.49,0.04c0.13,0.03,0.25,0.08,0.35,0.15
		c0.1,0.07,0.19,0.17,0.25,0.3c0.07,0.12,0.13,0.28,0.18,0.47l0.72,2.21c0.04,0.14,0.09,0.29,0.13,0.45
		c0.04,0.16,0.09,0.31,0.13,0.47c0.04,0.16,0.08,0.31,0.12,0.46c0.04,0.15,0.07,0.28,0.1,0.41h0.01c0.03-0.13,0.06-0.27,0.1-0.43
		c0.04-0.15,0.08-0.31,0.12-0.47c0.04-0.16,0.08-0.32,0.13-0.47c0.05-0.15,0.09-0.3,0.14-0.43l0.72-2.2
		c0.05-0.17,0.1-0.32,0.16-0.44c0.06-0.12,0.13-0.22,0.22-0.3c0.09-0.07,0.2-0.13,0.34-0.17c0.13-0.03,0.3-0.05,0.5-0.05h0.91
		c0.23,0,0.4,0.05,0.51,0.16c0.11,0.1,0.18,0.26,0.2,0.47L124.25,103.4z M111.86,100.23c0-0.32-0.02-0.61-0.08-0.88
		c-0.05-0.27-0.14-0.5-0.26-0.7c-0.12-0.2-0.28-0.35-0.48-0.46c-0.2-0.11-0.45-0.17-0.75-0.17c-0.27,0-0.51,0.05-0.71,0.15
		c-0.2,0.1-0.37,0.24-0.5,0.43c-0.13,0.19-0.23,0.42-0.29,0.69c-0.06,0.27-0.1,0.57-0.1,0.91c0,0.32,0.02,0.61,0.08,0.88
		c0.05,0.27,0.14,0.5,0.26,0.7c0.12,0.2,0.28,0.35,0.48,0.46c0.2,0.11,0.45,0.16,0.75,0.16c0.28,0,0.51-0.05,0.72-0.15
		c0.2-0.1,0.37-0.24,0.5-0.43c0.13-0.19,0.22-0.41,0.29-0.68C111.82,100.87,111.86,100.57,111.86,100.23z M113.73,100.15
		c0,0.55-0.07,1.05-0.22,1.5c-0.15,0.45-0.36,0.84-0.66,1.17c-0.29,0.33-0.66,0.58-1.1,0.76c-0.44,0.18-0.96,0.27-1.55,0.27
		c-0.57,0-1.07-0.08-1.49-0.24c-0.42-0.16-0.78-0.39-1.06-0.69c-0.28-0.3-0.49-0.68-0.62-1.12c-0.14-0.44-0.2-0.95-0.2-1.52
		c0-0.55,0.07-1.05,0.22-1.51c0.15-0.45,0.37-0.84,0.66-1.17c0.3-0.32,0.66-0.58,1.1-0.75c0.44-0.18,0.96-0.27,1.55-0.27
		c0.58,0,1.08,0.08,1.5,0.23c0.42,0.16,0.77,0.39,1.05,0.69c0.28,0.3,0.48,0.68,0.62,1.12C113.66,99.07,113.73,99.58,113.73,100.15z
		 M103.87,100.25c0-0.27-0.02-0.54-0.06-0.79c-0.04-0.25-0.11-0.48-0.21-0.68c-0.1-0.2-0.23-0.35-0.39-0.47
		c-0.16-0.12-0.36-0.18-0.6-0.18c-0.12,0-0.24,0.02-0.36,0.05c-0.12,0.04-0.24,0.1-0.36,0.18c-0.12,0.08-0.25,0.19-0.38,0.32
		c-0.13,0.13-0.27,0.29-0.41,0.48v2.12c0.26,0.32,0.5,0.57,0.73,0.75c0.23,0.18,0.47,0.26,0.72,0.26c0.24,0,0.44-0.06,0.6-0.18
		c0.17-0.12,0.3-0.28,0.41-0.47c0.11-0.19,0.18-0.41,0.24-0.66C103.84,100.75,103.87,100.5,103.87,100.25z M105.76,100.13
		c0,0.57-0.06,1.09-0.19,1.55c-0.12,0.46-0.3,0.85-0.54,1.17c-0.24,0.32-0.53,0.57-0.88,0.74c-0.35,0.17-0.75,0.26-1.21,0.26
		c-0.19,0-0.36-0.02-0.52-0.05c-0.16-0.03-0.31-0.09-0.46-0.16c-0.15-0.07-0.29-0.17-0.44-0.28c-0.14-0.11-0.29-0.24-0.45-0.39v3.03
		c0,0.05-0.01,0.09-0.04,0.13c-0.03,0.04-0.08,0.07-0.15,0.1c-0.07,0.03-0.16,0.05-0.28,0.06c-0.12,0.02-0.26,0.02-0.44,0.02
		c-0.18,0-0.33-0.01-0.44-0.02c-0.12-0.01-0.21-0.03-0.28-0.06c-0.07-0.03-0.12-0.06-0.15-0.1c-0.03-0.04-0.04-0.08-0.04-0.13v-9
		c0-0.05,0.01-0.09,0.04-0.13c0.02-0.04,0.07-0.07,0.13-0.09c0.06-0.02,0.14-0.04,0.24-0.05c0.1-0.01,0.22-0.02,0.37-0.02
		c0.14,0,0.27,0.01,0.36,0.02c0.1,0.01,0.18,0.03,0.24,0.05c0.06,0.02,0.1,0.05,0.13,0.09c0.02,0.03,0.03,0.08,0.03,0.13v0.76
		c0.19-0.19,0.37-0.36,0.55-0.51c0.18-0.15,0.36-0.27,0.55-0.37c0.19-0.1,0.38-0.17,0.58-0.22c0.2-0.05,0.41-0.07,0.64-0.07
		c0.47,0,0.87,0.09,1.21,0.28c0.33,0.18,0.6,0.44,0.81,0.76c0.21,0.32,0.36,0.7,0.46,1.13C105.71,99.18,105.76,99.64,105.76,100.13z
		 M98.01,103.51c0,0.04-0.01,0.07-0.04,0.1c-0.03,0.03-0.07,0.05-0.14,0.07c-0.07,0.02-0.16,0.03-0.28,0.04
		c-0.12,0.01-0.27,0.01-0.44,0.01c-0.2,0-0.37-0.01-0.5-0.01c-0.13-0.01-0.23-0.02-0.31-0.04c-0.08-0.02-0.13-0.04-0.16-0.08
		c-0.03-0.03-0.06-0.07-0.08-0.12l-0.6-1.54c-0.07-0.21-0.15-0.38-0.23-0.52c-0.08-0.14-0.18-0.25-0.28-0.33
		c-0.1-0.08-0.22-0.15-0.35-0.18c-0.13-0.04-0.28-0.05-0.45-0.05h-0.37v2.63c0,0.03-0.01,0.07-0.05,0.1
		c-0.03,0.03-0.09,0.06-0.16,0.08c-0.07,0.02-0.17,0.04-0.28,0.05c-0.12,0.01-0.25,0.02-0.42,0.02c-0.17,0-0.31-0.01-0.43-0.02
		c-0.11-0.01-0.21-0.03-0.28-0.05c-0.07-0.02-0.12-0.05-0.16-0.08c-0.03-0.03-0.05-0.06-0.05-0.1v-6.52c0-0.03,0.01-0.07,0.05-0.1
		c0.03-0.03,0.08-0.06,0.16-0.08c0.07-0.02,0.17-0.04,0.28-0.05c0.12-0.01,0.26-0.02,0.43-0.02c0.16,0,0.3,0.01,0.42,0.02
		c0.12,0.01,0.21,0.03,0.28,0.05c0.07,0.02,0.13,0.05,0.16,0.08c0.03,0.03,0.05,0.06,0.05,0.1v2.5h0.37c0.15,0,0.28-0.02,0.4-0.05
		c0.12-0.03,0.23-0.1,0.33-0.18c0.1-0.08,0.19-0.2,0.28-0.34c0.08-0.14,0.16-0.31,0.24-0.52l0.54-1.39
		c0.01-0.05,0.04-0.09,0.07-0.13c0.03-0.04,0.08-0.06,0.16-0.09c0.07-0.02,0.16-0.04,0.29-0.05c0.12-0.01,0.29-0.02,0.49-0.02
		c0.18,0,0.32,0.01,0.44,0.02c0.11,0.01,0.2,0.02,0.27,0.04c0.07,0.02,0.11,0.04,0.13,0.07c0.02,0.03,0.04,0.06,0.04,0.1
		c0,0.05-0.01,0.11-0.03,0.17c-0.02,0.07-0.05,0.16-0.1,0.27l-0.51,1.23c-0.1,0.25-0.21,0.46-0.32,0.63
		c-0.11,0.17-0.23,0.31-0.35,0.42c-0.12,0.11-0.24,0.2-0.36,0.27c-0.12,0.07-0.23,0.12-0.35,0.16v0.01c0.15,0.06,0.29,0.13,0.42,0.2
		c0.13,0.07,0.25,0.16,0.37,0.28c0.12,0.12,0.23,0.26,0.34,0.43c0.11,0.17,0.22,0.37,0.32,0.62l0.63,1.44
		c0.03,0.06,0.05,0.12,0.07,0.16c0.02,0.04,0.03,0.09,0.04,0.12c0.01,0.03,0.02,0.07,0.02,0.09
		C98.01,103.47,98.01,103.49,98.01,103.51z"/>
	<path class="st7" d="M236.51,101.37c0-0.17-0.02-0.32-0.07-0.45c-0.05-0.13-0.13-0.24-0.25-0.34c-0.11-0.09-0.26-0.17-0.44-0.21
		c-0.18-0.05-0.41-0.07-0.67-0.07c-0.16,0-0.31,0-0.45,0.01c-0.14,0.01-0.27,0.02-0.39,0.03v2.08c0.14,0.01,0.28,0.03,0.41,0.04
		c0.14,0.01,0.29,0.01,0.47,0.01c0.48,0,0.83-0.1,1.06-0.29C236.4,101.98,236.51,101.72,236.51,101.37 M234.24,98.98
		c0.17-0.02,0.33-0.03,0.5-0.04c0.17-0.01,0.36-0.01,0.56-0.01c0.53,0,0.99,0.05,1.37,0.16c0.38,0.11,0.7,0.26,0.95,0.47
		c0.25,0.2,0.44,0.45,0.56,0.73c0.12,0.29,0.18,0.61,0.18,0.98c0,0.38-0.07,0.73-0.2,1.04c-0.14,0.32-0.35,0.58-0.63,0.81
		c-0.28,0.22-0.64,0.4-1.07,0.52c-0.43,0.12-0.95,0.18-1.55,0.18c-0.16,0-0.32,0-0.49,0c-0.16,0-0.32-0.01-0.48-0.01
		c-0.16-0.01-0.31-0.01-0.46-0.02c-0.15-0.01-0.29-0.02-0.43-0.04c-0.23-0.02-0.4-0.09-0.5-0.21c-0.1-0.11-0.16-0.29-0.16-0.52V97
		c0-0.05,0.01-0.09,0.04-0.13c0.03-0.04,0.08-0.07,0.14-0.09c0.07-0.02,0.16-0.04,0.27-0.05c0.11-0.01,0.25-0.02,0.41-0.02
		c0.35,0,0.59,0.02,0.74,0.07c0.14,0.05,0.21,0.12,0.21,0.22V98.98z M241.12,103.44c0,0.05-0.01,0.09-0.04,0.13
		c-0.03,0.03-0.08,0.07-0.15,0.09c-0.07,0.02-0.16,0.04-0.27,0.05c-0.12,0.01-0.26,0.02-0.45,0.02c-0.17,0-0.32-0.01-0.43-0.02
		c-0.12-0.01-0.21-0.03-0.28-0.05c-0.07-0.02-0.12-0.05-0.15-0.09c-0.03-0.04-0.04-0.08-0.04-0.13V97c0-0.05,0.01-0.09,0.04-0.13
		c0.03-0.04,0.08-0.07,0.15-0.09c0.07-0.02,0.16-0.04,0.28-0.05c0.11-0.01,0.26-0.02,0.43-0.02c0.18,0,0.33,0.01,0.45,0.02
		c0.12,0.01,0.21,0.03,0.27,0.05c0.07,0.02,0.12,0.05,0.15,0.09c0.03,0.03,0.04,0.08,0.04,0.13V103.44z M230.6,103.44
		c0,0.05-0.01,0.09-0.04,0.13c-0.03,0.03-0.08,0.07-0.15,0.09c-0.07,0.02-0.16,0.04-0.28,0.05c-0.12,0.01-0.26,0.02-0.44,0.02
		c-0.18,0-0.33-0.01-0.44-0.02c-0.12-0.01-0.21-0.03-0.28-0.05c-0.07-0.02-0.12-0.05-0.14-0.09c-0.03-0.04-0.04-0.08-0.04-0.13
		v-5.21h-1.31c-0.08,0.76-0.17,1.42-0.29,1.99c-0.11,0.57-0.24,1.06-0.39,1.48c-0.15,0.41-0.31,0.76-0.5,1.03
		c-0.18,0.27-0.38,0.49-0.59,0.65c-0.22,0.16-0.45,0.27-0.7,0.34c-0.25,0.07-0.52,0.1-0.8,0.1c-0.07,0-0.12-0.01-0.17-0.03
		c-0.04-0.02-0.08-0.06-0.1-0.11c-0.02-0.06-0.04-0.14-0.05-0.24c-0.01-0.11-0.01-0.24-0.01-0.42c0-0.18,0-0.32,0.01-0.43
		c0.01-0.11,0.02-0.2,0.04-0.26c0.02-0.06,0.05-0.1,0.08-0.12c0.03-0.02,0.08-0.03,0.12-0.03c0.14,0,0.26-0.03,0.39-0.08
		c0.12-0.05,0.24-0.15,0.35-0.3c0.11-0.14,0.21-0.33,0.31-0.56c0.1-0.23,0.18-0.53,0.27-0.88c0.08-0.35,0.16-0.78,0.23-1.27
		c0.07-0.49,0.14-1.07,0.21-1.72c0.01-0.2,0.05-0.35,0.13-0.44c0.08-0.1,0.2-0.15,0.36-0.15h3.73c0.17,0,0.29,0.05,0.37,0.15
		c0.08,0.1,0.12,0.24,0.12,0.44V103.44z M221.05,100.7h-0.69c-0.29,0-0.54,0.02-0.75,0.06c-0.21,0.04-0.37,0.11-0.51,0.19
		c-0.13,0.09-0.22,0.19-0.29,0.32c-0.06,0.12-0.09,0.26-0.09,0.42c0,0.27,0.08,0.48,0.26,0.64c0.17,0.16,0.41,0.23,0.71,0.23
		c0.26,0,0.49-0.06,0.71-0.19c0.21-0.13,0.43-0.32,0.65-0.57V100.7z M222.83,103.46c0,0.07-0.02,0.12-0.07,0.16
		c-0.05,0.04-0.12,0.06-0.23,0.08c-0.1,0.02-0.26,0.03-0.46,0.03c-0.22,0-0.37-0.01-0.47-0.03c-0.1-0.02-0.17-0.04-0.21-0.08
		c-0.04-0.04-0.06-0.09-0.06-0.16v-0.51c-0.26,0.28-0.57,0.5-0.9,0.67c-0.34,0.16-0.72,0.24-1.13,0.24c-0.34,0-0.66-0.04-0.94-0.13
		c-0.29-0.09-0.53-0.22-0.74-0.4c-0.21-0.18-0.37-0.39-0.49-0.65c-0.12-0.26-0.17-0.56-0.17-0.91c0-0.38,0.07-0.7,0.22-0.98
		c0.15-0.28,0.37-0.5,0.66-0.69c0.29-0.18,0.65-0.31,1.09-0.4c0.43-0.09,0.94-0.13,1.51-0.13h0.63v-0.39c0-0.2-0.02-0.38-0.06-0.53
		c-0.04-0.15-0.11-0.28-0.2-0.38c-0.09-0.1-0.22-0.18-0.37-0.22c-0.16-0.05-0.35-0.07-0.58-0.07c-0.3,0-0.57,0.03-0.81,0.1
		c-0.24,0.07-0.45,0.14-0.63,0.22c-0.18,0.08-0.34,0.16-0.46,0.22c-0.12,0.07-0.22,0.1-0.3,0.1c-0.05,0-0.1-0.02-0.14-0.05
		c-0.04-0.03-0.07-0.08-0.1-0.15c-0.03-0.06-0.05-0.14-0.06-0.23c-0.02-0.09-0.02-0.19-0.02-0.31c0-0.15,0.01-0.27,0.03-0.35
		c0.02-0.09,0.07-0.17,0.14-0.23c0.07-0.07,0.18-0.15,0.35-0.23c0.17-0.08,0.37-0.16,0.59-0.23c0.22-0.07,0.47-0.13,0.74-0.18
		c0.27-0.05,0.54-0.07,0.83-0.07c0.51,0,0.94,0.05,1.3,0.15c0.36,0.1,0.65,0.25,0.88,0.46c0.23,0.2,0.4,0.47,0.51,0.79
		c0.11,0.32,0.16,0.71,0.16,1.15V103.46z M215.52,103.46c0,0.05-0.01,0.09-0.04,0.12c-0.03,0.03-0.07,0.06-0.14,0.08
		c-0.07,0.02-0.16,0.04-0.27,0.05c-0.11,0.01-0.26,0.01-0.43,0.01c-0.17,0-0.32-0.01-0.44-0.01c-0.12-0.01-0.21-0.03-0.29-0.05
		c-0.07-0.02-0.13-0.05-0.16-0.08c-0.03-0.03-0.05-0.07-0.05-0.12v-2.87c0-0.2,0.01-0.41,0.02-0.63c0.01-0.22,0.03-0.43,0.05-0.64
		c-0.12,0.2-0.24,0.4-0.38,0.6c-0.13,0.19-0.27,0.39-0.41,0.58l-2.17,2.95c-0.04,0.05-0.08,0.1-0.12,0.13
		c-0.04,0.04-0.09,0.07-0.15,0.09c-0.06,0.02-0.14,0.03-0.23,0.04c-0.09,0.01-0.21,0.01-0.35,0.01c-0.18,0-0.32-0.01-0.42-0.01
		c-0.11-0.01-0.19-0.03-0.26-0.05c-0.06-0.02-0.11-0.05-0.14-0.09c-0.03-0.04-0.04-0.08-0.04-0.13v-6.46c0-0.04,0.01-0.08,0.04-0.12
		c0.03-0.04,0.08-0.07,0.15-0.09c0.07-0.02,0.16-0.04,0.27-0.05c0.11-0.01,0.26-0.02,0.43-0.02c0.34,0,0.58,0.02,0.72,0.07
		c0.14,0.05,0.21,0.12,0.21,0.21v2.86c0,0.2-0.01,0.4-0.02,0.61c-0.01,0.21-0.03,0.42-0.06,0.61c0.12-0.19,0.23-0.38,0.35-0.57
		c0.12-0.19,0.25-0.37,0.38-0.55l2.2-2.96c0.04-0.05,0.08-0.1,0.12-0.13c0.04-0.04,0.1-0.06,0.16-0.09
		c0.07-0.02,0.14-0.04,0.24-0.05c0.09-0.01,0.21-0.02,0.36-0.02c0.17,0,0.31,0.01,0.42,0.02c0.11,0.01,0.2,0.03,0.26,0.05
		c0.06,0.02,0.11,0.06,0.13,0.09c0.02,0.04,0.04,0.08,0.04,0.13V103.46z M205.76,100.25c0-0.27-0.02-0.54-0.06-0.79
		c-0.04-0.25-0.11-0.48-0.21-0.68c-0.1-0.2-0.23-0.35-0.39-0.47c-0.16-0.12-0.36-0.18-0.6-0.18c-0.12,0-0.24,0.02-0.36,0.05
		c-0.12,0.04-0.24,0.1-0.36,0.18c-0.12,0.08-0.25,0.19-0.38,0.32c-0.13,0.13-0.27,0.29-0.41,0.48v2.12c0.26,0.32,0.5,0.57,0.73,0.75
		c0.23,0.18,0.47,0.26,0.72,0.26c0.24,0,0.44-0.06,0.6-0.18c0.17-0.12,0.3-0.28,0.41-0.47c0.11-0.19,0.18-0.41,0.24-0.66
		C205.74,100.75,205.76,100.5,205.76,100.25z M207.66,100.13c0,0.57-0.06,1.09-0.19,1.55c-0.12,0.46-0.3,0.85-0.54,1.17
		c-0.24,0.32-0.53,0.57-0.88,0.74c-0.35,0.17-0.75,0.26-1.21,0.26c-0.19,0-0.36-0.02-0.52-0.05c-0.16-0.03-0.31-0.09-0.46-0.16
		c-0.15-0.07-0.29-0.17-0.44-0.28c-0.15-0.11-0.29-0.24-0.45-0.39v3.03c0,0.05-0.01,0.09-0.04,0.13c-0.03,0.04-0.08,0.07-0.15,0.1
		c-0.07,0.03-0.16,0.05-0.28,0.06c-0.12,0.02-0.26,0.02-0.44,0.02c-0.18,0-0.33-0.01-0.44-0.02c-0.12-0.01-0.21-0.03-0.28-0.06
		c-0.07-0.03-0.12-0.06-0.15-0.1c-0.03-0.04-0.04-0.08-0.04-0.13v-9c0-0.05,0.01-0.09,0.04-0.13c0.02-0.04,0.07-0.07,0.13-0.09
		c0.06-0.02,0.14-0.04,0.24-0.05c0.1-0.01,0.22-0.02,0.37-0.02c0.14,0,0.27,0.01,0.36,0.02c0.1,0.01,0.18,0.03,0.24,0.05
		c0.06,0.02,0.1,0.05,0.13,0.09c0.02,0.03,0.03,0.08,0.03,0.13v0.76c0.19-0.19,0.37-0.36,0.55-0.51c0.18-0.15,0.36-0.27,0.55-0.37
		c0.19-0.1,0.38-0.17,0.58-0.22c0.2-0.05,0.41-0.07,0.64-0.07c0.47,0,0.87,0.09,1.21,0.28c0.33,0.18,0.6,0.44,0.81,0.76
		c0.21,0.32,0.36,0.7,0.46,1.13C207.61,99.18,207.66,99.64,207.66,100.13z M197.92,99.51c0.02-0.51-0.09-0.91-0.31-1.2
		c-0.22-0.29-0.56-0.44-1.02-0.44c-0.23,0-0.43,0.04-0.6,0.13c-0.17,0.09-0.31,0.2-0.43,0.35c-0.11,0.15-0.2,0.32-0.26,0.52
		c-0.06,0.2-0.09,0.41-0.1,0.64H197.92z M199.68,100.03c0,0.22-0.05,0.38-0.15,0.49c-0.1,0.11-0.23,0.16-0.41,0.16h-3.92
		c0,0.28,0.03,0.52,0.1,0.75c0.07,0.22,0.17,0.41,0.31,0.57c0.14,0.16,0.33,0.28,0.55,0.36c0.22,0.08,0.49,0.12,0.81,0.12
		c0.32,0,0.6-0.02,0.84-0.07c0.24-0.05,0.45-0.1,0.63-0.15c0.17-0.05,0.32-0.11,0.44-0.15c0.12-0.05,0.21-0.07,0.28-0.07
		c0.04,0,0.08,0.01,0.11,0.02c0.03,0.02,0.05,0.05,0.07,0.09c0.02,0.04,0.03,0.1,0.04,0.18c0.01,0.08,0.01,0.18,0.01,0.3
		c0,0.11,0,0.2-0.01,0.27c-0.01,0.07-0.01,0.14-0.02,0.19c-0.01,0.05-0.02,0.1-0.04,0.13c-0.02,0.04-0.04,0.07-0.08,0.1
		c-0.03,0.03-0.12,0.08-0.26,0.14c-0.14,0.06-0.32,0.11-0.53,0.17c-0.22,0.05-0.46,0.1-0.74,0.14c-0.28,0.04-0.58,0.06-0.9,0.06
		c-0.57,0-1.07-0.07-1.51-0.22c-0.43-0.14-0.79-0.36-1.08-0.66c-0.29-0.29-0.5-0.67-0.65-1.11c-0.14-0.45-0.21-0.97-0.21-1.57
		c0-0.57,0.07-1.09,0.22-1.55c0.15-0.46,0.36-0.85,0.65-1.17c0.29-0.32,0.63-0.56,1.04-0.73c0.41-0.17,0.87-0.25,1.38-0.25
		c0.54,0,1,0.08,1.38,0.24c0.38,0.16,0.7,0.38,0.94,0.66c0.25,0.28,0.43,0.61,0.54,1c0.12,0.38,0.17,0.8,0.17,1.25V100.03z
		 M192.84,97.56c0,0.16-0.01,0.29-0.02,0.4c-0.01,0.11-0.03,0.19-0.05,0.25c-0.02,0.06-0.05,0.11-0.09,0.13
		c-0.04,0.02-0.08,0.04-0.12,0.04h-1.62v5.07c0,0.05-0.01,0.09-0.04,0.13c-0.03,0.03-0.08,0.07-0.15,0.09
		c-0.07,0.02-0.16,0.04-0.28,0.05c-0.12,0.01-0.27,0.02-0.44,0.02c-0.17,0-0.32-0.01-0.43-0.02c-0.12-0.01-0.21-0.03-0.28-0.05
		c-0.07-0.02-0.12-0.05-0.14-0.09c-0.03-0.04-0.04-0.08-0.04-0.13v-5.07h-1.62c-0.05,0-0.09-0.01-0.13-0.04
		c-0.03-0.03-0.07-0.07-0.09-0.14c-0.03-0.06-0.04-0.15-0.05-0.26c-0.01-0.11-0.02-0.25-0.02-0.4c0-0.15,0.01-0.27,0.02-0.36
		c0.01-0.1,0.03-0.18,0.06-0.24c0.02-0.06,0.05-0.11,0.09-0.13c0.03-0.03,0.07-0.04,0.12-0.04h5.05c0.04,0,0.08,0.01,0.12,0.04
		c0.03,0.02,0.07,0.07,0.09,0.13c0.02,0.06,0.04,0.15,0.05,0.25C192.83,97.28,192.84,97.4,192.84,97.56z"/>
</g>
<path class="st7" d="M253.75,65.69c-0.74-0.74-1.77-1.2-2.9-1.2c-1.13,0-2.16,0.46-2.9,1.2l0,0c-0.74,0.74-1.2,1.77-1.2,2.9
	c0,1.13,0.46,2.16,1.2,2.9c0.74,0.74,1.77,1.2,2.9,1.2c1.13,0,2.16-0.46,2.9-1.2l0,0c0.74-0.74,1.2-1.77,1.2-2.9
	C254.95,67.46,254.49,66.43,253.75,65.69 M250.85,63.58c1.38,0,2.64,0.56,3.54,1.47c0.91,0.91,1.47,2.16,1.47,3.54
	c0,1.38-0.56,2.63-1.47,3.54v0c-0.91,0.91-2.16,1.47-3.54,1.47c-1.38,0-2.63-0.56-3.54-1.47l0,0c-0.91-0.91-1.47-2.16-1.47-3.54
	c0-1.38,0.56-2.63,1.47-3.54h0C248.22,64.14,249.47,63.58,250.85,63.58z"/>
<path class="st7" d="M251.77,67.36c0-0.18-0.04-0.34-0.12-0.46c-0.08-0.13-0.22-0.22-0.41-0.27c-0.06-0.01-0.12-0.03-0.19-0.03
	c-0.07-0.01-0.17-0.01-0.3-0.01h-0.51v1.57h0.57c0.16,0,0.3-0.02,0.42-0.06c0.12-0.04,0.22-0.09,0.3-0.16
	c0.08-0.07,0.14-0.15,0.18-0.25C251.75,67.59,251.77,67.48,251.77,67.36 M253.23,71.13c0,0.03-0.01,0.06-0.02,0.08
	c-0.01,0.02-0.04,0.04-0.08,0.05c-0.04,0.01-0.11,0.02-0.19,0.03c-0.08,0.01-0.2,0.01-0.34,0.01c-0.12,0-0.22,0-0.29-0.01
	c-0.07-0.01-0.13-0.02-0.17-0.03c-0.04-0.02-0.07-0.04-0.09-0.06c-0.02-0.02-0.03-0.05-0.04-0.09l-0.5-1.24
	c-0.06-0.14-0.12-0.26-0.18-0.37c-0.06-0.11-0.12-0.2-0.19-0.27c-0.07-0.07-0.15-0.13-0.24-0.17c-0.09-0.04-0.2-0.06-0.32-0.06
	h-0.35v2.12c0,0.03-0.01,0.05-0.03,0.08c-0.02,0.02-0.05,0.04-0.09,0.06c-0.04,0.01-0.1,0.03-0.17,0.04
	c-0.07,0.01-0.16,0.01-0.27,0.01c-0.11,0-0.2,0-0.27-0.01c-0.07-0.01-0.13-0.02-0.17-0.04c-0.04-0.01-0.07-0.03-0.09-0.06
	c-0.02-0.02-0.03-0.05-0.03-0.08v-5.04c0-0.13,0.03-0.22,0.1-0.27c0.06-0.06,0.14-0.08,0.24-0.08h1.44c0.15,0,0.27,0,0.36,0.01
	c0.1,0.01,0.18,0.01,0.26,0.02c0.22,0.03,0.42,0.09,0.6,0.16c0.18,0.08,0.33,0.18,0.45,0.3c0.12,0.12,0.22,0.27,0.29,0.44
	c0.07,0.17,0.1,0.37,0.1,0.59c0,0.19-0.02,0.36-0.07,0.51c-0.05,0.15-0.12,0.29-0.21,0.41c-0.09,0.12-0.2,0.22-0.34,0.31
	c-0.13,0.09-0.29,0.16-0.46,0.21c0.08,0.04,0.16,0.09,0.23,0.15c0.07,0.06,0.14,0.13,0.2,0.21c0.06,0.08,0.13,0.17,0.18,0.28
	c0.06,0.11,0.11,0.22,0.17,0.35l0.47,1.09c0.04,0.11,0.07,0.19,0.09,0.24C253.22,71.06,253.23,71.1,253.23,71.13z"/>
</svg>
