<svg width="118px" height="40px" viewBox="0 0 118 40" version="1.1" xmlns="http://www.w3.org/2000/svg" xmlns:xlink="http://www.w3.org/1999/xlink">
    <!-- Generator: Sketch 62 (91390) - https://sketch.com -->
    <title>logo / slotex / grey</title>
    <desc>Created with Sketch.</desc>
    <g id="logo-/-slotex-/-grey" stroke="none" stroke-width="1" fill="none" fill-rule="evenodd">
        <path d="M34.061519,34.5640506 L17.0989873,39.5397468 L17.0989873,29.4739241 L34.061519,34.5640506 Z M0.155696203,4.98126582 L17.1364557,10.0759494 L17.1364557,0 L0.155696203,4.98126582 Z M0.000253164557,15.4050633 L0.000253164557,22.8359494 L34.218481,33.1002532 L34.218481,25.6708861 L0.000253164557,15.4050633 Z M34.2174684,24.1402532 L0.000253164557,13.8749367 L0.000253164557,6.44405063 L34.2174684,16.7098734 L34.2174684,24.1402532 Z M38.6326582,28.3372152 L42.976962,27.6886076 C43.1617722,28.5113924 43.5349367,29.1392405 44.1025316,29.564557 C44.6655696,29.9913924 45.4539241,30.2075949 46.4741772,30.2075949 C47.5946835,30.2075949 48.4367089,30.0065823 48.9987342,29.601519 C49.3840506,29.3235443 49.5729114,28.9432911 49.5729114,28.4749367 C49.5729114,28.1513924 49.4675949,27.884557 49.2625316,27.6729114 C49.0463291,27.4729114 48.5632911,27.2875949 47.8164557,27.118481 C44.3232911,26.3681013 42.1096203,25.6789873 41.1729114,25.0577215 C39.8787342,24.1944304 39.2316456,22.9903797 39.2316456,21.4536709 C39.2316456,20.0713924 39.7896203,18.9043038 40.9101266,17.9640506 C42.0301266,17.0177215 43.7663291,16.5448101 46.1172152,16.5448101 C48.3572152,16.5448101 50.024557,16.9053165 51.1136709,17.6146835 C52.2022785,18.3291139 52.9496203,19.3827848 53.3592405,20.7802532 L49.2782278,21.515443 C49.1040506,20.8941772 48.7734177,20.4151899 48.2832911,20.0865823 C47.7946835,19.7524051 47.1,19.5878481 46.1962025,19.5878481 C45.0549367,19.5878481 44.2387342,19.7422785 43.7450633,20.0556962 C43.4189873,20.2764557 43.2559494,20.564557 43.2559494,20.9139241 C43.2559494,21.2182278 43.3977215,21.4693671 43.6873418,21.6805063 C44.0767089,21.963038 45.423038,22.358481 47.7318987,22.8724051 C50.0351899,23.3807595 51.6443038,24.0081013 52.5602532,24.7539241 C53.464557,25.5098734 53.9172152,26.5579747 53.9172152,27.8997468 C53.9172152,29.364557 53.2913924,30.6293671 52.0346835,31.6835443 C50.7825316,32.7367089 48.9313924,33.2617722 46.4741772,33.2617722 C44.2443038,33.2617722 42.4827848,32.8192405 41.1779747,31.9356962 C39.8787342,31.0556962 39.0321519,29.8526582 38.6326582,28.3372152 L38.6326582,28.3372152 Z M55.4296203,32.9007595 L59.7587342,32.9007595 L59.7587342,10.8232911 L55.4296203,10.8232911 L55.4296203,32.9007595 Z M60.9121519,24.6774684 C60.9121519,26.5164557 61.2696203,28.0744304 61.9749367,29.3544304 C62.6858228,30.6349367 63.7207595,31.6050633 65.0827848,32.2703797 C66.4463291,32.9321519 67.8706329,33.2617722 69.3759494,33.2617722 C71.7997468,33.2617722 73.8088608,32.4693671 75.4078481,30.875443 C77.0022785,29.2825316 77.8012658,27.276962 77.8012658,24.8612658 C77.8012658,22.4617722 77.0118987,20.4779747 75.4296203,18.9043038 C73.8453165,17.3311392 71.8159494,16.5448101 69.3440506,16.5448101 C67.7394937,16.5448101 66.2873418,16.8936709 64.9886076,17.5883544 C63.6898734,18.276962 62.6858228,19.2855696 61.9749367,20.595443 C61.2696203,21.9113924 60.9121519,23.2729114 60.9121519,24.6774684 L60.9121519,24.6774684 Z M65.3526582,24.9027848 C65.3526582,26.4916456 65.735443,27.7043038 66.5081013,28.5468354 C67.2767089,29.3898734 68.2286076,29.8116456 69.3597468,29.8116456 C70.4913924,29.8116456 71.4367089,29.3898734 72.2002532,28.5468354 C72.9678481,27.7043038 73.3521519,26.4810127 73.3521519,24.8718987 C73.3521519,23.3098734 72.9678481,22.1012658 72.2002532,21.2587342 C71.4367089,20.4151899 70.4913924,19.9944304 69.3597468,19.9944304 C68.2286076,19.9944304 67.2767089,20.4151899 66.5081013,21.2587342 C65.735443,22.1012658 65.3526582,23.32 65.3526582,24.9027848 L65.3526582,24.9027848 Z M86.4144304,16.9103797 L86.4144304,20.2820253 L83.4589873,20.2820253 L83.4589873,26.7265823 C83.4589873,28.0339241 83.4837975,28.7939241 83.5420253,29.0096203 C83.6002532,29.2263291 83.7268354,29.4005063 83.9268354,29.5443038 C84.1253165,29.6835443 84.3744304,29.7564557 84.6579747,29.7564557 C85.0625316,29.7564557 85.6397468,29.6167089 86.4037975,29.3493671 L86.7713924,32.6293671 C85.7622785,33.0501266 84.6255696,33.2617722 83.3465823,33.2617722 C82.5693671,33.2617722 81.864557,33.1316456 81.2377215,32.8805063 C80.6124051,32.6232911 80.1546835,32.2896203 79.8594937,31.8825316 C79.5658228,31.4774684 79.3663291,30.9265823 79.2503797,30.2324051 C79.1612658,29.7453165 79.1131646,28.7478481 79.1131646,27.2516456 L79.1131646,20.2820253 L77.1258228,20.2820253 L77.1258228,16.9103797 L79.1131646,16.9103797 L79.1131646,13.7286076 L83.4589873,11.2607595 L83.4589873,16.9103797 L86.4144304,16.9103797 Z M97.3875949,27.8126582 C97.1562025,28.6146835 96.8032911,29.1949367 96.34,29.56 C95.8782278,29.9194937 95.3096203,30.1002532 94.6316456,30.1002532 C93.6367089,30.1002532 92.8017722,29.7503797 92.1329114,29.0521519 C91.4650633,28.356962 91.1182278,27.3807595 91.0868354,26.1265823 L101.936962,26.1265823 C101.99519,22.8825316 101.321772,20.4779747 99.9167089,18.9043038 C98.5081013,17.3311392 96.5875949,16.5448101 94.1536709,16.5448101 C91.9860759,16.5448101 90.1916456,17.2946835 88.776962,18.7959494 C87.3572152,20.2972152 86.6468354,22.3736709 86.6468354,25.0268354 C86.6468354,27.241519 87.1896203,29.0825316 88.2665823,30.5372152 C89.6351899,32.3564557 91.738481,33.2617722 94.5840506,33.2617722 C96.383038,33.2617722 97.8817722,32.8607595 99.0756962,32.0475949 C100.274177,31.2410127 101.148101,30.0632911 101.70557,28.516962 L97.3875949,27.8126582 Z M97.6351899,23.5362025 C97.6027848,22.3063291 97.2817722,21.3762025 96.6665823,20.7397468 C96.0518987,20.1017722 95.2994937,19.7832911 94.4159494,19.7832911 C93.4696203,19.7832911 92.6913924,20.1225316 92.0751899,20.7959494 C91.46,21.4637975 91.1551899,22.3792405 91.1653165,23.5362025 L97.6351899,23.5362025 Z M100.330886,32.9007595 L106.232152,24.6617722 L100.577468,16.9103797 L105.864557,16.9103797 L108.762785,21.3048101 L111.813418,16.9103797 L116.898987,16.9103797 L111.350127,24.4820253 L117.403797,32.9007595 L112.091899,32.9007595 L108.762785,27.9463291 L105.401266,32.9007595 L100.330886,32.9007595 Z" id="Fill-1" fill="#707277"></path>
    </g>
</svg>