<?xml version="1.0" encoding="utf-8"?>
<!-- Generator: Adobe Illustrator 24.1.2, SVG Export Plug-In . SVG Version: 6.00 Build 0)  -->
<svg version="1.1" xmlns="http://www.w3.org/2000/svg" xmlns:xlink="http://www.w3.org/1999/xlink" x="0px" y="0px"
	 viewBox="0 0 2834.65 765.35" style="enable-background:new 0 0 2834.65 765.35;" xml:space="preserve">
<style type="text/css">
	.st0{fill:#3C3C3B;}
	.st1{fill:none;}
	.st2{fill:url(#SVGID_1_);stroke:#EA5B0C;stroke-width:3;stroke-miterlimit:10;}
	.st3{fill:url(#SVGID_2_);stroke:#EA5B0C;stroke-width:3;stroke-miterlimit:10;}
	.st4{fill:#DADADA;}
</style>
<g id="Слой_1">
	<rect x="-24.62" y="-14.85" class="st0" width="2876.92" height="792.31"/>
</g>
<g id="Слой_2">
	<rect x="169.91" y="282.19" class="st1" width="2494.83" height="200.98"/>
	<g>
		<g>
			<linearGradient id="SVGID_1_" gradientUnits="userSpaceOnUse" x1="168.7925" y1="460.0582" x2="460.4665" y2="460.0582">
				<stop  offset="0" style="stop-color:#111110"/>
				<stop  offset="0.1337" style="stop-color:#2D231D"/>
				<stop  offset="0.4408" style="stop-color:#6D4425"/>
				<stop  offset="0.6979" style="stop-color:#A25A1E"/>
				<stop  offset="0.8918" style="stop-color:#C7680E"/>
				<stop  offset="1" style="stop-color:#D56D00"/>
			</linearGradient>
			<polygon class="st2" points="246.88,313.18 169.53,313.12 168.79,607 274.86,607 275.59,422.13 355.14,422.13 460.47,315.33 			
				"/>
			<linearGradient id="SVGID_2_" gradientUnits="userSpaceOnUse" x1="168.7925" y1="368.3576" x2="759.506" y2="368.3576">
				<stop  offset="0" style="stop-color:#111110"/>
				<stop  offset="0.1337" style="stop-color:#2D231D"/>
				<stop  offset="0.4408" style="stop-color:#6D4425"/>
				<stop  offset="0.6979" style="stop-color:#A25A1E"/>
				<stop  offset="0.8918" style="stop-color:#C7680E"/>
				<stop  offset="1" style="stop-color:#D56D00"/>
			</linearGradient>
			<path class="st3" d="M618.44,155.89c-33.63-17.16-85.05-25.73-154.26-25.73l-295.39-0.44l106.06,106.06h221.7
				c56.32,0,88.02,10.73,105.33,25.78c50.82,44.19,49.98,154.78,5.16,199.61c-27.25,27.25-52.3,39.77-111.96,39.86
				c-10.68,0.02-22.1-0.09-34.62-0.09L357.35,607c78.07,0,66.53,0,103.12,0c72.92,0,122.61-9.25,157.62-26.52
				c53.77-26.52,141.42-93.54,141.42-212.13C759.51,246.83,671.94,182.9,618.44,155.89z"/>
		</g>
	</g>
	<g>
		<path class="st4" d="M890.39,287.33V268.3h21.2v19.03h2.24c32.74,0,56.25,23.02,56.25,57.23c0,33.86-23.51,56.88-56.25,56.88
			h-2.24v18.54h-21.2v-18.54h-2.38c-32.81,0-56.32-22.74-56.32-56.67c0-34.28,23.65-57.44,56.32-57.44H890.39z M852.62,344.77
			c0,23.64,13.15,37.99,35.4,37.99h2.38v-76.74h-2.38C865.63,306.01,852.62,320.49,852.62,344.77z M911.59,382.75h2.31
			c22.32,0,35.19-14.41,35.19-38.2c0-24-12.87-38.55-35.19-38.55h-2.31V382.75z"/>
		<path class="st4" d="M995.37,360.86c0-33.44,19.8-55.62,50.09-55.62c30.29,0,50.09,22.17,50.09,55.62
			c0,33.23-19.8,55.41-50.09,55.41C1015.17,416.26,995.37,394.09,995.37,360.86z M1074.42,360.79c0-20.57-9.24-38.06-28.89-38.06
			c-19.8,0-29.03,17.49-29.03,38.06c0,20.64,9.23,37.92,29.03,37.92C1065.19,398.7,1074.42,381.42,1074.42,360.79z"/>
		<path class="st4" d="M1123.78,306.64h20.43v17.42h1.75c3.71-6.65,10.91-18.82,30.85-18.82c25.95,0,45.12,20.5,45.12,55.34
			c0,34.77-18.89,55.62-44.91,55.62c-19.59,0-27.28-11.96-31.06-18.82h-1.26v57.02h-20.92V306.64z M1172.33,398.35
			c18.68,0,28.47-16.44,28.47-37.99c0-21.34-9.51-37.36-28.47-37.36c-18.26,0-28.05,14.9-28.05,37.36
			C1144.28,382.96,1154.35,398.35,1172.33,398.35z"/>
		<path class="st4" d="M1345.31,306.64h26.03v107.46h-20.36v-77.86l-32.6,77.86h-15.53l-32.04-78.14v78.14h-20.5V306.64h26.3
			l34,81.57L1345.31,306.64z"/>
		<path class="st4" d="M1399.22,452.08l5.04-17.14c11.47,3.15,18.96,1.96,24.27-12.31l2.59-7.14l-39.32-108.85h22.39l27.21,83.39
			h1.12l27.21-83.39h22.46l-44.28,121.8c-6.23,16.93-17.14,25.96-34.42,25.96C1407.19,454.39,1401.73,453.2,1399.22,452.08z"/>
		<path class="st4" d="M1499.43,395.98h3.85c11.96,0,15.74-8.61,17.07-41.77l1.89-47.57h74.99v107.46h-20.5v-89.41h-35.12
			l-1.68,36.52c-1.68,35.54-10.28,52.89-33.72,52.89h-6.72L1499.43,395.98z"/>
		<path class="st4" d="M1624.97,383.73c0-24.42,20.85-29.73,41.21-32.11c19.31-2.24,27.14-2.1,27.14-9.72v-0.49
			c0-12.17-6.92-19.24-20.43-19.24c-14.06,0-21.9,7.34-24.98,14.97l-19.66-4.48c7-19.59,24.91-27.42,44.35-27.42
			c17.07,0,41.69,6.23,41.69,37.5v71.36h-20.43V399.4h-0.84c-3.99,8.05-13.99,17.07-31.76,17.07
			C1640.85,416.47,1624.97,404.86,1624.97,383.73z M1693.39,375.34v-13.85c-3.01,3.01-19.1,4.83-25.88,5.74
			c-12.1,1.61-22.04,5.6-22.04,16.79c0,10.35,8.53,15.67,20.36,15.67C1683.25,399.68,1693.39,388.07,1693.39,375.34z"/>
		<path class="st4" d="M1795.04,395.77h9.45c9.58-8.12,18.05-24.56,20.22-64.43l3.36-60.51h88.36v124.95h16.23v52.75h-20.71v-34.42
			h-96.19v34.63h-20.71V395.77z M1895.71,395.77V289.43h-48.06l-2.24,41.91c-1.75,30.29-7.27,51.35-15.46,64.43H1895.71z"/>
		<path class="st4" d="M2027.41,306.64h22.53v107.46h-20.5v-78.21l-47.15,78.21h-22.74V306.64h20.5v78.14L2027.41,306.64z"/>
		<path class="st4" d="M2098.04,385.69c0.63,8.81,8.6,13.71,20.43,13.71c12.03,0,21.76-4.97,21.76-15.95
			c0-9.72-7.63-16.3-19.52-16.3h-17.49v-16.44h17.49c11.82,0,17.7-6.02,17.7-14.2c0-8.74-6.58-14.62-17.84-14.62
			c-11.4,0-19.73,5.6-20.15,13.64h-21.13c0.42-18.05,17.28-30.29,40.23-30.29c23.93,0,39.04,12.45,39.04,30.08
			c0,11.82-7.77,19.38-19.03,22.6v1.12c12.45,0.84,21.34,11.19,21.34,25.18c0,19.73-17.7,32.04-42.18,32.04
			c-23.86,0-41.42-11.82-42.04-30.57H2098.04z"/>
		<path class="st4" d="M2182.37,383.73c0-24.42,20.85-29.73,41.21-32.11c19.31-2.24,27.14-2.1,27.14-9.72v-0.49
			c0-12.17-6.92-19.24-20.43-19.24c-14.06,0-21.9,7.34-24.98,14.97l-19.66-4.48c7-19.59,24.91-27.42,44.35-27.42
			c17.07,0,41.69,6.23,41.69,37.5v71.36h-20.43V399.4h-0.84c-3.99,8.05-13.99,17.07-31.76,17.07
			C2198.25,416.47,2182.37,404.86,2182.37,383.73z M2250.79,375.34v-13.85c-3.01,3.01-19.1,4.83-25.88,5.74
			c-12.1,1.61-22.04,5.6-22.04,16.79c0,10.35,8.54,15.67,20.36,15.67C2240.64,399.68,2250.79,388.07,2250.79,375.34z"/>
		<path class="st4" d="M2372.34,306.64h22.53v107.46h-20.5v-78.21l-47.15,78.21h-22.74V306.64h20.5v78.14L2372.34,306.64z
			 M2380.6,270.26c0,15.74-11.96,26.58-30.92,26.58c-18.82,0-30.78-10.84-30.78-26.58h17.14c0,7,3.71,13.29,13.64,13.29
			c9.8,0,13.71-6.23,13.71-13.29H2380.6z"/>
		<path class="st4" d="M2448.43,351.34h46.52v-44.7h20.43v107.46h-20.43v-44.63h-46.52v44.63h-20.5V306.64h20.5V351.34z"/>
		<path class="st4" d="M2543.18,383.73c0-24.42,20.85-29.73,41.21-32.11c19.31-2.24,27.14-2.1,27.14-9.72v-0.49
			c0-12.17-6.92-19.24-20.43-19.24c-14.06,0-21.9,7.34-24.98,14.97l-19.66-4.48c7-19.59,24.91-27.42,44.35-27.42
			c17.07,0,41.69,6.23,41.69,37.5v71.36h-20.43V399.4h-0.84c-3.99,8.05-13.99,17.07-31.76,17.07
			C2559.07,416.47,2543.18,404.86,2543.18,383.73z M2611.6,375.34v-13.85c-3.01,3.01-19.1,4.83-25.88,5.74
			c-12.1,1.61-22.04,5.6-22.04,16.79c0,10.35,8.53,15.67,20.36,15.67C2601.46,399.68,2611.6,388.07,2611.6,375.34z"/>
	</g>
</g>
</svg>
