<svg width="120" height="120" viewBox="0 0 120 120" fill="none" xmlns="http://www.w3.org/2000/svg">
<path d="M10.8094 13.3492L21.5827 26.6805H45.0684C67.5917 26.6805 69.9762 26.7072 72.4684 26.9471C78.5948 27.5515 83.3351 29.1868 86.5527 31.8175C92.241 36.4568 95.8105 46.882 95.8105 58.8535C95.8105 67.8566 93.778 76.2198 90.2946 81.6057C88.8725 83.8009 86.5312 86.405 84.4268 88.1381C80.5484 91.3287 76.8496 92.653 70.1342 93.2484C69.5094 93.3106 66.9956 93.3462 64.1658 93.3462L59.2748 93.3373L49.7297 105.478C44.4795 112.152 39.768 118.151 39.258 118.809L38.3315 120.009L51.5396 119.973C59.9212 119.947 65.2432 119.902 66.1122 119.84C72.174 119.405 75.8943 118.88 79.8302 117.911C86.7897 116.205 91.8172 113.619 97.7928 108.659C100.903 106.082 103.373 103.602 106.002 100.403C108.717 97.1056 110.685 94.1727 112.653 90.4933C116.84 82.6722 119.174 74.389 119.871 64.8526C120 63.1462 120.043 58.4714 119.95 56.5872C119.404 45.3355 116.545 35.5148 111.252 26.725C106.857 19.4105 100.73 12.9403 93.4979 7.98995C90.9554 6.2391 89.1167 5.22592 86.7251 4.2394C81.7047 2.1597 75.6932 0.924331 67.9078 0.373302C64.8697 0.16 59.1599 0.115562 30.5604 0.0622365L0.0361328 0.0089111L10.8094 13.3492Z" fill="white"/>
<path d="M0.115099 77.4463C0.0935526 94.6704 0.0504595 111.29 0.028913 114.374L-0.0213623 120H10.7519H21.5252L21.5755 116.507C21.597 114.596 21.6401 104.136 21.6616 93.2662L21.7119 73.518H29.8062H37.9006L42.7126 67.4478C45.3628 64.1149 50.1605 58.0892 53.3782 54.0542L59.2316 46.722L58.5781 46.7042C58.219 46.6864 53.1268 46.6153 47.2589 46.5442C41.3911 46.4642 32.3416 46.3487 27.1488 46.2776C21.9561 46.2065 13.7541 46.1443 8.93482 46.1443H0.165374L0.115099 77.4463Z" fill="white"/>
</svg>
