<svg width="32" height="32" viewBox="0 0 32 32" fill="none" xmlns="http://www.w3.org/2000/svg">
<mask id="mask0_109_7516" style="mask-type:alpha" maskUnits="userSpaceOnUse" x="6" y="1" width="20" height="30">
<path opacity="0.5" d="M6 3.33337C6 2.2288 6.89543 1.33337 8 1.33337H23.3333V5.33337H6V3.33337Z" fill="black"/>
<path fill-rule="evenodd" clip-rule="evenodd" d="M6 3.33337V30.6667H22C24.2091 30.6667 26 28.8758 26 26.6667V5.33337H8C6.89543 5.33337 6 4.43794 6 3.33337ZM12 24V26H18C19.1046 26 20 25.1046 20 24H12ZM12 16C12 13.7909 13.7909 12 16 12C18.2091 12 20 13.7909 20 16C20 18.2092 18.2091 20 16 20C13.7909 20 12 18.2092 12 16Z" fill="black"/>
<path opacity="0.6" fill-rule="evenodd" clip-rule="evenodd" d="M16 14C14.8954 14 14 14.8954 14 16C14 17.1046 14.8954 18 16 18C17.1046 18 18 17.1046 18 16C18 14.8954 17.1046 14 16 14Z" fill="black"/>
</mask>
<g mask="url(#mask0_109_7516)">
<path d="M0 0H32V32H0V0Z" fill="#333333"/>
</g>
</svg>
