<svg width="157" height="36" viewBox="0 0 157 36" fill="none" xmlns="http://www.w3.org/2000/svg">
<path d="M55.7325 23.3283V16.0122H60.0509V13.3498H48.2695V16.0122H52.588V23.3283H55.7325Z" fill="#333333"/>
<path d="M64.349 19.1567V13.3498H61.3093V23.3283H63.9926L69.2335 17.5215V23.3283H72.2731V13.3498H69.5898L64.349 19.1567Z" fill="#333333"/>
<path d="M82.4993 19.6178V23.3283H85.539V13.3498H82.4993V16.9974H77.6148V13.3498H74.5752V23.3283H77.6148V19.6178H82.4993Z" fill="#333333"/>
<path d="M94.0042 23.3283C94.696 23.3283 95.3249 23.2655 95.9119 23.0978C97.4841 22.6575 98.5113 21.3788 98.5113 19.6388C98.5113 17.9827 97.6308 16.8297 96.2263 16.3056C95.5555 16.0541 94.7589 16.0331 94.0042 16.0331H90.8807V13.3498H87.841V23.3283H94.0042ZM93.4801 18.381C93.8994 18.381 94.2977 18.381 94.6541 18.5068C95.1572 18.6745 95.4507 19.0938 95.4507 19.5969C95.4507 20.121 95.1572 20.5612 94.675 20.7708C94.3396 20.9176 94.0042 20.9176 93.4801 20.9176H90.8807V18.381H93.4801Z" fill="#333333"/>
<path d="M103.961 19.555L107.588 23.3283H111.634L106.582 18.1295L111.445 13.3498H107.63L103.961 17.1023H103.123V13.3498H100.083V23.3283H103.123V19.555H103.961Z" fill="#333333"/>
<path d="M117.889 13.0773C113.801 13.0773 111.348 15.3833 111.348 18.36C111.348 21.3368 113.801 23.6428 117.889 23.6428C121.955 23.6428 124.408 21.3368 124.408 18.36C124.408 15.3833 121.955 13.0773 117.889 13.0773ZM117.889 21.2111C115.855 21.2111 114.555 19.9952 114.555 18.36C114.555 16.7249 115.855 15.53 117.889 15.53C119.901 15.53 121.222 16.7249 121.222 18.36C121.222 19.9952 119.901 21.2111 117.889 21.2111Z" fill="#333333"/>
<path d="M134.531 12.7838H131.492V13.7901C127.676 13.8739 125.391 15.4881 125.391 18.3391C125.391 21.1901 127.676 22.6785 131.492 22.7623V23.7686H134.531V22.7623C138.368 22.6785 140.653 21.1901 140.653 18.3391C140.653 15.4881 138.368 13.8739 134.531 13.7901V12.7838ZM131.492 20.6241C129.395 20.5402 128.473 19.6807 128.473 18.3391C128.473 16.9974 129.395 16.0331 131.492 15.9493V20.6241ZM134.531 15.9493C136.649 16.0331 137.55 16.9974 137.55 18.3391C137.55 19.6807 136.649 20.5402 134.531 20.6241V15.9493Z" fill="#333333"/>
<path d="M150.766 12.7838H147.726V13.7901C143.911 13.8739 141.626 15.4881 141.626 18.3391C141.626 21.1901 143.911 22.6785 147.726 22.7623V23.7686H150.766V22.7623C154.602 22.6785 156.887 21.1901 156.887 18.3391C156.887 15.4881 154.602 13.8739 150.766 13.7901V12.7838ZM147.726 20.6241C145.63 20.5402 144.707 19.6807 144.707 18.3391C144.707 16.9974 145.63 16.0331 147.726 15.9493V20.6241ZM150.766 15.9493C152.883 16.0331 153.784 16.9974 153.784 18.3391C153.784 19.6807 152.883 20.5402 150.766 20.6241V15.9493Z" fill="#333333"/>
<path d="M40.0361 16.8397L40.5627 15.1645L38.8207 15.2188C38.6735 15.2188 37.6038 15.1886 36.5659 14.4407C36.6433 14.4483 36.7207 14.4588 36.7996 14.4588C37.8678 14.4588 38.9011 13.8195 39.3154 12.9057L40.065 11.2546C39.1257 11.2667 38.2669 11.1491 38.2669 11.1491C38.2593 11.1476 37.5825 11.0616 36.7996 10.267C36.2381 9.69701 35.5432 9.39543 34.7906 9.39543C34.4613 9.39543 34.1669 9.45424 33.9135 9.53416C33.953 9.39996 33.9909 9.26425 34.0121 9.12402C34.2519 7.57847 33.2504 6.39933 33.2504 6.40084L31.9409 4.78894L31.1291 6.68281C31.1261 6.68884 30.9212 7.13215 30.554 7.34928C30.4432 6.79288 30.1716 6.16712 29.5905 5.5685C28.4949 4.44063 27.1611 4.27326 26.4632 4.27326C26.1399 4.27326 25.9093 4.30794 25.8532 4.31698L24.2721 4.62609C24.3631 4.27476 24.5573 3.66408 24.9124 3.11372L25.7849 1.76268L23.5892 2.01148L22.8897 0.535288L21.5362 1.2289L20.2844 0L19.0356 1.2289L17.6775 0.535288L16.9795 2.01148L14.7854 1.76268L15.6594 3.11372C16.0145 3.66408 16.2087 4.27326 16.2982 4.62459L14.7899 4.32905L14.7383 4.32C14.6625 4.30794 14.4333 4.27326 14.1086 4.27326C13.4106 4.27326 12.0768 4.44214 10.9843 5.5685C10.4017 6.16561 10.13 6.79288 10.0178 7.34928C9.65359 7.13516 9.45026 6.69789 9.45026 6.69789L8.63694 4.79347L7.3062 6.41592C7.14384 6.62551 6.34114 7.73378 6.55965 9.12704C6.58241 9.26576 6.61882 9.40147 6.65827 9.53567C6.40639 9.45575 6.11202 9.39694 5.78275 9.39694C5.03012 9.39694 4.33516 9.69851 3.77221 10.2685C2.99228 11.0601 2.31856 11.1491 2.32463 11.1491C2.32463 11.1491 1.61298 11.2757 0.511358 11.2561L1.25639 12.9072C1.67064 13.8225 2.70549 14.4603 3.77221 14.4603C3.85263 14.4603 3.93002 14.4498 4.00892 14.4422C2.97407 15.1901 1.90432 15.2203 1.77534 15.2218L0 15.1645L0.537153 16.8382C0.807248 17.7007 1.71009 19.1301 3.43991 19.2839C3.25175 20.068 2.83447 20.9456 1.91797 21.3241L0.596331 21.8654L1.31709 23.1124C1.72375 23.7849 2.67818 24.572 4.03776 24.572C4.33213 24.5705 4.61588 24.5418 4.88901 24.4845C4.95881 24.7921 5.04681 25.0997 5.15 25.4043C5.55514 26.6016 5.20614 27.4369 5.20159 27.4459L4.54911 28.8045L6.0058 29.186C6.02401 29.192 6.46405 29.3112 7.01486 29.3112C7.26523 29.3112 7.50346 29.2855 7.72803 29.2328C7.89798 29.1936 8.06034 29.1408 8.21663 29.0774C8.40478 29.4137 8.63391 29.7198 8.90097 29.9942C9.83416 30.9457 11.1558 31.4282 12.831 31.4282H12.8371L14.0328 31.4131L11.5625 32.4324L13.4379 33.3326C14.1192 33.6628 14.928 34.0534 15.7504 34.3519L15.5168 34.9882L16.1632 35.2808C16.2208 35.3064 17.4636 35.8598 19.5302 35.9774C19.5302 35.9774 20.0295 36 20.3041 36C20.5787 36 21.0719 35.9759 21.0719 35.9759C23.1249 35.8552 24.3585 35.3079 24.4162 35.2808L25.0641 34.9867L24.8274 34.3489C25.6741 34.0413 26.5117 33.6357 27.1642 33.319L29.0048 32.4309L26.5421 31.4101L27.7423 31.4252C29.419 31.4252 30.7422 30.9427 31.6738 29.9897C31.9394 29.7168 32.1685 29.4107 32.3582 29.0744C32.5145 29.1378 32.6784 29.1905 32.8483 29.2297C33.0714 29.2825 33.3096 29.3081 33.56 29.3081C34.1017 29.3081 34.5462 29.189 34.5584 29.186L36.0211 28.8015L35.3838 27.4686C35.3687 27.4339 35.0197 26.6 35.4248 25.4013C35.528 25.0952 35.6145 24.7876 35.6843 24.4815C35.9589 24.5388 36.2457 24.569 36.5416 24.569C38.2729 24.569 39.103 23.3582 39.2638 23.0958L39.977 21.8624L38.6553 21.3226C37.7373 20.9441 37.3215 20.065 37.1349 19.2824C38.8404 19.1377 39.7569 17.7082 40.0361 16.8397ZM16.4135 5.20209L16.3953 5.20662L16.4105 5.18702L16.4135 5.20209Z" fill="white"/>
<path d="M20.2856 5.12781C18.8865 5.12932 17.838 5.58469 17.6089 6.11997L20.2856 7.16944L22.9622 6.11997C22.7346 5.58469 21.6861 5.12932 20.2856 5.12781Z" fill="white"/>
<path d="M20.3145 32.9113H20.3115H20.2887H20.2629H20.2614C19.4132 32.9173 18.2463 32.7439 17.6833 32.5811L17.0066 34.401C17.4527 34.5594 18.964 34.8609 20.2887 34.8609C21.6103 34.8609 23.1232 34.5579 23.5678 34.401L22.8925 32.5811C22.3281 32.7454 21.1627 32.9173 20.3145 32.9113Z" fill="white"/>
<path d="M25.4352 31.1019C24.9314 31.3854 23.8071 31.8106 23.1531 32.0081L23.7024 33.5115C24.7145 33.237 25.549 32.9159 26.2394 32.5721L25.0999 32.1951L25.4352 31.1019Z" fill="white"/>
<path d="M15.1389 31.1019L15.4758 32.1951L14.3347 32.5721C15.0236 32.9159 15.8627 33.237 16.8703 33.5115L17.4196 32.0081C16.7686 31.8106 15.6427 31.3839 15.1389 31.1019Z" fill="white"/>
<path d="M20.2875 3.38909C21.3421 3.38909 22.377 3.63939 23.1721 4.07968C23.2449 3.83692 23.3466 3.54289 23.4847 3.23528L23.1842 3.27147L22.8686 3.30465L22.7351 3.01966L22.333 2.17526L21.6001 2.55524L21.3148 2.7L21.0872 2.47683L20.2906 1.69275L19.4955 2.47683L19.2679 2.7L18.9826 2.55524L18.2451 2.17526L17.8476 3.01966L17.711 3.30465L17.3954 3.27147L17.095 3.23528C17.2331 3.54439 17.3332 3.83692 17.4076 4.07968C18.2042 3.63939 19.236 3.38909 20.2875 3.38909Z" fill="white"/>
<path d="M36.387 13.1481C36.5236 13.1949 36.6632 13.216 36.8013 13.216C37.3976 13.216 37.9742 12.833 38.173 12.3942C38.173 12.3942 37.0789 12.3279 35.903 11.1412C35.5282 10.7567 35.1321 10.6421 34.7922 10.6421C34.2642 10.6421 33.8682 10.9195 33.8682 10.9195C35.2884 11.6704 35.5783 12.8767 36.387 13.1481Z" fill="white"/>
<path d="M3.76986 13.216C3.90794 13.216 4.04754 13.1949 4.18107 13.1481C4.99287 12.8767 5.2842 11.6704 6.70447 10.9195C6.70447 10.9195 6.30692 10.6421 5.78191 10.6421C5.44049 10.6421 5.04446 10.7567 4.66815 11.1412C3.49369 12.3279 2.39966 12.3942 2.39966 12.3942C2.5954 12.833 3.17352 13.216 3.76986 13.216Z" fill="white"/>
<path d="M36.771 18.0489C36.7953 18.0504 36.8165 18.0504 36.8423 18.0504C38.3309 18.0504 38.8362 16.4657 38.8362 16.4657H38.8073C38.5342 16.4657 36.3203 16.4024 34.7559 14.4256C33.7256 13.1258 32.882 11.9828 31.2144 11.5335L31.0505 11.5049L31.0141 11.339C30.9685 11.0857 31.143 10.8489 31.5391 10.5926C33.8394 9.09531 32.278 7.18636 32.278 7.18636C32.278 7.18636 31.621 8.71382 30.1507 8.71382C30.1158 8.71382 30.0778 8.71231 30.0414 8.71231C29.8745 8.70326 29.7137 8.69723 29.5513 8.66255L29.2797 8.60978C29.2797 8.60978 29.6985 7.47738 28.6879 6.43696C27.9262 5.65137 26.9991 5.51868 26.4634 5.51868C26.1933 5.51868 26.0219 5.55336 26.0219 5.55336C26.5302 6.2138 26.8974 7.3085 26.3102 7.98402C25.8034 8.56454 24.5652 8.59319 24.5652 9.4587C24.5652 9.82511 24.9096 10.2533 25.5287 10.6378C27.3906 11.8034 29.2387 13.349 30.0065 15.4208C30.967 18.0052 29.8851 19.7196 28.3404 20.7028C28.3404 20.7028 28.8245 21.1461 29.527 21.2019C29.6697 21.2154 29.8093 21.2215 29.9398 21.2215C31.4222 21.2215 32.1885 20.5309 32.1885 20.5309C32.1885 20.5309 32.0626 21.4853 31.2902 22.372C30.5786 23.1907 29.6439 23.6717 28.219 23.6928C28.219 23.6928 28.1735 24.3503 28.8048 24.9187C29.2084 25.2776 30.1416 25.3952 30.1416 25.3952C30.1416 25.3952 28.3951 25.7465 28.2024 28.3099C28.0977 29.6986 27.7411 30.1811 27.7411 30.1811H27.7729C31.8259 30.1811 31.7212 26.7266 31.7212 26.7266C31.7212 26.7266 32.0034 27.749 33.1338 28.0159C33.2704 28.052 33.4161 28.0656 33.5557 28.0656C33.9198 28.0656 34.2355 27.9812 34.2355 27.9812C34.2355 27.9812 33.6437 26.7402 34.2309 25.0047C34.718 23.5647 34.6391 22.4971 34.6391 22.4971C34.6391 22.4971 35.1853 23.3174 36.5389 23.3249H36.5525C37.6799 23.3249 38.1716 22.476 38.1716 22.476C35.4691 21.3617 35.7362 17.764 35.7362 17.764C35.7362 17.764 36.0867 18.0233 36.771 18.0489ZM35.9577 21.8065C34.8591 21.2682 34.1641 19.8388 33.9957 19.3231C33.8136 22.1578 32.4207 24.1256 30.7925 26.0195C29.9473 27.0011 29.653 27.9555 29.653 27.9555C29.653 27.9555 29.8153 26.8744 30.5467 25.9938C32.0656 24.1799 33.5086 21.9226 33.6164 19.3125C33.6907 17.491 33.2188 16.0133 32.4829 14.7965C32.8941 16.0646 32.8364 17.6177 31.4389 19.0667C31.4389 19.0667 34.2203 15.754 30.3312 12.3583C28.7744 11.0661 27.0719 10.2684 26.1949 9.70297C29.3631 10.7298 30.9094 9.59893 30.9094 9.59893C29.8973 10.4705 28.5878 10.4554 27.776 10.3302C27.996 10.4373 28.2251 10.5489 28.4724 10.6801C31.143 12.1216 33.5435 14.4934 33.9532 17.779V17.7534C34.5754 20.9787 35.9577 21.8065 35.9577 21.8065Z" fill="white"/>
<path d="M10.4275 25.3952C10.4275 25.3952 11.3607 25.2791 11.7643 24.9187C12.394 24.3503 12.35 23.6928 12.35 23.6928C10.9237 23.6732 9.9905 23.1907 9.2743 22.3735C8.50802 21.4868 8.38056 20.5324 8.38056 20.5324C8.38056 20.5324 9.14684 21.223 10.6278 21.223C10.7613 21.223 10.8994 21.2169 11.042 21.2034C11.7446 21.1476 12.2302 20.7043 12.2302 20.7043C10.6855 19.7212 9.60205 18.0052 10.561 15.4208C11.3304 13.3505 13.177 11.8034 15.0388 10.6378C15.6579 10.2533 16.0024 9.82661 16.0024 9.4587C16.0024 8.59319 14.7657 8.56454 14.2589 7.98402C13.6717 7.3085 14.0404 6.21229 14.5472 5.55336C14.5472 5.55336 14.3788 5.51868 14.1072 5.51868C13.573 5.51868 12.6459 5.65137 11.8842 6.43696C10.8706 7.47738 11.2909 8.60978 11.2909 8.60978L11.0193 8.66255C10.8569 8.69723 10.6946 8.70326 10.5292 8.71231C10.4912 8.71231 10.4579 8.71382 10.4214 8.71382C8.94806 8.71382 8.29407 7.18787 8.29407 7.18787C8.29407 7.18787 6.73268 9.09681 9.03152 10.5941C9.42755 10.8504 9.60054 11.0872 9.55501 11.3405L9.5186 11.5064L9.35169 11.535C7.68712 11.9844 6.84193 13.1273 5.81163 14.4271C4.25025 16.4009 2.03942 16.4657 1.76326 16.4657H1.73291C1.73291 16.4657 2.2382 18.0504 3.72675 18.0504C3.75103 18.0504 3.77227 18.0504 3.79807 18.0489C4.48241 18.0248 4.83444 17.764 4.83444 17.764C4.83444 17.764 5.09846 21.3602 2.39904 22.476C2.39904 22.476 2.89067 23.3249 4.01809 23.3249H4.03174C5.38677 23.3174 5.93151 22.4971 5.93151 22.4971C5.93151 22.4971 5.8526 23.5647 6.33816 25.0047C6.92539 26.7402 6.33665 27.9812 6.33665 27.9812C6.33665 27.9812 6.65226 28.0656 7.01492 28.0656C7.15603 28.0656 7.30018 28.052 7.43523 28.0159C8.56416 27.749 8.84791 26.7266 8.84791 26.7266C8.84791 26.7266 8.74473 30.1811 12.7977 30.1811H12.8265C12.8265 30.1811 12.4714 29.6986 12.3682 28.3099C12.174 25.7465 10.4275 25.3952 10.4275 25.3952ZM9.77655 26.0195C8.1484 24.1256 6.75696 22.1578 6.57336 19.3231C6.40493 19.8373 5.713 21.2682 4.61442 21.8065C4.61442 21.8065 5.99524 20.9787 6.61584 17.7534V17.779C7.02706 14.4949 9.42604 12.1216 12.0981 10.6801C12.3424 10.5474 12.5746 10.4358 12.7931 10.3302C11.9813 10.4554 10.6718 10.4705 9.65971 9.59893C9.65971 9.59893 11.2059 10.7298 14.3727 9.70297C13.4957 10.2684 11.7947 11.0661 10.2378 12.3583C6.34727 15.754 9.13015 19.0667 9.13015 19.0667C7.73112 17.6162 7.67498 16.0646 8.08619 14.7965C7.34874 16.0148 6.87835 17.491 6.95422 19.3125C7.06044 21.9226 8.50347 24.1799 10.0193 25.9938C10.7522 26.8729 10.9176 27.9555 10.9176 27.9555C10.9176 27.9555 10.6202 27.0011 9.77655 26.0195Z" fill="white"/>
<path d="M17.2895 12.7651C17.3563 12.836 17.4215 12.9129 17.4837 12.9898C17.4989 13.0079 17.5125 13.0244 17.5277 13.0456C17.5854 13.1225 17.6446 13.2039 17.7007 13.2868C17.7128 13.3034 17.725 13.323 17.7386 13.3426C17.8069 13.4451 17.8707 13.5507 17.9344 13.6592C18.5186 14.662 19.4548 15.2606 20.2848 15.2621C21.1163 15.2606 22.0495 14.662 22.6368 13.6592C22.702 13.5477 22.7672 13.4391 22.8355 13.3381C22.8461 13.323 22.8568 13.3094 22.8659 13.2943C22.9235 13.2084 22.9842 13.124 23.048 13.0425C23.0616 13.0244 23.0738 13.0094 23.0859 12.9943C23.1511 12.9144 23.2179 12.836 23.2862 12.7636C23.2983 12.7515 23.3074 12.741 23.3181 12.7319C23.6155 12.4288 23.9705 12.1981 24.4348 12.07L24.2285 11.9509H24.2163L23.3939 11.4759L22.5487 10.9949L20.2909 12.2162L20.2848 12.2117L20.2803 12.2162L18.0209 10.9949L17.1772 11.4744L16.3533 11.9493H16.3442L16.1348 12.0685C16.6006 12.1966 16.9542 12.4243 17.2531 12.7274C17.2667 12.7395 17.2758 12.753 17.2895 12.7651ZM19.3713 12.6671H20.3273H21.2817V13.3185C21.0572 13.0456 20.6201 13.1013 20.6201 13.1013V14.0407C20.6201 14.0407 20.6368 14.5021 20.7992 14.7027H20.3273H19.8539C20.0193 14.5036 20.0344 14.0407 20.0344 14.0407V13.1013C20.0344 13.1013 19.5989 13.0456 19.3713 13.3185V12.6671Z" fill="white"/>
<path d="M20.0892 11.4036V7.59026L17.6462 6.76697L18.2911 10.4627L20.0892 11.4036ZM19.5642 8.52663V9.13882L19.4459 9.08454C19.4398 9.08002 19.2668 9.04081 18.9633 8.80257C18.4626 8.41656 18.4535 8.06071 18.4535 8.06071L19.5642 8.52663Z" fill="white"/>
<path d="M22.2808 10.4627L22.9227 6.76697L20.4812 7.59026V11.4036L22.2808 10.4627ZM21.0062 8.52663L22.1169 8.06221C22.1169 8.06221 22.1078 8.41807 21.6056 8.80408C21.3036 9.04232 21.1291 9.08152 21.1231 9.08605L21.0047 9.14033V8.52663H21.0062Z" fill="white"/>
<path d="M16.6334 20.244C16.8716 20.3299 17.1599 20.348 17.3071 20.348C17.3132 20.3299 17.3208 20.3073 17.3284 20.2802C17.342 20.2364 17.3542 20.1942 17.3633 20.146C17.4042 19.9349 17.4194 19.6951 17.4224 19.5413C17.3223 19.4795 17.1812 19.3694 17.1023 19.2051C17.0112 19.0151 16.8823 18.9276 16.6926 18.9276C16.4468 18.9276 16.1827 19.0739 16.0705 19.1432C15.9809 19.6695 16.3709 20.1475 16.6334 20.244Z" fill="white"/>
<path d="M22.0386 18.22C21.5849 18.71 20.6972 19.5635 20.6532 19.6072L20.6001 19.6615L17.7945 19.6177C17.793 19.8937 17.7474 20.1289 17.7034 20.3008C17.6958 20.3295 17.6883 20.3596 17.6807 20.3898L21.0189 20.9854C21.3664 20.7441 22.3223 20.0505 22.6926 19.7791C22.4225 19.387 22.3967 18.9226 22.4574 18.5954C22.2814 18.4823 22.1463 18.3557 22.0386 18.22Z" fill="white"/>
<path d="M22.42 14.8666C21.7736 15.5044 21.153 15.7396 20.5992 15.7939C20.499 15.8045 20.3974 15.8105 20.2942 15.8105H20.2866H20.2805C20.1773 15.8105 20.0742 15.8045 19.974 15.7939C19.8769 15.7849 19.7752 15.7698 19.6736 15.7472C19.6372 15.8904 19.5916 16.1905 19.7221 16.474C19.839 16.7318 20.0772 16.9233 20.4247 17.05L20.5415 17.0952L20.543 17.2203C20.543 17.258 20.5703 18.0693 21.4611 18.2939C21.6067 18.1447 21.7387 18.0105 21.8358 17.8989C21.6538 17.4737 21.7494 17.0394 22.0134 16.8268C22.0012 16.872 21.8859 17.9366 22.7448 18.3316L22.8859 18.398L22.8434 18.5473C22.8297 18.5925 22.5429 19.6224 23.5824 20.0054L23.766 20.0747L23.684 20.2526C23.6658 20.2918 23.2576 21.2267 24.2181 21.7575H26.3015V20.1139C25.561 20.0234 25.2469 19.4324 25.1665 19.0132C24.8221 18.9544 24.555 18.8066 24.3729 18.5654C23.9359 17.9939 24.3122 17.4706 24.3168 17.442C24.3152 17.4465 24.3168 18.0044 24.6627 18.3482C24.8342 18.5141 25.0375 18.6423 25.3456 18.6709L25.4973 18.6845L25.5109 18.8383C25.514 18.8714 25.5974 19.6254 26.303 19.7445L26.3015 16.388C26.3015 15.8678 26.4548 15.3446 26.6384 14.8621H22.42V14.8666Z" fill="white"/>
<path d="M16.8127 16.4065L16.7566 18.5447L17.0009 18.5809L17.5987 16.5302L17.2953 15.8999L16.8127 16.4065Z" fill="white"/>
<path d="M23.4037 26.2098C23.4219 26.2098 23.4431 26.2128 23.4628 26.2173C23.8346 26.3228 23.9287 27.6558 24.5812 27.7749C24.6449 27.7885 24.7041 27.7915 24.7557 27.7915C24.9438 27.7915 25.0561 27.7116 25.1775 27.5698C25.1775 27.5698 24.8497 27.0572 24.6039 26.7119C24.2777 26.2595 24.0243 25.7122 23.4173 25.7122C23.4037 25.7122 23.3855 25.7122 23.3703 25.7137C23.17 25.7242 23.0471 25.8207 23.0471 25.8207C22.8013 25.6669 22.5721 25.6142 22.3643 25.6142C21.9834 25.6142 21.6875 25.7876 21.5403 25.7876H21.5343L20.1777 25.6549C19.9653 25.6353 19.7984 25.4227 19.7377 25.3397C19.7225 25.3171 19.7149 25.3035 19.7149 25.3035C19.7149 25.2673 19.7149 25.2297 19.7119 25.1965C19.6664 24.0942 18.8075 23.6223 18.5025 23.6147C18.5025 23.6147 18.5389 23.4051 18.4555 23.3252L18.1566 23.6856L17.1748 23.1956L17.8743 24.0083L17.281 24.6702C17.2067 24.7456 17.2158 24.8482 17.2461 24.8904L17.5026 25.1151L17.8273 24.919C17.844 24.907 17.8728 24.904 17.9092 24.904C17.9988 24.904 18.1338 24.9266 18.2552 24.9266C18.3872 24.9266 18.5025 24.8979 18.5162 24.7743C18.4752 25.1829 18.0943 25.8931 18.3447 26.451L18.5298 26.8717L17.3311 26.6998L16.7697 27.6422C16.5967 27.9559 16.5694 28.2951 16.7363 28.4791L16.9457 28.7399C16.9457 28.7399 17.2401 28.4293 17.3068 28.2258L17.2112 28.1217C17.1308 28.0343 17.1354 27.9559 17.1839 27.8609L17.536 27.2803L18.9517 27.6121L19.026 27.4854C19.1216 27.3271 19.2597 27.2788 19.4114 27.2788C19.4736 27.2788 19.5374 27.2864 19.6041 27.2969C19.8667 27.3482 20.2991 27.4175 20.7316 27.4175C21.2065 27.4175 21.6769 27.3331 21.9273 27.0542C22.4401 27.8096 23.4795 27.9302 23.3976 28.3132L23.1245 29.607C23.305 29.5994 23.4795 29.5873 23.6449 29.5647L23.9044 28.2182C23.9332 28.072 23.9605 27.8744 23.9605 27.8744C23.8604 27.7734 23.6176 27.5593 23.4811 27.2999C23.2975 26.9501 23.3976 26.7677 23.2261 26.3123C23.2322 26.3153 23.2838 26.2098 23.4037 26.2098ZM18.108 24.3189C18.0382 24.3174 17.9881 24.2586 17.9912 24.1892C17.9972 24.1229 18.0534 24.0701 18.1217 24.0761C18.1915 24.0792 18.2415 24.1395 18.2385 24.2058C18.2324 24.2722 18.1748 24.3234 18.108 24.3189Z" fill="white"/>
<path d="M16.1752 27.4357C16.1752 27.4357 16.644 27.2442 16.6865 27.107L16.6243 26.9516C16.5803 26.8506 16.5864 26.7405 16.6713 26.6802L17.1782 26.3319L18.0249 26.4933C18.0249 26.4933 17.8716 26.3033 17.8868 26.0484L17.0795 25.8781L16.3178 26.3395C15.9916 26.5822 15.9673 26.9788 16.075 27.214L16.1752 27.4357Z" fill="white"/>
<path d="M22.1587 29.6287C22.3104 29.6226 22.4773 29.6196 22.6609 29.6196C22.6609 29.6196 23.0964 28.3545 23.1207 28.3138C22.8764 28.2068 22.3696 27.9399 22.1739 27.8177C22.3028 28.0092 22.6169 28.2294 22.5547 28.3983L22.1587 29.6287Z" fill="white"/>
<path d="M26.3042 22.1235H14.2668V26.623C14.2668 28.4625 15.6067 29.6145 17.5838 29.6145C19.2363 29.6145 19.6718 29.6779 20.2863 30.284C20.7097 29.8649 21.0602 29.708 21.7794 29.6492L21.7961 29.5799L22.1754 28.4143C22.1542 28.3887 21.5336 27.6875 21.5336 27.6875C21.2878 27.7689 21.0814 27.7825 20.7339 27.7825C20.3773 27.7825 19.9752 27.7418 19.5398 27.6604C19.4957 27.6498 19.4548 27.6468 19.4138 27.6468C19.3607 27.6468 19.3562 27.6513 19.3425 27.677L19.2666 27.8006L19.1285 28.0268L18.8691 27.968L17.7143 27.6981L17.5565 27.9574L17.5808 27.9846L17.7219 28.1384L17.6597 28.3389C17.5747 28.6013 17.2986 28.9074 17.2151 28.9918L16.9268 29.2994L16.6643 28.9692L16.4671 28.7234C16.2592 28.4927 16.2106 28.1384 16.3275 27.7674C16.3244 27.7704 16.3199 27.772 16.3153 27.772L15.9891 27.9062L15.8419 27.5895L15.7387 27.3648C15.5612 26.9698 15.6264 26.3923 16.1044 26.044L17.0346 25.5222L17.9192 25.6956C17.9404 25.6112 17.9723 25.3096 17.9981 25.2327C17.9814 25.2312 17.9647 25.2267 17.948 25.2267L17.4382 25.4152L16.9465 25.0774C16.9465 25.0774 16.7538 24.8935 16.9283 24.7095L17.4048 23.9933L16.1985 22.4884L18.0527 23.2454L18.1756 23.0931L18.426 22.796L18.7097 23.0644C18.7902 23.1413 18.8357 23.2363 18.8584 23.3313C19.3698 23.5289 20.2848 24.1124 20.3652 25.0608L20.0784 25.1754V25.183C20.1437 25.2599 20.1983 25.2915 20.215 25.2945L21.5381 25.4242C21.5715 25.4182 21.614 25.4031 21.6611 25.3895C21.8249 25.3338 22.0723 25.2538 22.3651 25.2538C22.6034 25.2538 22.834 25.3081 23.0555 25.4107C23.1375 25.3805 23.2376 25.3579 23.3529 25.3503L23.4167 25.3488C24.1253 25.3488 24.4773 25.8751 24.7596 26.2943C24.8066 26.3666 24.8536 26.436 24.9022 26.5038C25.1495 26.8507 25.4727 27.3588 25.4864 27.3799L25.632 27.6061L25.453 27.8127C25.3149 27.971 25.1086 28.1565 24.7535 28.1565C24.6806 28.1565 24.6002 28.1489 24.5137 28.1323C24.4379 28.1188 24.3696 28.0961 24.3028 28.069C24.2922 28.1384 24.2785 28.2213 24.2649 28.2922L24.0327 29.4954C25.4211 29.1562 26.3027 28.1142 26.3027 26.6245L26.3042 22.1235Z" fill="#FFDD2D"/>
<path d="M14.2669 21.7617H23.6277C23.1603 21.2822 23.1664 20.6745 23.2863 20.2795C23.1497 20.2147 23.0374 20.1362 22.9373 20.0518C22.5716 20.3202 21.4548 21.1284 21.1634 21.3305L21.1012 21.3727L17.4276 20.7122H17.3533C17.2653 20.7122 17.1363 20.7092 16.9952 20.6926C16.9557 20.857 16.8131 20.9701 16.6492 20.9701C16.631 20.9701 16.6098 20.9686 16.59 20.9641C16.4944 20.9475 16.411 20.8992 16.3548 20.8193C16.2972 20.7409 16.2744 20.6474 16.2911 20.5509L16.3048 20.4725C15.9254 20.2071 15.5764 19.6145 15.7312 18.9903L15.7464 18.9239L15.7995 18.8862C15.8071 18.8802 15.8708 18.838 15.9649 18.7837L15.6978 18.743C15.5977 18.7249 15.5309 18.6329 15.5461 18.5349C15.5628 18.4354 15.6569 18.3645 15.7555 18.3841L16.3913 18.4836L16.4489 16.258L17.3958 15.2629L17.986 16.4978L17.3624 18.6389L17.9238 18.7264C18.0225 18.7415 18.0907 18.8335 18.0756 18.9345C18.0604 19.0234 17.9845 19.0853 17.895 19.0853C17.8859 19.0853 17.8753 19.0853 17.8662 19.0838L17.4094 19.0099C17.4155 19.0234 17.4246 19.031 17.4307 19.0461C17.4792 19.1456 17.587 19.218 17.6507 19.2481L20.4518 19.2918C20.5701 19.1772 20.8645 18.8908 21.1665 18.5877C20.4776 18.3283 20.2272 17.7373 20.1847 17.3452C19.7993 17.1824 19.5338 16.9381 19.3866 16.6199C19.2075 16.2264 19.2713 15.8328 19.3183 15.6413C18.945 15.5056 18.552 15.2583 18.1514 14.8633H13.9331C14.1137 15.3458 14.2669 15.869 14.2669 16.3892V21.7617Z" fill="#FFDD2D"/>
<path d="M18.123 24.0763C18.0547 24.0702 17.997 24.123 17.9925 24.1894C17.9879 24.2588 18.0395 24.3177 18.1094 24.3192C18.1762 24.3252 18.2354 24.2739 18.2415 24.206C18.2415 24.1396 18.1929 24.0778 18.123 24.0763Z" fill="#333333"/>
<path d="M26.2876 32.2366L25.5942 31.9727L25.7853 31.261L25.9963 30.4845C25.9963 30.4845 24.7672 31.1464 23.0358 31.644C22.5442 31.7843 22.1725 31.8476 22.1725 31.8476V32.3753C22.1725 32.3753 21.2468 32.5352 20.3106 32.5352H20.3H20.2863H20.2681H20.2575C19.3213 32.5352 18.3957 32.3753 18.3957 32.3753V31.8476C18.3957 31.8476 18.0224 31.7843 17.5323 31.644C15.801 31.1464 14.5734 30.4845 14.5734 30.4845L14.7813 31.261L14.977 31.9727L14.2821 32.2366L13.5112 32.5231C14.3959 32.9468 15.6204 33.565 16.7417 33.8696L16.4777 34.5874C16.4777 34.5874 17.8995 35.2312 20.2681 35.2372V35.2388H20.2757H20.2863H20.2955H20.3015V35.2372C22.6732 35.2312 24.0935 34.5874 24.0935 34.5874L23.8279 33.8696C24.9493 33.565 26.1768 32.9468 27.0569 32.5231L26.2876 32.2366ZM14.3337 32.5714L15.4747 32.1944L15.1379 31.1012C15.6401 31.3847 16.7675 31.8099 17.42 32.0074L16.8692 33.5108C15.8617 33.2348 15.0225 32.9136 14.3337 32.5714ZM20.2863 34.8603C18.9617 34.8603 17.4488 34.5572 17.0042 34.4004L17.681 32.5804C18.2424 32.7433 19.4108 32.9167 20.259 32.9106H20.2606H20.2863H20.3091H20.3121C21.1604 32.9167 22.3257 32.7433 22.8902 32.5804L23.5654 34.4004C23.1208 34.5587 21.6095 34.8603 20.2863 34.8603ZM23.7005 33.5108L23.1512 32.0074C23.8052 31.8099 24.9295 31.3847 25.4333 31.1012L25.098 32.1944L26.2375 32.5714C25.5471 32.9136 24.7126 33.2348 23.7005 33.5108Z" fill="#333333"/>
<path d="M20.2845 3.82793C21.6957 3.82793 22.8246 4.29235 23.4482 4.78844C23.4482 4.78844 23.6333 3.68016 24.2661 2.70157L23.1296 2.82973L22.5348 1.57369L21.3922 2.15874L20.2845 1.07007L19.1798 2.15874L18.0357 1.57369L17.4424 2.82973L16.3059 2.70157C16.9387 3.68016 17.1238 4.78844 17.1238 4.78844C17.7489 4.29235 18.8748 3.82793 20.2845 3.82793ZM17.3908 3.27003L17.7065 3.3032L17.843 3.01822L18.2406 2.17382L18.978 2.55229L19.2633 2.69704L19.4909 2.47388L20.286 1.6898L21.0826 2.47388L21.3102 2.69704L21.5955 2.55229L22.3284 2.17382L22.7305 3.01822L22.864 3.3032L23.1796 3.27003L23.4801 3.23384C23.342 3.54295 23.2403 3.83547 23.1675 4.07824C22.3724 3.63794 21.3375 3.38764 20.283 3.38764C19.2329 3.38764 18.1996 3.63794 17.4015 4.07824C17.3271 3.83547 17.227 3.54144 17.0889 3.23384L17.3908 3.27003Z" fill="#333333"/>
<path d="M36.8413 18.5347C38.6667 18.5347 39.2767 16.6891 39.3025 16.6107L39.5058 15.9608L38.8215 15.9819H38.8185C38.5772 15.9819 36.5636 15.9291 35.1358 14.1257L35.0007 13.9583C34.0675 12.7792 33.1829 11.6589 31.6018 11.1477C31.6473 11.107 31.7126 11.0557 31.8021 10.9984C32.6412 10.4496 33.1298 9.7831 33.2527 9.00957C33.4318 7.84551 32.6852 6.91818 32.6518 6.88048L32.1435 6.25623L31.8264 6.99659C31.8051 7.04333 31.271 8.2285 30.1481 8.2285H30.0647C29.9873 8.22398 29.9145 8.22096 29.8416 8.21493C29.8811 7.68568 29.784 6.86691 29.0374 6.09941C28.1406 5.1751 27.039 5.03638 26.4624 5.03638C26.1544 5.03638 25.9495 5.07407 25.9283 5.07709L25.1605 5.22787L25.6339 5.8476C26.0057 6.32559 26.3425 7.20769 25.9435 7.66909C25.816 7.81535 25.5535 7.93447 25.3016 8.05359C24.7842 8.29032 24.0786 8.61904 24.0786 9.4574C24.0786 10.0002 24.502 10.5672 25.2698 11.0497C27.5428 12.4701 28.9449 13.9523 29.5503 15.5883C30.4865 18.1049 29.265 19.5404 28.0784 20.2959L27.5458 20.6366L28.0117 21.0618C28.0739 21.1161 28.6444 21.6152 29.4866 21.6876C29.6459 21.6982 29.7991 21.7072 29.9418 21.7072C30.482 21.7072 30.9417 21.6228 31.315 21.5097C31.2118 21.6891 31.0859 21.8716 30.9266 22.0555C30.2483 22.8366 29.4137 23.1924 28.2135 23.2105L27.7674 23.2181L27.7325 23.6629C27.7279 23.7519 27.6945 24.5767 28.4805 25.2778C28.6004 25.3864 28.7461 25.4753 28.8978 25.5492C28.3652 26.0257 27.8235 26.855 27.7188 28.2769C27.6308 29.4636 27.3455 29.9024 27.3425 29.9069L26.8494 30.6548L27.7401 30.6669C29.2119 30.6669 30.3393 30.2628 31.1208 29.4636C31.5821 28.9901 31.8461 28.4564 32.0024 27.9829C32.2588 28.2 32.5896 28.39 33.0205 28.491C33.1844 28.5287 33.3635 28.5498 33.5562 28.5498C33.9719 28.5498 34.3194 28.4624 34.3589 28.4533L34.9279 28.3026L34.676 27.7748C34.6578 27.7326 34.1829 26.6741 34.6942 25.1632C34.9142 24.5103 35.0265 23.9253 35.0812 23.4699C35.4393 23.6554 35.9187 23.8092 36.5394 23.8107C37.9475 23.8107 38.5681 22.7657 38.5969 22.722L38.8746 22.2425L38.3602 22.0314C36.682 21.3393 36.3102 19.4801 36.2359 18.4729C36.3876 18.5015 36.5606 18.5286 36.7563 18.5347H36.8413ZM38.1721 22.4762C38.1721 22.4762 37.6804 23.3251 36.553 23.3251H36.5394C35.1859 23.3176 34.6396 22.4973 34.6396 22.4973C34.6396 22.4973 34.7185 23.5649 34.2299 25.0049C33.6427 26.7404 34.2345 27.9814 34.2345 27.9814C34.2345 27.9814 33.9188 28.0658 33.5547 28.0658C33.4151 28.0658 33.2694 28.0523 33.1328 28.0161C32.0024 27.7492 31.7201 26.7269 31.7201 26.7269C31.7201 26.7269 31.8248 30.1813 27.7719 30.1813H27.7401C27.7401 30.1813 28.0966 29.6988 28.2029 28.3101C28.3956 25.7467 30.1421 25.3954 30.1421 25.3954C30.1421 25.3954 29.2104 25.2793 28.8068 24.9189C28.1755 24.3505 28.2195 23.693 28.2195 23.693C29.6459 23.6734 30.5791 23.1909 31.2907 22.3722C32.0616 21.4855 32.189 20.5311 32.189 20.5311C32.189 20.5311 31.4227 21.2217 29.9403 21.2217C29.8098 21.2217 29.6702 21.2156 29.5275 21.2021C28.8265 21.1463 28.3409 20.703 28.3409 20.703C29.8841 19.7199 30.9675 18.0039 30.007 15.4195C29.2377 13.3492 27.3895 11.8021 25.5292 10.6365C24.9101 10.252 24.5657 9.82532 24.5657 9.4574C24.5657 8.5919 25.8039 8.56475 26.3122 7.98272C26.8979 7.3072 26.5307 6.211 26.0224 5.55206C26.0224 5.55206 26.1938 5.51738 26.4639 5.51738C26.9996 5.51738 27.9267 5.65158 28.6884 6.43566C29.7005 7.47608 29.2802 8.60848 29.2802 8.60848L29.5518 8.66126C29.7142 8.69594 29.875 8.70197 30.0419 8.70951C30.0783 8.70951 30.1148 8.71102 30.1512 8.71102C31.6215 8.71102 32.2785 7.18356 32.2785 7.18356C32.2785 7.18356 33.8414 9.09401 31.5411 10.5898C31.1451 10.8461 30.9706 11.0829 31.0161 11.3362L31.0525 11.5021L31.2164 11.5307C32.884 11.98 33.7276 13.123 34.7579 14.4228C36.3224 16.3996 38.5362 16.4629 38.8094 16.4629H38.8382C38.8382 16.4629 38.3329 18.0476 36.8443 18.0476C36.8201 18.0476 36.7988 18.0476 36.773 18.0461C36.0887 18.022 35.7382 17.7612 35.7382 17.7612C35.7382 17.7612 35.4696 21.3604 38.1721 22.4762Z" fill="#333333"/>
<path d="M33.6346 11.3455C34.3159 11.7059 34.712 12.1884 35.0594 12.6166C35.4009 13.0343 35.7256 13.4369 36.2324 13.6043C36.4129 13.6661 36.6041 13.6947 36.7984 13.6947C37.5601 13.6947 38.3249 13.2318 38.6147 12.591L38.906 11.9486L38.2004 11.9064C38.167 11.9049 37.2597 11.8235 36.2491 10.7966C35.8333 10.376 35.3311 10.1543 34.7894 10.1543C34.1278 10.1543 33.6377 10.483 33.583 10.5162L32.9336 10.97L33.6346 11.3455ZM34.7909 10.6398C35.1308 10.6398 35.5268 10.7544 35.9016 11.1389C37.0776 12.3256 38.1716 12.392 38.1716 12.392C37.9728 12.8292 37.3962 13.2137 36.7999 13.2137C36.6618 13.2137 36.5237 13.1926 36.3856 13.1459C35.5769 12.8745 35.2871 11.6682 33.8653 10.9173C33.8653 10.9173 34.2628 10.6398 34.7909 10.6398Z" fill="#333333"/>
<path d="M33.9554 17.7536V17.7778C33.5457 14.4937 31.1452 12.1218 28.4746 10.6788C28.2273 10.5476 27.9997 10.436 27.7781 10.329C28.5914 10.4541 29.9009 10.4692 30.9115 9.59766C30.9115 9.59766 29.3653 10.7285 26.197 9.7017C27.0741 10.2671 28.7781 11.0648 30.3334 12.357C34.2224 15.7527 31.4396 19.0655 31.4396 19.0655C32.8371 17.6164 32.8947 16.0633 32.4835 14.7952C33.2195 16.0121 33.6898 17.4898 33.617 19.3112C33.5093 21.9213 32.0663 24.1786 30.5474 25.9925C29.8175 26.8731 29.6536 27.9543 29.6536 27.9543C29.6536 27.9543 29.948 26.9998 30.7932 26.0182C32.4213 24.1243 33.8128 22.1566 33.9948 19.3218C34.1633 19.836 34.8567 21.2669 35.9568 21.8052C35.9599 21.8067 34.5775 20.9789 33.9554 17.7536Z" fill="#333333"/>
<path d="M13.2292 29.9069C13.2277 29.9024 12.9454 29.4636 12.8544 28.2769C12.7482 26.855 12.208 26.0257 11.6739 25.5492C11.8286 25.4768 11.9713 25.3879 12.0911 25.2778C12.8756 24.5766 12.8422 23.7518 12.8377 23.6629L12.8073 23.2181L12.3582 23.2105C11.161 23.1909 10.3249 22.8351 9.64663 22.0555C9.48882 21.8716 9.36136 21.6891 9.25818 21.5097C9.63146 21.6228 10.0882 21.7072 10.6299 21.7072C10.7756 21.7072 10.9258 21.6982 11.0851 21.6876C11.9273 21.6152 12.4978 21.1176 12.5615 21.0618L13.0274 20.6366L12.4948 20.2958C11.3036 19.5389 10.0867 18.1034 11.0214 15.5883C11.6268 13.9523 13.0274 12.4701 15.3034 11.0497C16.0712 10.5672 16.4915 10.0002 16.4915 9.4574C16.4915 8.61904 15.7875 8.28882 15.2701 8.05359C15.0182 7.93447 14.7557 7.81535 14.6282 7.66909C14.2276 7.20919 14.566 6.32559 14.9362 5.8476L15.4127 5.22787L14.6419 5.07709C14.6191 5.07407 14.4173 5.03638 14.1077 5.03638C13.5311 5.03638 12.4325 5.1751 11.5343 6.09941C10.7862 6.86842 10.6876 7.68718 10.7255 8.21493C10.6527 8.22096 10.5798 8.22398 10.504 8.2285H10.422C9.29612 8.2285 8.76351 7.04333 8.74227 6.99659L8.42514 6.25623L7.91226 6.88048C7.88343 6.91818 7.13385 7.84702 7.31593 9.00957C7.43732 9.7831 7.92592 10.4496 8.76503 10.9984C8.85608 11.0557 8.91981 11.107 8.96533 11.1477C7.38573 11.6589 6.50261 12.7807 5.56942 13.9599L5.43438 14.1272C4.00804 15.9306 1.98992 15.9834 1.74865 15.9834L1.06128 15.9623L1.27068 16.6122C1.29496 16.6906 1.90343 18.5362 3.73036 18.5362L3.81836 18.5332C4.01107 18.5271 4.18405 18.5015 4.33883 18.4713C4.26296 19.4771 3.8912 21.3363 2.21146 22.0299L1.69858 22.241L1.97626 22.7205C2.00357 22.7642 2.6257 23.8091 4.03687 23.8091C4.65293 23.8076 5.13242 23.6538 5.49204 23.4684C5.54666 23.9237 5.65895 24.5088 5.87897 25.1617C6.39033 26.6726 5.91387 27.7311 5.89566 27.7733L5.64378 28.301L6.21431 28.4518C6.25225 28.4609 6.60276 28.5483 7.01701 28.5483C7.21123 28.5483 7.39028 28.5272 7.55113 28.4895C7.98358 28.3885 8.3174 28.1985 8.57081 27.9814C8.72558 28.4548 8.99112 28.9886 9.45089 29.4621C10.2339 30.2612 11.3598 30.6654 12.8316 30.6654L13.7238 30.6533L13.2292 29.9069ZM12.7982 30.1828C8.74531 30.1828 8.84849 26.7283 8.84849 26.7283C8.84849 26.7283 8.56626 27.7507 7.43581 28.0176C7.30076 28.0538 7.15661 28.0673 7.01549 28.0673C6.65132 28.0673 6.33722 27.9829 6.33722 27.9829C6.33722 27.9829 6.92596 26.7419 6.33874 25.0064C5.85318 23.5664 5.93208 22.4988 5.93208 22.4988C5.93208 22.4988 5.38734 23.3191 4.03232 23.3266H4.01866C2.89124 23.3266 2.39961 22.4777 2.39961 22.4777C5.10055 21.3634 4.83501 17.7657 4.83501 17.7657C4.83501 17.7657 4.4845 18.025 3.79864 18.0507C3.77436 18.0522 3.7516 18.0522 3.72732 18.0522C2.23725 18.0522 1.73348 16.4674 1.73348 16.4674H1.76383C2.03847 16.4674 4.2493 16.4041 5.81372 14.4273C6.84403 13.1275 7.68921 11.9861 9.35378 11.5352L9.52069 11.5066L9.55711 11.3407C9.60263 11.0874 9.42965 10.8507 9.03361 10.5943C6.73326 9.09702 8.29616 7.18808 8.29616 7.18808C8.29616 7.18808 8.95015 8.71403 10.4235 8.71403C10.4599 8.71403 10.4933 8.71252 10.5313 8.71252C10.6967 8.70348 10.8605 8.69744 11.0214 8.66276L11.293 8.60999C11.293 8.60999 10.8727 7.47759 11.8863 6.43717C12.648 5.65158 13.5751 5.51889 14.1093 5.51889C14.3809 5.51889 14.5493 5.55357 14.5493 5.55357C14.0425 6.21401 13.6753 7.30871 14.261 7.98423C14.7678 8.56475 16.0045 8.5934 16.0045 9.45891C16.0045 9.82532 15.66 10.2535 15.0409 10.6381C13.1791 11.8036 11.3309 13.3507 10.5631 15.421C9.60415 18.0054 10.686 19.7198 12.2323 20.7045C12.2323 20.7045 11.7467 21.1478 11.0441 21.2036C10.9015 21.2171 10.7634 21.2232 10.6299 21.2232C9.14893 21.2232 8.38265 20.5326 8.38265 20.5326C8.38265 20.5326 8.51011 21.4871 9.27639 22.3737C9.99259 23.1924 10.9258 23.6749 12.3521 23.6945C12.3521 23.6945 12.3976 24.352 11.7664 24.9204C11.3613 25.2793 10.4296 25.3969 10.4296 25.3969C10.4296 25.3969 12.1776 25.7482 12.3688 28.3116C12.4735 29.7003 12.8271 30.1828 12.8271 30.1828H12.7982Z" fill="#333333"/>
<path d="M3.76965 13.6969C3.96539 13.6969 4.15658 13.6682 4.33715 13.6064C4.84699 13.439 5.17019 13.0365 5.5116 12.6188C5.8606 12.1905 6.2536 11.708 6.93491 11.3477L7.63594 10.9737L6.98498 10.5198C6.93036 10.4852 6.44176 10.158 5.7817 10.158C5.23848 10.158 4.7347 10.3781 4.32046 10.8003C3.30988 11.8256 2.404 11.9086 2.37062 11.9101L1.66504 11.9508L1.95486 12.5947C2.2462 13.2325 3.00944 13.6969 3.76965 13.6969ZM4.66794 11.1411C5.04425 10.7566 5.44029 10.642 5.7817 10.642C6.30671 10.642 6.70427 10.9194 6.70427 10.9194C5.284 11.6718 4.99266 12.8766 4.18086 13.148C4.04733 13.1948 3.90773 13.2159 3.76965 13.2159C3.17332 13.2159 2.59671 12.8329 2.39945 12.3941C2.39945 12.3926 3.49197 12.3263 4.66794 11.1411Z" fill="#333333"/>
<path d="M6.95582 19.3129C6.87995 17.4915 7.35034 16.0138 8.08779 14.7969C7.67658 16.065 7.73272 17.6181 9.13174 19.0672C9.13174 19.0672 6.34887 15.7544 10.2394 12.3587C11.7963 11.0665 13.4988 10.2689 14.3743 9.70341C11.2075 10.7303 9.66131 9.59937 9.66131 9.59937C10.6719 10.4709 11.9814 10.4558 12.7947 10.3292C12.5747 10.4362 12.344 10.5478 12.0997 10.679C9.42612 12.122 7.02714 14.4939 6.61593 17.778V17.7523C5.99532 20.9776 4.6145 21.8054 4.6145 21.8054C5.71309 21.2671 6.40501 19.8377 6.57344 19.322C6.75704 22.1568 8.14848 24.1245 9.77663 26.0184C10.6218 27 10.9192 27.9544 10.9192 27.9544C10.9192 27.9544 10.7538 26.8733 10.0209 25.9927C8.50507 24.1818 7.06204 21.923 6.95582 19.3129Z" fill="#333333"/>
<path d="M19.3711 12.6665V13.3179C19.5972 13.045 20.0342 13.1008 20.0342 13.1008V14.0402C20.0342 14.0402 20.019 14.5016 19.8536 14.7021H20.327H20.799C20.6366 14.5031 20.6199 14.0402 20.6199 14.0402V13.1008C20.6199 13.1008 21.0569 13.045 21.2815 13.3179V12.6665H20.327H19.3711Z" fill="#333333"/>
<path d="M18.9638 8.80404C19.266 9.04246 19.4406 9.08169 19.4467 9.08622L19.5651 9.14054V8.5264L18.4536 8.06165C18.4536 8.06315 18.4642 8.41776 18.9638 8.80404Z" fill="#333333"/>
<path d="M21.6076 8.80404C22.1102 8.41776 22.1193 8.06165 22.1193 8.06165L21.0078 8.5264V9.14054L21.1247 9.08622C21.1323 9.08169 21.3054 9.04246 21.6076 8.80404Z" fill="#333333"/>
<path d="M23.6063 6.30627C23.6063 5.37592 22.0297 4.53906 20.2893 4.53906H20.2878H20.2832H20.2787C18.5382 4.53906 16.9617 5.37592 16.9617 6.30627L16.9966 6.53546L17.6915 10.4996L16.9935 10.9022L15.1878 11.9502H15.1939C15.1939 11.9502 14.7873 12.1567 14.5991 12.2849C13.9117 12.7599 13.7661 13.452 14.1651 13.7385C14.2638 13.1745 14.7129 12.5835 15.5535 12.5835C16.159 12.5835 16.6203 12.8941 16.9935 13.36C17.0891 13.4776 17.1802 13.6028 17.2651 13.7385C17.3698 13.9089 17.4745 14.0581 17.5792 14.2029H12.9285C13.2699 14.886 13.5946 15.6097 13.5946 16.3953V26.6246C13.5946 29.1005 15.5111 30.2826 17.5838 30.2826C19.1861 30.2826 19.4016 30.2103 20.2862 31.0848C21.1663 30.2088 21.3818 30.2826 22.9857 30.2826C25.0599 30.2826 26.9733 29.1005 26.9733 26.6246V16.3953C26.9733 15.6097 27.2981 14.886 27.641 14.2029H22.9887C23.0919 14.0596 23.1966 13.9089 23.3013 13.7385C23.3878 13.6028 23.4773 13.4776 23.5714 13.36C23.9477 12.8926 24.4075 12.5835 25.0129 12.5835C25.8535 12.5835 26.3011 13.173 26.4013 13.7385C26.8004 13.452 26.6562 12.7599 25.9643 12.2849C25.7792 12.1567 25.3725 11.9502 25.3725 11.9502H25.3786L23.5729 10.9022L22.8779 10.4996L23.5729 6.53546L23.6063 6.30627ZM17.646 6.76767L20.089 7.59096V11.4043L18.2909 10.4619L17.646 6.76767ZM18.1513 14.8679C18.5519 15.2644 18.9449 15.5102 19.3182 15.6459C19.2696 15.8374 19.2059 16.2325 19.3864 16.626C19.5336 16.9427 19.8007 17.1869 20.1846 17.3498C20.2271 17.7418 20.4759 18.3314 21.1663 18.5923C20.8644 18.8953 20.57 19.1803 20.4501 19.2964L17.6506 19.2527C17.5868 19.221 17.4791 19.1502 17.4305 19.0491C17.4245 19.0356 17.4154 19.028 17.4108 19.0129L17.8675 19.0868C17.8782 19.0883 17.8873 19.0883 17.8964 19.0883C17.9844 19.0883 18.0618 19.028 18.0769 18.9376C18.0921 18.8365 18.0238 18.7445 17.9252 18.7295L17.3638 18.642L17.9874 16.5024L17.3972 15.2674L16.4503 16.2626L16.3926 18.4882L15.7569 18.3887C15.6582 18.3691 15.5642 18.4415 15.5475 18.5395C15.5323 18.6375 15.5991 18.7295 15.6992 18.7476L15.9663 18.7883C15.8707 18.8426 15.8085 18.8848 15.8009 18.8908L15.7462 18.9285L15.7311 18.9949C15.5763 19.6191 15.9268 20.2117 16.3046 20.4771L16.291 20.5555C16.2758 20.652 16.2971 20.7455 16.3547 20.8239C16.4093 20.9038 16.4943 20.952 16.5884 20.9686C16.6081 20.9716 16.6294 20.9732 16.6476 20.9732C16.8114 20.9732 16.9541 20.8601 16.995 20.6957C17.1362 20.7123 17.2651 20.7153 17.3532 20.7153H17.4275L21.1011 21.3742L21.1633 21.3335C21.4562 21.13 22.5714 20.3218 22.9371 20.0549C23.0373 20.1408 23.1495 20.2192 23.2861 20.2841C23.1678 20.6791 23.1602 21.2868 23.629 21.7663H14.2668V16.3968C14.2668 15.8766 14.1135 15.3534 13.933 14.8709H18.1513V14.8679ZM22.6913 19.7804C22.3195 20.0519 21.3636 20.7455 21.0176 20.9867L17.6794 20.3911C17.687 20.361 17.6946 20.3323 17.7021 20.3022C17.7462 20.1303 17.7902 19.895 17.7932 19.6191L20.5988 19.6643L20.6519 19.6101C20.6944 19.5678 21.5836 18.7144 22.0373 18.2228C22.145 18.357 22.2801 18.4852 22.4561 18.5983C22.3954 18.924 22.4212 19.3884 22.6913 19.7804ZM17.1028 19.206C17.1817 19.3703 17.3243 19.4804 17.423 19.5422C17.4199 19.696 17.4047 19.9358 17.3638 20.1469C17.3547 20.1936 17.3425 20.2373 17.3289 20.2811C17.3213 20.3082 17.3137 20.3308 17.3076 20.3489C17.1604 20.3489 16.8706 20.3308 16.6339 20.2449C16.3714 20.1484 15.9799 19.6704 16.071 19.1441C16.1848 19.0748 16.4473 18.9285 16.6931 18.9285C16.8828 18.927 17.0117 19.016 17.1028 19.206ZM16.7553 18.544L16.8114 16.4074L17.294 15.8992L17.5975 16.5295L16.9996 18.5802L16.7553 18.544ZM22.661 29.6207C22.4789 29.6207 22.3104 29.6237 22.1587 29.6297L22.5563 28.4008C22.6185 28.2305 22.3044 28.0118 22.1754 27.8203C22.3711 27.9425 22.8779 28.2093 23.1222 28.3164C23.0964 28.3556 22.661 29.6207 22.661 29.6207ZM23.9082 28.2244L23.6488 29.5694C23.4834 29.592 23.3074 29.6041 23.1268 29.6117L23.3999 28.3179C23.4819 27.9334 22.4424 27.8143 21.9296 27.0589C21.6792 27.3393 21.2073 27.4222 20.7339 27.4222C20.3014 27.4222 19.869 27.3529 19.6065 27.3016C19.5397 27.2911 19.476 27.2835 19.4138 27.2835C19.262 27.2835 19.1239 27.3303 19.0283 27.4901L18.9525 27.6168L17.5368 27.285L17.1847 27.864C17.1346 27.9575 17.1316 28.0374 17.212 28.1249L17.3076 28.2289C17.2424 28.434 16.948 28.7431 16.948 28.7431L16.7371 28.4823C16.5702 28.2968 16.5975 27.959 16.772 27.6454L17.3334 26.703L18.5322 26.8749L18.3455 26.4527C18.0952 25.8948 18.476 25.1846 18.517 24.776C18.5033 24.8996 18.3895 24.9267 18.256 24.9267C18.1346 24.9267 17.9996 24.9041 17.91 24.9041C17.8751 24.9041 17.8448 24.9071 17.8281 24.9192L17.5034 25.1152L17.2469 24.8906C17.2166 24.8468 17.206 24.7458 17.2818 24.6704L17.8751 24.01L17.1741 23.1972L18.1558 23.6873L18.4548 23.3269C18.5367 23.4068 18.5018 23.6164 18.5018 23.6164C18.8083 23.624 19.6672 24.0959 19.7127 25.1967C19.7157 25.2298 19.7157 25.2675 19.7157 25.3037C19.7157 25.3037 19.7233 25.3173 19.7385 25.3399C19.7992 25.4228 19.9661 25.6354 20.1785 25.655L21.5351 25.7877H21.5411C21.6898 25.7877 21.9857 25.6143 22.3651 25.6143C22.5714 25.6143 22.8021 25.6671 23.0479 25.8209C23.0479 25.8209 23.1708 25.7244 23.3711 25.7138C23.3863 25.7123 23.403 25.7123 23.4181 25.7123C24.0266 25.7123 24.2785 26.2582 24.6047 26.712C24.8505 27.0573 25.1783 27.57 25.1783 27.57C25.0569 27.7133 24.9446 27.7917 24.7565 27.7917C24.7049 27.7917 24.6457 27.7871 24.582 27.7751C23.9295 27.656 23.8354 26.323 23.4636 26.2175C23.4439 26.2114 23.4227 26.2099 23.4045 26.2099C23.2846 26.2099 23.2315 26.3155 23.2315 26.3155C23.4014 26.7693 23.3028 26.9533 23.4849 27.3031C23.6215 27.5625 23.8642 27.7766 23.9644 27.8776C23.9644 27.8806 23.9371 28.0767 23.9082 28.2244ZM16.6233 26.9518L16.6855 27.1071C16.6445 27.2428 16.1741 27.4358 16.1741 27.4358L16.0725 27.2157C15.9647 26.9804 15.9875 26.5839 16.3153 26.3411L17.077 25.8797L17.8842 26.0501C17.8691 26.3049 18.0223 26.4949 18.0223 26.4949L17.1756 26.3336L16.6688 26.6819C16.5838 26.7407 16.5778 26.8508 16.6233 26.9518ZM24.0357 29.4955L24.2679 28.2923C24.28 28.2214 24.2952 28.1385 24.3058 28.0691C24.371 28.0963 24.4408 28.1189 24.5167 28.1324C24.6032 28.149 24.6836 28.1566 24.7565 28.1566C25.1115 28.1566 25.3179 27.9711 25.456 27.8128L25.635 27.6062L25.4894 27.38C25.4757 27.3574 25.154 26.8508 24.9052 26.504C24.8566 26.4361 24.8096 26.3683 24.7625 26.2944C24.4803 25.8752 24.1267 25.3489 23.4181 25.3489L23.3544 25.3505C23.2376 25.358 23.1374 25.3806 23.057 25.4108C22.8339 25.3067 22.6048 25.254 22.3666 25.254C22.0737 25.254 21.8264 25.3339 21.6625 25.3897C21.6155 25.4032 21.573 25.4183 21.5396 25.4243L20.2149 25.2947C20.1982 25.2916 20.1436 25.26 20.0784 25.1816V25.1755L20.3652 25.0609C20.2847 24.1125 19.3682 23.529 18.8569 23.3314C18.8341 23.2364 18.7886 23.1415 18.7082 23.0646L18.4229 22.7962L18.1725 23.0947L18.0496 23.247L16.1954 22.4901L17.4017 23.9949L16.9252 24.7111C16.7508 24.8951 16.9435 25.079 16.9435 25.079L17.4351 25.4153L17.9449 25.2268C17.9631 25.2268 17.9783 25.2313 17.995 25.2328C17.9707 25.3097 17.9389 25.6113 17.9176 25.6958L17.033 25.5224L16.1028 26.0441C15.6249 26.3924 15.5596 26.9699 15.7371 27.3649L15.8403 27.5896L15.9875 27.9063L16.3122 27.7721C16.3168 27.7706 16.3213 27.7691 16.3244 27.766C16.2075 28.137 16.2546 28.4898 16.464 28.722L16.6612 28.9693L16.9237 29.2995L17.212 28.9919C17.297 28.9075 17.5717 28.6014 17.6566 28.339L17.7188 28.1385L17.5777 27.9847L17.555 27.9575L17.7128 27.6982L18.8675 27.9681L19.127 28.0269L19.2651 27.8007L19.3409 27.6771C19.3546 27.6514 19.3591 27.6469 19.4122 27.6469C19.4532 27.6469 19.4942 27.6514 19.5382 27.6605C19.9737 27.7419 20.3758 27.7826 20.7324 27.7826C21.0783 27.7826 21.2847 27.7691 21.532 27.6876C21.532 27.6876 22.1526 28.3873 22.1739 28.4144L21.7945 29.5785L21.7778 29.6493C21.0586 29.7066 20.7081 29.8635 20.2847 30.2842C19.6702 29.678 19.2347 29.6147 17.5823 29.6147C15.6051 29.6147 14.2653 28.4627 14.2653 26.6231V22.1252H26.3012L26.3042 26.6231C26.3057 28.1159 25.4241 29.1563 24.0357 29.4955ZM26.638 14.8679C26.4544 15.3504 26.3012 15.8736 26.3012 16.3938L26.3027 19.7503C25.5971 19.6327 25.5136 18.8772 25.5106 18.8441L25.4969 18.6903L25.3452 18.6767C25.0387 18.648 24.8354 18.5184 24.6639 18.3525C24.3179 18.0087 24.3164 17.4508 24.3179 17.4463C24.3134 17.4749 23.9371 17.9982 24.3741 18.5696C24.5577 18.8109 24.8232 18.9587 25.1677 19.0175C25.2481 19.4367 25.5622 20.0277 26.3027 20.1182V21.7618H24.2208C23.2603 21.231 23.667 20.2961 23.6867 20.2569L23.7686 20.079L23.585 20.0096C22.5456 19.6266 22.8309 18.5953 22.8461 18.5515L22.8886 18.4008L22.7474 18.3344C21.8886 17.9394 22.0054 16.8733 22.0161 16.8296C21.752 17.0422 21.6564 17.4764 21.8385 17.9017C21.7399 18.0132 21.6079 18.1489 21.4637 18.2967C20.5746 18.072 20.5472 17.2593 20.5472 17.2216L20.5457 17.0965L20.4289 17.0512C20.0814 16.9231 19.8432 16.7316 19.7263 16.4737C19.5943 16.1887 19.6414 15.8902 19.6778 15.7469C19.7794 15.7696 19.8811 15.7861 19.9782 15.7937C20.0784 15.8042 20.1816 15.8103 20.2847 15.8103H20.2908H20.2984C20.4016 15.8103 20.5032 15.8042 20.6034 15.7937C21.1572 15.7394 21.7778 15.5027 22.4242 14.8664H26.638V14.8679ZM23.3938 11.4752L24.2163 11.9502H24.2284L24.4348 12.0693C23.9705 12.1975 23.6154 12.4282 23.318 12.7312C23.3074 12.7403 23.2967 12.7523 23.2861 12.7629C23.2178 12.8353 23.1495 12.9137 23.0858 12.9936C23.0737 13.0087 23.0615 13.0253 23.0479 13.0418C22.9842 13.1233 22.925 13.2062 22.8673 13.2937C22.8582 13.3087 22.8476 13.3238 22.837 13.3374C22.7687 13.4384 22.7034 13.547 22.6382 13.6586C22.0525 14.6613 21.1178 15.2599 20.2862 15.2614C19.4562 15.2599 18.5215 14.6613 17.9358 13.6586C17.8721 13.55 17.8084 13.4444 17.7401 13.3419C17.7264 13.3223 17.7143 13.3027 17.7021 13.2861C17.6445 13.2032 17.5868 13.1218 17.5276 13.0449C17.5125 13.0238 17.4988 13.0072 17.4836 12.9891C17.4199 12.9122 17.3547 12.8353 17.2894 12.7644C17.2758 12.7538 17.2667 12.7403 17.253 12.7282C16.9541 12.4251 16.6005 12.1959 16.1347 12.0693L16.3441 11.9502H16.3532L17.1756 11.4752L18.0208 10.9942L20.2787 12.2155L20.2832 12.211L20.2893 12.2155L22.5471 10.9942L23.3938 11.4752ZM22.2801 10.4634L20.4805 11.4058V7.59096L22.9219 6.76767L22.2801 10.4634ZM20.2847 7.17177L17.6081 6.1208C17.8357 5.58551 18.8857 5.13014 20.2847 5.12863C21.6853 5.13014 22.7353 5.58551 22.9614 6.1208L20.2847 7.17177Z" fill="#333333"/>
</svg>
