<svg width="166" height="39" viewBox="0 0 166 39" fill="none" xmlns="http://www.w3.org/2000/svg">
<path d="M59.2584 25.4128V17.7125H63.8035V14.9104H51.4036V17.7125H55.9488V25.4128H59.2584Z" fill="#333333"/>
<path d="M68.3273 21.0221V14.9104H65.128V25.4128H67.9522L73.4682 19.3011V25.4128H76.6674V14.9104H73.8433L68.3273 21.0221Z" fill="#333333"/>
<path d="M87.4305 21.5075V25.4128H90.6297V14.9104H87.4305V18.7495H82.2896V14.9104H79.0903V25.4128H82.2896V21.5075H87.4305Z" fill="#333333"/>
<path d="M99.5394 25.4128C100.267 25.4128 100.929 25.3466 101.547 25.1701C103.202 24.7068 104.283 23.3609 104.283 21.5296C104.283 19.7865 103.356 18.573 101.878 18.0214C101.172 17.7567 100.334 17.7346 99.5394 17.7346H96.2519V14.9104H93.0526V25.4128H99.5394ZM98.9878 20.2057C99.4291 20.2057 99.8483 20.2057 100.223 20.3381C100.753 20.5146 101.062 20.9559 101.062 21.4855C101.062 22.037 100.753 22.5004 100.245 22.721C99.8924 22.8755 99.5394 22.8755 98.9878 22.8755H96.2519V20.2057H98.9878Z" fill="#333333"/>
<path d="M110.019 21.4413L113.836 25.4128H118.095L112.777 19.941L117.896 14.9104H113.881L110.019 18.8599H109.137V14.9104H105.938V25.4128H109.137V21.4413H110.019Z" fill="#333333"/>
<path d="M124.678 14.6236C120.375 14.6236 117.794 17.0506 117.794 20.1837C117.794 23.3168 120.375 25.7438 124.678 25.7438C128.958 25.7438 131.54 23.3168 131.54 20.1837C131.54 17.0506 128.958 14.6236 124.678 14.6236ZM124.678 23.1844C122.537 23.1844 121.17 21.9047 121.17 20.1837C121.17 18.4627 122.537 17.2051 124.678 17.2051C126.796 17.2051 128.186 18.4627 128.186 20.1837C128.186 21.9047 126.796 23.1844 124.678 23.1844Z" fill="#333333"/>
<path d="M142.194 14.3147H138.995V15.3738C134.979 15.462 132.574 17.1609 132.574 20.1616C132.574 23.1623 134.979 24.7288 138.995 24.8171V25.8762H142.194V24.8171C146.232 24.7288 148.637 23.1623 148.637 20.1616C148.637 17.1609 146.232 15.462 142.194 15.3738V14.3147ZM138.995 22.5666C136.788 22.4783 135.818 21.5737 135.818 20.1616C135.818 18.7495 136.788 17.7346 138.995 17.6463V22.5666ZM142.194 17.6463C144.423 17.7346 145.371 18.7495 145.371 20.1616C145.371 21.5737 144.423 22.4783 142.194 22.5666V17.6463Z" fill="#333333"/>
<path d="M159.281 14.3147H156.081V15.3738C152.066 15.462 149.661 17.1609 149.661 20.1616C149.661 23.1623 152.066 24.7288 156.081 24.8171V25.8762H159.281V24.8171C163.318 24.7288 165.723 23.1623 165.723 20.1616C165.723 17.1609 163.318 15.462 159.281 15.3738V14.3147ZM156.081 22.5666C153.875 22.4783 152.904 21.5737 152.904 20.1616C152.904 18.7495 153.875 17.7346 156.081 17.6463V22.5666ZM159.281 17.6463C161.509 17.7346 162.458 18.7495 162.458 20.1616C162.458 21.5737 161.509 22.4783 159.281 22.5666V17.6463Z" fill="#333333"/>
<path d="M42.738 18.5837L43.2922 16.8205L41.4588 16.8776C41.3039 16.8776 40.178 16.8459 39.0856 16.0587C39.167 16.0666 39.2485 16.0778 39.3315 16.0778C40.4558 16.0778 41.5434 15.4049 41.9794 14.4431L42.7684 12.7053C41.7798 12.718 40.8759 12.5943 40.8759 12.5943C40.8679 12.5927 40.1556 12.5022 39.3315 11.6659C38.7406 11.066 38.0092 10.7486 37.217 10.7486C36.8705 10.7486 36.5606 10.8105 36.2939 10.8946C36.3355 10.7533 36.3754 10.6105 36.3977 10.4629C36.6501 8.8362 35.596 7.59516 35.596 7.59675L34.2178 5.90023L33.3634 7.89352C33.3602 7.89987 33.1446 8.36645 32.7581 8.59498C32.6415 8.00937 32.3556 7.35076 31.744 6.72071C30.5909 5.53362 29.1871 5.35747 28.4524 5.35747C28.1123 5.35747 27.8695 5.39397 27.8104 5.40349L26.1463 5.72883C26.2421 5.35905 26.4466 4.71631 26.8203 4.13705L27.7386 2.71508L25.4276 2.97694L24.6914 1.42325L23.2668 2.15328L21.9493 0.859863L20.6349 2.15328L19.2056 1.42325L18.4709 2.97694L16.1616 2.71508L17.0815 4.13705C17.4552 4.71631 17.6596 5.35747 17.7538 5.72724L16.1664 5.41619L16.1121 5.40666C16.0322 5.39397 15.7911 5.35747 15.4493 5.35747C14.7147 5.35747 13.3109 5.53521 12.161 6.72071C11.5477 7.34917 11.2618 8.00937 11.1437 8.59498C10.7604 8.36962 10.5464 7.90939 10.5464 7.90939L9.69036 5.90499L8.28975 7.61262C8.11886 7.83321 7.27403 8.99967 7.504 10.4661C7.52796 10.6121 7.56629 10.7549 7.60781 10.8962C7.3427 10.812 7.03287 10.7501 6.68632 10.7501C5.89418 10.7501 5.16273 11.0675 4.57023 11.6674C3.74935 12.5006 3.04026 12.5943 3.04665 12.5943C3.04665 12.5943 2.29763 12.7276 1.13818 12.7069L1.92233 14.4447C2.35832 15.408 3.44751 16.0793 4.57023 16.0793C4.65487 16.0793 4.73632 16.0682 4.81937 16.0603C3.73018 16.8475 2.60427 16.8792 2.46852 16.8808L0.599976 16.8205L1.16533 18.5821C1.4496 19.4898 2.39985 20.9943 4.22048 21.1562C4.02244 21.9815 3.58326 22.9051 2.61864 23.3034L1.22761 23.8732L1.98621 25.1856C2.41422 25.8934 3.41876 26.7219 4.84971 26.7219C5.15954 26.7203 5.45819 26.6901 5.74566 26.6298C5.81912 26.9536 5.91175 27.2773 6.02035 27.5979C6.44676 28.858 6.07944 29.7372 6.07465 29.7467L5.38792 31.1766L6.92108 31.5781C6.94024 31.5845 7.40339 31.7099 7.98312 31.7099C8.24663 31.7099 8.49736 31.6829 8.73373 31.6273C8.9126 31.5861 9.08348 31.5305 9.24798 31.4639C9.44601 31.8178 9.68716 32.1399 9.96824 32.4288C10.9504 33.4302 12.3415 33.938 14.1046 33.938H14.111L15.3694 33.9222L12.7695 34.995L14.7434 35.9424C15.4605 36.29 16.3117 36.701 17.1773 37.0153L16.9314 37.685L17.6117 37.9929C17.6724 38.0198 18.9804 38.6023 21.1555 38.7261C21.1555 38.7261 21.681 38.7499 21.97 38.7499C22.2591 38.7499 22.7781 38.7245 22.7781 38.7245C24.9389 38.5975 26.2373 38.0214 26.298 37.9929L26.98 37.6834L26.7308 37.0121C27.622 36.6883 28.5035 36.2614 29.1903 35.9282L31.1275 34.9934L28.5355 33.919L29.7988 33.9349C31.5635 33.9349 32.9561 33.427 33.9367 32.424C34.2162 32.1368 34.4573 31.8146 34.657 31.4607C34.8215 31.5274 34.9939 31.5829 35.1728 31.6242C35.4076 31.6797 35.6583 31.7067 35.9218 31.7067C36.492 31.7067 36.9599 31.5813 36.9727 31.5781L38.5122 31.1735L37.8415 29.7705C37.8255 29.734 37.4582 28.8564 37.8846 27.5947C37.9932 27.2726 38.0842 26.9488 38.1577 26.6267C38.4468 26.687 38.7486 26.7187 39.06 26.7187C40.8822 26.7187 41.7558 25.4443 41.9251 25.1682L42.6757 23.87L41.2847 23.3019C40.3185 22.9035 39.8809 21.9783 39.6845 21.1546C41.4795 21.0023 42.4442 19.4978 42.738 18.5837ZM17.8752 6.33507L17.856 6.33983L17.872 6.3192L17.8752 6.33507Z" fill="white"/>
<path d="M21.9504 6.25684C20.478 6.25842 19.3744 6.7377 19.1332 7.30109L21.9504 8.40565L24.7676 7.30109C24.5281 6.7377 23.4245 6.25842 21.9504 6.25684Z" fill="white"/>
<path d="M21.9809 35.4992H21.9778H21.9538H21.9267H21.9251C21.0323 35.5055 19.8042 35.323 19.2117 35.1516L18.4994 37.0671C18.9689 37.2338 20.5596 37.5512 21.9538 37.5512C23.3448 37.5512 24.9371 37.2322 25.405 37.0671L24.6943 35.1516C24.1002 35.3246 22.8737 35.5055 21.9809 35.4992Z" fill="white"/>
<path d="M27.3707 33.5945C26.8405 33.8928 25.6571 34.3404 24.9688 34.5483L25.5469 36.1305C26.6121 35.8417 27.4905 35.5037 28.2171 35.1418L27.0178 34.7451L27.3707 33.5945Z" fill="white"/>
<path d="M16.5336 33.5945L16.8882 34.7451L15.6872 35.1418C16.4123 35.5037 17.2954 35.8417 18.3559 36.1305L18.934 34.5483C18.2489 34.3404 17.0638 33.8913 16.5336 33.5945Z" fill="white"/>
<path d="M21.9526 4.427C23.0625 4.427 24.1517 4.69044 24.9886 5.15385C25.0652 4.89834 25.1722 4.58887 25.3176 4.26512L25.0014 4.30321L24.6692 4.33812L24.5286 4.03818L24.1054 3.14945L23.334 3.54938L23.0338 3.70173L22.7942 3.46685L21.9558 2.6416L21.1189 3.46685L20.8794 3.70173L20.5791 3.54938L19.803 3.14945L19.3845 4.03818L19.2408 4.33812L18.9086 4.30321L18.5924 4.26512C18.7377 4.59046 18.8431 4.89834 18.9214 5.15385C19.7598 4.69044 20.8458 4.427 21.9526 4.427Z" fill="white"/>
<path d="M38.8971 14.6984C39.0409 14.7476 39.1878 14.7698 39.3331 14.7698C39.9608 14.7698 40.5676 14.3667 40.7768 13.9049C40.7768 13.9049 39.6254 13.8351 38.3877 12.5861C37.9932 12.1814 37.5764 12.0608 37.2186 12.0608C36.6629 12.0608 36.246 12.3528 36.246 12.3528C37.7409 13.1431 38.0459 14.4128 38.8971 14.6984Z" fill="white"/>
<path d="M4.5678 14.7698C4.71313 14.7698 4.86006 14.7476 5.0006 14.6984C5.85502 14.4128 6.16166 13.1431 7.65649 12.3528C7.65649 12.3528 7.23806 12.0608 6.68549 12.0608C6.32615 12.0608 5.90932 12.1814 5.51326 12.5861C4.27714 13.8351 3.12567 13.9049 3.12567 13.9049C3.33169 14.3667 3.94016 14.7698 4.5678 14.7698Z" fill="white"/>
<path d="M39.3014 19.8563C39.327 19.8579 39.3493 19.8579 39.3765 19.8579C40.9432 19.8579 41.475 18.1899 41.475 18.1899H41.4446C41.1572 18.1899 38.8271 18.1233 37.1805 16.0427C36.0961 14.6747 35.2082 13.4718 33.453 12.9988L33.2805 12.9687L33.2422 12.7941C33.1943 12.5275 33.378 12.2783 33.7948 12.0085C36.2159 10.4326 34.5726 8.42345 34.5726 8.42345C34.5726 8.42345 33.881 10.0311 32.3335 10.0311C32.2968 10.0311 32.2568 10.0295 32.2185 10.0295C32.0428 10.02 31.8735 10.0136 31.7027 9.97714L31.4168 9.9216C31.4168 9.9216 31.8576 8.72975 30.7939 7.63471C29.9922 6.80787 29.0164 6.66821 28.4527 6.66821C28.1684 6.66821 27.9879 6.70471 27.9879 6.70471C28.5229 7.39983 28.9094 8.552 28.2914 9.26298C27.758 9.87399 26.4548 9.90414 26.4548 10.8151C26.4548 11.2007 26.8173 11.6514 27.4689 12.0561C29.4285 13.2829 31.3737 14.9096 32.1818 17.0901C33.1927 19.8103 32.054 21.6147 30.4282 22.6495C30.4282 22.6495 30.9377 23.116 31.6771 23.1748C31.8272 23.189 31.9742 23.1954 32.1115 23.1954C33.6718 23.1954 34.4783 22.4685 34.4783 22.4685C34.4783 22.4685 34.3458 23.4731 33.5329 24.4063C32.7839 25.268 31.8001 25.7743 30.3005 25.7965C30.3005 25.7965 30.2525 26.4885 30.9169 27.0868C31.3417 27.4645 32.3239 27.5883 32.3239 27.5883C32.3239 27.5883 30.4857 27.958 30.2829 30.656C30.1727 32.1176 29.7974 32.6254 29.7974 32.6254H29.8309C34.0966 32.6254 33.9864 28.9896 33.9864 28.9896C33.9864 28.9896 34.2835 30.0656 35.4733 30.3465C35.617 30.3846 35.7703 30.3989 35.9173 30.3989C36.3006 30.3989 36.6327 30.31 36.6327 30.31C36.6327 30.31 36.0099 29.0039 36.628 27.1772C37.1406 25.6616 37.0576 24.538 37.0576 24.538C37.0576 24.538 37.6325 25.4014 39.0571 25.4093H39.0714C40.258 25.4093 40.7755 24.5158 40.7755 24.5158C37.9311 23.343 38.2122 19.5564 38.2122 19.5564C38.2122 19.5564 38.5811 19.8293 39.3014 19.8563ZM38.4454 23.8112C37.2891 23.2446 36.5577 21.7401 36.3804 21.1973C36.1888 24.1809 34.7227 26.252 33.009 28.2453C32.1195 29.2784 31.8097 30.283 31.8097 30.283C31.8097 30.283 31.9805 29.1451 32.7503 28.2183C34.349 26.3091 35.8678 23.9334 35.9811 21.1862C36.0594 19.2691 35.5627 17.7138 34.7882 16.4331C35.221 17.7678 35.1603 19.4024 33.6894 20.9276C33.6894 20.9276 36.6168 17.4409 32.5235 13.8669C30.885 12.5068 29.0931 11.6673 28.17 11.0722C31.5046 12.1529 33.132 10.9627 33.132 10.9627C32.0668 11.88 30.6885 11.8641 29.8341 11.7324C30.0657 11.8451 30.3068 11.9625 30.5672 12.1006C33.378 13.6178 35.9045 16.1141 36.3357 19.5722V19.5453C36.9905 22.9399 38.4454 23.8112 38.4454 23.8112Z" fill="white"/>
<path d="M11.5749 27.5883C11.5749 27.5883 12.5571 27.4661 12.9819 27.0868C13.6447 26.4885 13.5983 25.7965 13.5983 25.7965C12.0971 25.7759 11.1149 25.268 10.3611 24.4079C9.55463 23.4747 9.42048 22.4701 9.42048 22.4701C9.42048 22.4701 10.227 23.197 11.7857 23.197C11.9262 23.197 12.0716 23.1906 12.2217 23.1764C12.9611 23.1176 13.4722 22.6511 13.4722 22.6511C11.8464 21.6163 10.7061 19.8103 11.7154 17.0901C12.5251 14.9112 14.4687 13.2829 16.4283 12.0561C17.0799 11.6514 17.4424 11.2023 17.4424 10.8151C17.4424 9.90414 16.1408 9.87399 15.6074 9.26298C14.9894 8.552 15.3775 7.39824 15.9109 6.70471C15.9109 6.70471 15.7336 6.66821 15.4477 6.66821C14.8856 6.66821 13.9098 6.80787 13.1081 7.63471C12.0412 8.72975 12.4836 9.9216 12.4836 9.9216L12.1977 9.97714C12.0269 10.0136 11.856 10.02 11.6819 10.0295C11.642 10.0295 11.6068 10.0311 11.5685 10.0311C10.0178 10.0311 9.32945 8.42504 9.32945 8.42504C9.32945 8.42504 7.68609 10.4342 10.1056 12.0101C10.5224 12.2799 10.7045 12.5291 10.6566 12.7957L10.6183 12.9703L10.4426 13.0004C8.69063 13.4733 7.80108 14.6763 6.71668 16.0443C5.07332 18.1217 2.74643 18.1899 2.45577 18.1899H2.42383C2.42383 18.1899 2.95564 19.8579 4.52234 19.8579C4.5479 19.8579 4.57026 19.8579 4.59741 19.8563C5.31767 19.8309 5.68819 19.5564 5.68819 19.5564C5.68819 19.5564 5.96607 23.3414 3.12493 24.5158C3.12493 24.5158 3.64237 25.4093 4.82898 25.4093H4.84335C6.26951 25.4014 6.84285 24.538 6.84285 24.538C6.84285 24.538 6.7598 25.6616 7.27086 27.1772C7.88891 29.0039 7.26926 30.31 7.26926 30.31C7.26926 30.31 7.60145 30.3989 7.98314 30.3989C8.13166 30.3989 8.28338 30.3846 8.42552 30.3465C9.61372 30.0656 9.91237 28.9896 9.91237 28.9896C9.91237 28.9896 9.80377 32.6254 14.0695 32.6254H14.0998C14.0998 32.6254 13.7261 32.1176 13.6175 30.656C13.4131 27.958 11.5749 27.5883 11.5749 27.5883ZM10.8898 28.2453C9.17613 26.252 7.71164 24.1809 7.5184 21.1973C7.34113 21.7385 6.61288 23.2446 5.45662 23.8112C5.45662 23.8112 6.90993 22.9399 7.56312 19.5453V19.5722C7.99592 16.1157 10.5208 13.6178 13.3332 12.1006C13.5904 11.9609 13.8347 11.8435 14.0647 11.7324C13.2103 11.8641 11.832 11.88 10.7668 10.9627C10.7668 10.9627 12.3942 12.1529 15.7272 11.0722C14.8041 11.6673 13.0138 12.5068 11.3753 13.8669C7.28044 17.4409 10.2094 20.9276 10.2094 20.9276C8.73694 19.4008 8.67785 17.7678 9.11065 16.4331C8.33449 17.7154 7.83941 19.2691 7.91926 21.1862C8.03105 23.9334 9.54984 26.3091 11.1453 28.2183C11.9167 29.1435 12.0907 30.283 12.0907 30.283C12.0907 30.283 11.7777 29.2784 10.8898 28.2453Z" fill="white"/>
<path d="M18.7972 14.295C18.8675 14.3696 18.9361 14.4506 19.0016 14.5315C19.0176 14.5505 19.032 14.568 19.0479 14.5902C19.1086 14.6712 19.1709 14.7569 19.23 14.8441C19.2428 14.8616 19.2556 14.8822 19.2699 14.9029C19.3418 15.0108 19.4089 15.1219 19.4759 15.2361C20.0908 16.2915 21.0762 16.9216 21.9498 16.9231C22.8249 16.9216 23.8071 16.2915 24.4252 15.2361C24.4939 15.1187 24.5625 15.0044 24.6344 14.8981C24.6456 14.8822 24.6568 14.868 24.6663 14.8521C24.727 14.7616 24.7909 14.6727 24.858 14.5871C24.8724 14.568 24.8851 14.5521 24.8979 14.5363C24.9666 14.4522 25.0369 14.3696 25.1087 14.2935C25.1215 14.2808 25.1311 14.2696 25.1423 14.2601C25.4553 13.9411 25.829 13.6983 26.3177 13.5634L26.1005 13.4381H26.0877L25.2221 12.9381L24.3326 12.4319L21.9562 13.7174L21.9498 13.7126L21.945 13.7174L19.567 12.4319L18.679 12.9366L17.8118 13.4365H17.8022L17.5818 13.5618C18.0721 13.6967 18.4443 13.9364 18.7589 14.2554C18.7732 14.2681 18.7828 14.2823 18.7972 14.295ZM20.9883 14.1919H21.9945H22.999V14.8775C22.7627 14.5902 22.3027 14.6489 22.3027 14.6489V15.6377C22.3027 15.6377 22.3203 16.1233 22.4912 16.3344H21.9945H21.4962C21.6703 16.1249 21.6863 15.6377 21.6863 15.6377V14.6489C21.6863 14.6489 21.2279 14.5902 20.9883 14.8775V14.1919Z" fill="white"/>
<path d="M21.7438 12.862V8.84844L19.1725 7.98193L19.8513 11.8717L21.7438 12.862ZM21.1912 9.83398V10.4783L21.0666 10.4212C21.0603 10.4164 20.8782 10.3752 20.5588 10.1244C20.0318 9.71813 20.0222 9.34359 20.0222 9.34359L21.1912 9.83398Z" fill="white"/>
<path d="M24.0507 11.8717L24.7263 7.98193L22.1566 8.84844V12.862L24.0507 11.8717ZM22.7092 9.83398L23.8782 9.34518C23.8782 9.34518 23.8687 9.71972 23.34 10.126C23.0222 10.3767 22.8386 10.418 22.8322 10.4228L22.7076 10.4799V9.83398H22.7092Z" fill="white"/>
<path d="M18.1065 22.1665C18.3573 22.2569 18.6607 22.276 18.8156 22.276C18.822 22.2569 18.83 22.2331 18.838 22.2046C18.8523 22.1585 18.8651 22.1141 18.8747 22.0633C18.9178 21.8411 18.9338 21.5888 18.937 21.4269C18.8316 21.3619 18.683 21.246 18.6 21.073C18.5042 20.8731 18.3684 20.781 18.1688 20.781C17.9101 20.781 17.6322 20.9349 17.514 21.0079C17.4198 21.5618 17.8302 22.0649 18.1065 22.1665Z" fill="white"/>
<path d="M23.7955 20.0364C23.3179 20.5522 22.3837 21.4504 22.3374 21.4964L22.2815 21.5536L19.3285 21.5075C19.3269 21.798 19.279 22.0455 19.2327 22.2265C19.2247 22.2566 19.2167 22.2884 19.2087 22.3201L22.7222 22.947C23.088 22.693 24.0941 21.963 24.4838 21.6774C24.1995 21.2647 24.1724 20.7759 24.2362 20.4315C24.051 20.3125 23.9089 20.1792 23.7955 20.0364Z" fill="white"/>
<path d="M24.1972 16.507C23.5168 17.1783 22.8636 17.4258 22.2807 17.483C22.1753 17.4941 22.0683 17.5004 21.9597 17.5004H21.9517H21.9453C21.8367 17.5004 21.7281 17.4941 21.6227 17.483C21.5205 17.4735 21.4135 17.4576 21.3065 17.4338C21.2682 17.5845 21.2203 17.9004 21.3576 18.1987C21.4806 18.4701 21.7313 18.6716 22.097 18.805L22.22 18.8526L22.2216 18.9843C22.2216 19.024 22.2504 19.8778 23.1878 20.1142C23.3411 19.9571 23.4801 19.8159 23.5823 19.6984C23.3906 19.2509 23.4913 18.7938 23.7691 18.5701C23.7564 18.6177 23.635 19.7381 24.5389 20.1539L24.6874 20.2238L24.6427 20.3809C24.6284 20.4285 24.3265 21.5124 25.4205 21.9155L25.6137 21.9885L25.5275 22.1758C25.5083 22.217 25.0787 23.201 26.0897 23.7596H28.2824V22.0298C27.503 21.9346 27.1725 21.3124 27.0878 20.8713C26.7253 20.8094 26.4442 20.6538 26.2526 20.3999C25.7926 19.7984 26.1887 19.2477 26.1935 19.2176C26.1919 19.2223 26.1935 19.8095 26.5576 20.1714C26.7381 20.346 26.9521 20.4808 27.2763 20.511L27.436 20.5253L27.4503 20.6872C27.4535 20.7221 27.5414 21.5156 28.284 21.641L28.2824 18.1083C28.2824 17.5607 28.4437 17.01 28.6369 16.5022H24.1972V16.507Z" fill="white"/>
<path d="M18.2954 18.1275L18.2363 20.3779L18.4935 20.4159L19.1227 18.2576L18.8033 17.5942L18.2954 18.1275Z" fill="white"/>
<path d="M25.2322 28.4456C25.2514 28.4456 25.2738 28.4488 25.2945 28.4536C25.6858 28.5647 25.7848 29.9676 26.4715 30.093C26.5386 30.1072 26.6009 30.1104 26.6552 30.1104C26.8532 30.1104 26.9714 30.0263 27.0992 29.8771C27.0992 29.8771 26.7542 29.3375 26.4955 28.9741C26.1521 28.498 25.8854 27.9219 25.2466 27.9219C25.2322 27.9219 25.2131 27.9219 25.1971 27.9235C24.9863 27.9346 24.8569 28.0362 24.8569 28.0362C24.5982 27.8743 24.357 27.8188 24.1383 27.8188C23.7374 27.8188 23.426 28.0013 23.2711 28.0013H23.2647L21.8369 27.8616C21.6133 27.841 21.4377 27.6172 21.3738 27.5299C21.3578 27.5061 21.3498 27.4918 21.3498 27.4918C21.3498 27.4538 21.3498 27.4141 21.3466 27.3792C21.2987 26.2191 20.3948 25.7223 20.0738 25.7144C20.0738 25.7144 20.1121 25.4938 20.0243 25.4097L19.7097 25.789L18.6764 25.2732L19.4126 26.1286L18.7882 26.8253C18.7099 26.9046 18.7195 27.0126 18.7514 27.057L19.0213 27.2935L19.3631 27.0872C19.3807 27.0745 19.411 27.0713 19.4493 27.0713C19.5436 27.0713 19.6857 27.0951 19.8135 27.0951C19.9524 27.0951 20.0738 27.0649 20.0882 26.9348C20.045 27.3649 19.6442 28.1124 19.9077 28.6996L20.1025 29.1423L18.8409 28.9614L18.25 29.9533C18.0679 30.2834 18.0391 30.6405 18.2148 30.8341L18.4352 31.1087C18.4352 31.1087 18.745 30.7817 18.8153 30.5675L18.7147 30.458C18.63 30.3659 18.6348 30.2834 18.6859 30.1834L19.0565 29.5724L20.5465 29.9216L20.6248 29.7883C20.7254 29.6216 20.8707 29.5708 21.0304 29.5708C21.0959 29.5708 21.163 29.5788 21.2332 29.5899C21.5095 29.6438 21.9647 29.7168 22.4198 29.7168C22.9197 29.7168 23.4148 29.628 23.6783 29.3344C24.2181 30.1295 25.3121 30.2564 25.2258 30.6595L24.9384 32.0212C25.1284 32.0132 25.3121 32.0006 25.4862 31.9767L25.7593 30.5595C25.7896 30.4056 25.8183 30.1977 25.8183 30.1977C25.7129 30.0914 25.4574 29.866 25.3137 29.5931C25.1204 29.2249 25.2258 29.0328 25.0454 28.5536C25.0518 28.5567 25.1061 28.4456 25.2322 28.4456ZM19.6585 26.4555C19.5851 26.4539 19.5324 26.392 19.5356 26.319C19.542 26.2492 19.6011 26.1937 19.6729 26.2C19.7464 26.2032 19.7991 26.2667 19.7959 26.3365C19.7895 26.4063 19.7288 26.4603 19.6585 26.4555Z" fill="white"/>
<path d="M17.6244 29.7361C17.6244 29.7361 18.1179 29.5345 18.1626 29.3901L18.0971 29.2266C18.0508 29.1203 18.0572 29.0045 18.1466 28.941L18.6801 28.5744L19.5712 28.7442C19.5712 28.7442 19.4099 28.5442 19.4259 28.276L18.5763 28.0967L17.7745 28.5823C17.4312 28.8378 17.4056 29.2552 17.519 29.5028L17.6244 29.7361Z" fill="white"/>
<path d="M23.9219 32.0437C24.0816 32.0374 24.2573 32.0342 24.4506 32.0342C24.4506 32.0342 24.9089 30.7027 24.9345 30.6598C24.6773 30.5471 24.1439 30.2662 23.9379 30.1377C24.0737 30.3392 24.4042 30.571 24.3388 30.7487L23.9219 32.0437Z" fill="white"/>
<path d="M28.285 24.1448H15.6156V28.8804C15.6156 30.8166 17.0258 32.0291 19.1067 32.0291C20.8459 32.0291 21.3043 32.0957 21.9511 32.7337C22.3967 32.2925 22.7656 32.1275 23.5226 32.0656L23.5401 31.9926L23.9394 30.7658C23.917 30.7388 23.2639 30.0009 23.2639 30.0009C23.0051 30.0866 22.7879 30.1008 22.4222 30.1008C22.0469 30.1008 21.6237 30.058 21.1653 29.9723C21.119 29.9612 21.0759 29.958 21.0328 29.958C20.9769 29.958 20.9721 29.9628 20.9577 29.9898L20.8779 30.1199L20.7325 30.3579L20.4594 30.296L19.2441 30.012L19.078 30.2849L19.1035 30.3135L19.2521 30.4754L19.1866 30.6865C19.0972 30.9626 18.8065 31.2848 18.7187 31.3736L18.4152 31.6974L18.1389 31.3498L17.9313 31.0911C17.7125 30.8483 17.6614 30.4754 17.7844 30.085C17.7812 30.0881 17.7764 30.0897 17.7716 30.0897L17.4282 30.231L17.2733 29.8977L17.1647 29.6612C16.9779 29.2454 17.0466 28.6376 17.5496 28.271L18.5286 27.7219L19.4597 27.9044C19.482 27.8155 19.5156 27.4981 19.5427 27.4172C19.5252 27.4156 19.5076 27.4109 19.49 27.4109L18.9534 27.6092L18.436 27.2537C18.436 27.2537 18.2332 27.0601 18.4168 26.8665L18.9183 26.1127L17.6486 24.5288L19.6002 25.3255L19.7296 25.1652L19.9931 24.8526L20.2918 25.1351C20.3764 25.216 20.4243 25.316 20.4483 25.416C20.9865 25.6239 21.9495 26.238 22.0341 27.2363L21.7323 27.3569V27.3648C21.801 27.4458 21.8585 27.4791 21.876 27.4823L23.2686 27.6188C23.3038 27.6124 23.3485 27.5965 23.398 27.5823C23.5705 27.5235 23.8308 27.4394 24.139 27.4394C24.3898 27.4394 24.6325 27.4966 24.8657 27.6045C24.9519 27.5727 25.0573 27.5489 25.1787 27.541L25.2458 27.5394C25.9916 27.5394 26.3621 28.0933 26.6592 28.5345C26.7087 28.6106 26.7582 28.6836 26.8093 28.7551C27.0696 29.1201 27.4098 29.6549 27.4242 29.6771L27.5775 29.9152L27.389 30.1326C27.2437 30.2992 27.0265 30.4944 26.6528 30.4944C26.5761 30.4944 26.4915 30.4865 26.4005 30.469C26.3206 30.4547 26.2487 30.4309 26.1785 30.4024C26.1673 30.4754 26.1529 30.5627 26.1385 30.6373L25.8942 31.9037C27.3555 31.5466 28.2834 30.45 28.2834 28.882L28.285 24.1448Z" fill="#FFDD2D"/>
<path d="M15.616 23.7643H25.4682C24.9763 23.2596 24.9827 22.62 25.1088 22.2042C24.9651 22.136 24.8469 22.0535 24.7415 21.9646C24.3566 22.2471 23.1812 23.0977 22.8746 23.3104L22.8091 23.3548L18.9426 22.6597H18.8644C18.7718 22.6597 18.636 22.6565 18.4875 22.6391C18.446 22.812 18.2958 22.9311 18.1234 22.9311C18.1042 22.9311 18.0818 22.9295 18.0611 22.9247C17.9605 22.9073 17.8726 22.8565 17.8135 22.7724C17.7528 22.6898 17.7289 22.5915 17.7465 22.4899L17.7608 22.4074C17.3616 22.128 16.9942 21.5043 17.1571 20.8473L17.1731 20.7775L17.229 20.7378C17.237 20.7315 17.3041 20.687 17.4031 20.6299L17.122 20.5871C17.0166 20.568 16.9463 20.4712 16.9623 20.368C16.9799 20.2633 17.0789 20.1887 17.1827 20.2093L17.8519 20.3141L17.9125 17.9717L18.9091 16.9242L19.5304 18.224L18.874 20.4775L19.4649 20.5696C19.5687 20.5855 19.6406 20.6823 19.6246 20.7886C19.6086 20.8822 19.5288 20.9473 19.4345 20.9473C19.425 20.9473 19.4138 20.9473 19.4042 20.9457L18.9235 20.868C18.9299 20.8822 18.9395 20.8902 18.9458 20.906C18.9969 21.0108 19.1103 21.087 19.1774 21.1187L22.1256 21.1647C22.2501 21.0441 22.56 20.7426 22.8778 20.4236C22.1527 20.1506 21.8892 19.5285 21.8445 19.1159C21.4388 18.9445 21.1593 18.6874 21.0044 18.3525C20.816 17.9383 20.8831 17.5241 20.9326 17.3226C20.5397 17.1797 20.1261 16.9195 19.7044 16.5037H15.2646C15.4547 17.0115 15.616 17.5622 15.616 18.1097V23.7643Z" fill="#FFDD2D"/>
<path d="M19.6745 26.2002C19.6025 26.1938 19.5417 26.2495 19.5369 26.3194C19.5321 26.3926 19.5865 26.4546 19.6601 26.4561C19.7305 26.4625 19.7929 26.4085 19.7993 26.3369C19.7993 26.267 19.7481 26.2018 19.6745 26.2002Z" fill="#333333"/>
<path d="M28.2678 34.7889L27.538 34.5112L27.7392 33.7621L27.9612 32.9448C27.9612 32.9448 26.6676 33.6415 24.8453 34.1652C24.3279 34.3128 23.9366 34.3795 23.9366 34.3795V34.9349C23.9366 34.9349 22.9624 35.1032 21.977 35.1032H21.9659H21.9515H21.9323H21.9211C20.9358 35.1032 19.9616 34.9349 19.9616 34.9349V34.3795C19.9616 34.3795 19.5687 34.3128 19.0529 34.1652C17.2306 33.6415 15.9386 32.9448 15.9386 32.9448L16.1574 33.7621L16.3634 34.5112L15.632 34.7889L14.8207 35.0905C15.7518 35.5364 17.0406 36.1871 18.2208 36.5077L17.9429 37.2631C17.9429 37.2631 19.4393 37.9407 21.9323 37.9471V37.9487H21.9403H21.9515H21.9611H21.9675V37.9471C24.4636 37.9407 25.9585 37.2631 25.9585 37.2631L25.679 36.5077C26.8592 36.1871 28.1512 35.5364 29.0775 35.0905L28.2678 34.7889ZM15.6863 35.1413L16.8873 34.7445L16.5327 33.5939C17.0613 33.8923 18.2479 34.3398 18.9347 34.5477L18.3549 36.13C17.2945 35.8395 16.4113 35.5015 15.6863 35.1413ZM21.9515 37.5503C20.5573 37.5503 18.965 37.2313 18.4971 37.0663L19.2094 35.1508C19.8003 35.3222 21.03 35.5047 21.9227 35.4983H21.9243H21.9515H21.9754H21.9786C22.8714 35.5047 24.0979 35.3222 24.692 35.1508L25.4027 37.0663C24.9348 37.2329 23.3441 37.5503 21.9515 37.5503ZM25.5448 36.13L24.9667 34.5477C25.655 34.3398 26.8384 33.8923 27.3687 33.5939L27.0157 34.7445L28.2151 35.1413C27.4884 35.5015 26.6101 35.8395 25.5448 36.13Z" fill="#333333"/>
<path d="M21.9492 4.88849C23.4344 4.88849 24.6226 5.37729 25.279 5.89942C25.279 5.89942 25.4738 4.73297 26.1398 3.70299L24.9436 3.83789L24.3176 2.5159L23.115 3.13167L21.9492 1.98584L20.7865 3.13167L19.5823 2.5159L18.9579 3.83789L17.7617 3.70299C18.4277 4.73297 18.6225 5.89942 18.6225 5.89942C19.2805 5.37729 20.4655 4.88849 21.9492 4.88849ZM18.9036 4.3013L19.2358 4.33621L19.3795 4.03627L19.798 3.14754L20.5741 3.54588L20.8744 3.69823L21.1139 3.46335L21.9508 2.6381L22.7892 3.46335L23.0288 3.69823L23.329 3.54588L24.1004 3.14754L24.5236 4.03627L24.6641 4.33621L24.9963 4.3013L25.3125 4.26321C25.1672 4.58855 25.0602 4.89643 24.9836 5.15194C24.1467 4.68853 23.0575 4.42508 21.9476 4.42508C20.8424 4.42508 19.7548 4.68853 18.9148 5.15194C18.8365 4.89643 18.7311 4.58696 18.5858 4.26321L18.9036 4.3013Z" fill="#333333"/>
<path d="M39.3754 20.3676C41.2967 20.3676 41.9387 18.4251 41.9658 18.3426L42.1798 17.6586L41.4596 17.6808H41.4564C41.2025 17.6808 39.0832 17.6252 37.5804 15.7272L37.4382 15.551C36.456 14.31 35.525 13.1308 33.8608 12.5928C33.9087 12.55 33.9774 12.496 34.0716 12.4357C34.9548 11.858 35.4691 11.1566 35.5984 10.3424C35.7869 9.11725 35.0011 8.14124 34.966 8.10156L34.431 7.44454L34.0972 8.22377C34.0748 8.27296 33.5127 9.52036 32.3309 9.52036H32.243C32.1616 9.5156 32.0849 9.51242 32.0083 9.50607C32.0498 8.94903 31.9476 8.08728 31.1618 7.27949C30.218 6.30665 29.0585 6.16064 28.4516 6.16064C28.1274 6.16064 27.9118 6.20032 27.8895 6.20349L27.0814 6.3622L27.5797 7.01446C27.9709 7.51754 28.3255 8.44595 27.9055 8.93157C27.7713 9.08551 27.495 9.21089 27.2299 9.33626C26.6853 9.58542 25.9427 9.93139 25.9427 10.8138C25.9427 11.3851 26.3883 11.9818 27.1964 12.4897C29.5887 13.9846 31.0644 15.5447 31.7016 17.2666C32.687 19.9153 31.4014 21.4261 30.1525 22.2212L29.5919 22.5799L30.0822 23.0274C30.1477 23.0846 30.7482 23.6099 31.6346 23.6861C31.8022 23.6972 31.9635 23.7067 32.1137 23.7067C32.6822 23.7067 33.1661 23.6178 33.559 23.4988C33.4504 23.6876 33.3178 23.8797 33.1501 24.0733C32.4363 24.8954 31.5579 25.2699 30.2946 25.2889L29.8251 25.2969L29.7884 25.7651C29.7836 25.8587 29.7484 26.7268 30.5757 27.4647C30.7019 27.579 30.8552 27.6726 31.0149 27.7504C30.4543 28.2519 29.8842 29.1248 29.774 30.6213C29.6814 31.8703 29.3811 32.3321 29.3779 32.3369L28.8589 33.124L29.7964 33.1367C31.3455 33.1367 32.5321 32.7114 33.3546 31.8703C33.8401 31.372 34.118 30.8102 34.2825 30.3119C34.5524 30.5404 34.9005 30.7403 35.3541 30.8467C35.5266 30.8864 35.715 30.9086 35.9178 30.9086C36.3554 30.9086 36.7211 30.8165 36.7627 30.807L37.3616 30.6483L37.0964 30.0928C37.0773 30.0484 36.5774 28.9343 37.1156 27.3441C37.3472 26.657 37.4654 26.0412 37.5229 25.5619C37.8998 25.7571 38.4044 25.919 39.0576 25.9206C40.5397 25.9206 41.1929 24.8208 41.2232 24.7748L41.5155 24.2701L40.9741 24.0479C39.2077 23.3195 38.8165 21.3627 38.7382 20.3025C38.8979 20.3327 39.08 20.3613 39.286 20.3676H39.3754ZM40.776 24.5161C40.776 24.5161 40.2586 25.4096 39.072 25.4096H39.0576C37.6331 25.4016 37.0581 24.5383 37.0581 24.5383C37.0581 24.5383 37.1412 25.6619 36.6269 27.1775C36.0089 29.0042 36.6317 30.3103 36.6317 30.3103C36.6317 30.3103 36.2995 30.3991 35.9162 30.3991C35.7693 30.3991 35.616 30.3849 35.4723 30.3468C34.2825 30.0659 33.9854 28.9899 33.9854 28.9899C33.9854 28.9899 34.0956 32.6257 29.8299 32.6257H29.7964C29.7964 32.6257 30.1717 32.1179 30.2835 30.6562C30.4863 27.9583 32.3245 27.5885 32.3245 27.5885C32.3245 27.5885 31.3439 27.4663 30.9191 27.087C30.2547 26.4887 30.301 25.7968 30.301 25.7968C31.8022 25.7762 32.7844 25.2683 33.5334 24.4066C34.3447 23.4734 34.4789 22.4688 34.4789 22.4688C34.4789 22.4688 33.6724 23.1957 32.1121 23.1957C31.9747 23.1957 31.8278 23.1893 31.6777 23.175C30.9398 23.1163 30.4288 22.6497 30.4288 22.6497C32.053 21.615 33.1933 19.809 32.1823 17.0888C31.3726 14.9099 29.4274 13.2816 27.4695 12.0548C26.8179 11.6501 26.4553 11.201 26.4553 10.8138C26.4553 9.90283 27.7585 9.87426 28.2935 9.26167C28.91 8.55069 28.5235 7.39693 27.9885 6.7034C27.9885 6.7034 28.169 6.6669 28.4532 6.6669C29.017 6.6669 29.9928 6.80815 30.7945 7.63339C31.8597 8.72844 31.4174 9.92029 31.4174 9.92029L31.7032 9.97583C31.8741 10.0123 32.0434 10.0187 32.2191 10.0266C32.2574 10.0266 32.2957 10.0282 32.3341 10.0282C33.8816 10.0282 34.5731 8.42055 34.5731 8.42055C34.5731 8.42055 36.2181 10.4313 33.797 12.0056C33.3801 12.2754 33.1965 12.5246 33.2444 12.7912L33.2827 12.9658L33.4552 12.9959C35.2103 13.4689 36.0983 14.6718 37.1827 16.0398C38.8292 18.1204 41.1593 18.1871 41.4468 18.1871H41.4771C41.4771 18.1871 40.9453 19.855 39.3786 19.855C39.3531 19.855 39.3307 19.855 39.3036 19.8534C38.5833 19.828 38.2144 19.5535 38.2144 19.5535C38.2144 19.5535 37.9317 23.3417 40.776 24.5161Z" fill="#333333"/>
<path d="M36.0003 12.8011C36.7174 13.1804 37.1342 13.6882 37.4999 14.139C37.8592 14.5786 38.201 15.0023 38.7344 15.1785C38.9245 15.2435 39.1257 15.2737 39.3301 15.2737C40.1318 15.2737 40.9367 14.7865 41.2418 14.112L41.5484 13.4359L40.8058 13.3915C40.7707 13.3899 39.8156 13.3042 38.752 12.2234C38.3144 11.7807 37.7858 11.5474 37.2156 11.5474C36.5193 11.5474 36.0035 11.8933 35.946 11.9282L35.2625 12.4059L36.0003 12.8011ZM37.2172 12.0584C37.575 12.0584 37.9918 12.179 38.3863 12.5837C39.624 13.8327 40.7754 13.9025 40.7754 13.9025C40.5662 14.3627 39.9594 14.7674 39.3317 14.7674C39.1864 14.7674 39.0411 14.7452 38.8957 14.696C38.0445 14.4103 37.7395 13.1407 36.243 12.3504C36.243 12.3504 36.6615 12.0584 37.2172 12.0584Z" fill="#333333"/>
<path d="M36.338 19.5456V19.571C35.9068 16.1145 33.3803 13.6181 30.5695 12.0993C30.3092 11.9612 30.0697 11.8438 29.8365 11.7311C30.6925 11.8629 32.0707 11.8787 33.1344 10.9614C33.1344 10.9614 31.507 12.1517 28.1724 11.0709C29.0955 11.6661 30.8889 12.5056 32.5259 13.8657C36.6191 17.4396 33.6901 20.9263 33.6901 20.9263C35.161 19.4012 35.2217 17.7665 34.7889 16.4319C35.5635 17.7126 36.0586 19.2679 35.9819 21.185C35.8685 23.9321 34.3497 26.3079 32.7511 28.217C31.9829 29.1439 31.8104 30.2817 31.8104 30.2817C31.8104 30.2817 32.1203 29.2772 33.0098 28.244C34.7234 26.2507 36.1879 24.1797 36.3796 21.1961C36.5568 21.7373 37.2867 23.2433 38.4446 23.8099C38.4477 23.8115 36.9928 22.9402 36.338 19.5456Z" fill="#333333"/>
<path d="M14.5239 32.3369C14.5223 32.3321 14.2252 31.8703 14.1294 30.6213C14.0176 29.1248 13.4491 28.2519 12.8869 27.7504C13.0498 27.6742 13.1999 27.5806 13.3261 27.4647C14.1518 26.7268 14.1166 25.8587 14.1118 25.765L14.0799 25.2969L13.6072 25.2889C12.3471 25.2683 11.4671 24.8938 10.7532 24.0733C10.5872 23.8797 10.453 23.6876 10.3444 23.4988C10.7373 23.6178 11.218 23.7067 11.7881 23.7067C11.9414 23.7067 12.0996 23.6972 12.2672 23.6861C13.1536 23.6099 13.7541 23.0862 13.8212 23.0274L14.3115 22.5799L13.7509 22.2212C12.4972 21.4246 11.2164 19.9137 12.2002 17.2666C12.8374 15.5447 14.3115 13.9846 16.707 12.4897C17.5151 11.9818 17.9575 11.3851 17.9575 10.8138C17.9575 9.93139 17.2165 9.58384 16.6719 9.33626C16.4068 9.21089 16.1305 9.08551 15.9963 8.93157C15.5747 8.44753 15.9309 7.51754 16.3205 7.01446L16.822 6.3622L16.0107 6.20349C15.9868 6.20032 15.7744 6.16064 15.4486 6.16064C14.8417 6.16064 13.6854 6.30665 12.74 7.27949C11.9526 8.08887 11.8488 8.95062 11.8887 9.50607C11.8121 9.51242 11.7354 9.51559 11.6556 9.52036H11.5693C10.3843 9.52036 9.82377 8.27296 9.80141 8.22376L9.46763 7.44454L8.92782 8.10156C8.89748 8.14124 8.10854 9.11884 8.30019 10.3424C8.42795 11.1566 8.9422 11.858 9.82536 12.4357C9.92119 12.496 9.98826 12.55 10.0362 12.5928C8.37365 13.1308 7.44417 14.3116 6.46199 15.5526L6.31985 15.7288C4.81863 17.6268 2.69455 17.6824 2.44062 17.6824L1.71716 17.6602L1.93756 18.3442C1.96311 18.4267 2.60352 20.3692 4.52637 20.3692L4.619 20.366C4.82182 20.3597 5.00388 20.3327 5.16678 20.301C5.08693 21.3595 4.69565 23.3163 2.92772 24.0463L2.38792 24.2685L2.68018 24.7732C2.70893 24.8192 3.36372 25.919 4.84897 25.919C5.49737 25.9174 6.00204 25.7555 6.38054 25.5603C6.43803 26.0396 6.55621 26.6554 6.78778 27.3425C7.32599 28.9327 6.82452 30.0468 6.80535 30.0912L6.54024 30.6467L7.14073 30.8054C7.18066 30.8149 7.54957 30.907 7.98557 30.907C8.18999 30.907 8.37844 30.8848 8.54773 30.8451C9.00289 30.7387 9.35424 30.5388 9.62094 30.3103C9.78384 30.8086 10.0633 31.3704 10.5472 31.8687C11.3713 32.7098 12.5563 33.1351 14.1054 33.1351L15.0445 33.1224L14.5239 32.3369ZM14.0703 32.6273C9.8046 32.6273 9.9132 28.9914 9.9132 28.9914C9.9132 28.9914 9.61615 30.0674 8.42635 30.3483C8.28422 30.3864 8.1325 30.4007 7.98397 30.4007C7.60068 30.4007 7.27009 30.3118 7.27009 30.3118C7.27009 30.3118 7.88975 29.0057 7.27169 27.1791C6.76063 25.6635 6.84368 24.5399 6.84368 24.5399C6.84368 24.5399 6.27034 25.4032 4.84418 25.4111H4.82981C3.6432 25.4111 3.12576 24.5176 3.12576 24.5176C5.9685 23.3448 5.68902 19.5582 5.68902 19.5582C5.68902 19.5582 5.3201 19.8312 4.59823 19.8582C4.57268 19.8598 4.54873 19.8598 4.52317 19.8598C2.95487 19.8598 2.42465 18.1918 2.42465 18.1918H2.4566C2.74566 18.1918 5.07256 18.1252 6.71911 16.0446C7.8035 14.6766 8.69306 13.4752 10.445 13.0007L10.6207 12.9705L10.659 12.796C10.7069 12.5293 10.5249 12.2802 10.108 12.0104C7.68692 10.4345 9.33188 8.42532 9.33188 8.42532C9.33188 8.42532 10.0202 10.0314 11.5709 10.0314C11.6093 10.0314 11.6444 10.0298 11.6843 10.0298C11.8584 10.0203 12.0309 10.0139 12.2002 9.97742L12.486 9.92187C12.486 9.92187 12.0437 8.73002 13.1105 7.63498C13.9122 6.80815 14.888 6.66849 15.4502 6.66849C15.736 6.66849 15.9133 6.70499 15.9133 6.70499C15.3799 7.4001 14.9934 8.55228 15.6099 9.26326C16.1433 9.87426 17.4449 9.90441 17.4449 10.8154C17.4449 11.201 17.0823 11.6517 16.4307 12.0564C14.4712 13.2832 12.526 14.9114 11.7179 17.0904C10.7085 19.8106 11.8472 21.615 13.4746 22.6513C13.4746 22.6513 12.9636 23.1179 12.2241 23.1766C12.074 23.1909 11.9287 23.1973 11.7881 23.1973C10.2294 23.1973 9.42291 22.4704 9.42291 22.4704C9.42291 22.4704 9.55706 23.475 10.3636 24.4081C11.1174 25.2699 12.0996 25.7777 13.6008 25.7984C13.6008 25.7984 13.6487 26.4903 12.9843 27.0886C12.5579 27.4663 11.5773 27.5901 11.5773 27.5901C11.5773 27.5901 13.4171 27.9599 13.6183 30.6578C13.7285 32.1195 14.1007 32.6273 14.1007 32.6273H14.0703Z" fill="#333333"/>
<path d="M4.5674 15.276C4.77342 15.276 4.97464 15.2458 5.16469 15.1808C5.7013 15.0046 6.04147 14.5809 6.4008 14.1413C6.76812 13.6906 7.18176 13.1827 7.89883 12.8034L8.63667 12.4098L7.95153 11.9322C7.89404 11.8957 7.37979 11.5513 6.68508 11.5513C6.11334 11.5513 5.58312 11.783 5.14712 12.2273C4.08349 13.3065 3.13006 13.3938 3.09492 13.3954L2.35229 13.4382L2.65733 14.1159C2.96396 14.7872 3.76728 15.276 4.5674 15.276ZM5.51285 12.586C5.90891 12.1813 6.32574 12.0607 6.68508 12.0607C7.23766 12.0607 7.65608 12.3527 7.65608 12.3527C6.16125 13.1446 5.85461 14.4127 5.0002 14.6983C4.85966 14.7475 4.71273 14.7697 4.5674 14.7697C3.93976 14.7697 3.33288 14.3666 3.12526 13.9048C3.12526 13.9032 4.27514 13.8334 5.51285 12.586Z" fill="#333333"/>
<path d="M7.92103 21.1867C7.84117 19.2696 8.33626 17.7143 9.11242 16.4336C8.67962 17.7683 8.73871 19.4029 10.2112 20.928C10.2112 20.928 7.28221 17.4413 11.377 13.8674C13.0156 12.5073 14.8075 11.6678 15.729 11.0726C12.3959 12.1534 10.7686 10.9631 10.7686 10.9631C11.8322 11.8804 13.2104 11.8646 14.0664 11.7313C13.8349 11.8439 13.5921 11.9614 13.335 12.0994C10.521 13.6182 7.99609 16.1146 7.56329 19.5711V19.5441C6.9101 22.9387 5.45679 23.81 5.45679 23.81C6.61305 23.2435 7.3413 21.739 7.51857 21.1962C7.71181 24.1798 9.1763 26.2508 10.8899 28.2441C11.7795 29.2773 12.0925 30.2819 12.0925 30.2819C12.0925 30.2819 11.9184 29.144 11.1471 28.2172C9.55161 26.3112 8.03282 23.9338 7.92103 21.1867Z" fill="#333333"/>
<path d="M20.988 14.1912V14.8768C21.226 14.5895 21.6859 14.6482 21.6859 14.6482V15.6369C21.6859 15.6369 21.67 16.1226 21.4959 16.3336H21.9942H22.4909C22.32 16.1241 22.3024 15.6369 22.3024 15.6369V14.6482C22.3024 14.6482 22.7624 14.5895 22.9987 14.8768V14.1912H21.9942H20.988Z" fill="#333333"/>
<path d="M20.559 10.1255C20.8768 10.3763 21.0605 10.4175 21.0669 10.4223L21.1914 10.4794V9.83353L20.0224 9.34473C20.0224 9.34631 20.0336 9.71926 20.559 10.1255Z" fill="#333333"/>
<path d="M23.3413 10.1255C23.8699 9.71926 23.8795 9.34473 23.8795 9.34473L22.7104 9.83353V10.4794L22.8334 10.4223C22.8414 10.4175 23.0235 10.3763 23.3413 10.1255Z" fill="#333333"/>
<path d="M25.4455 7.49719C25.4455 6.518 23.7862 5.63721 21.9544 5.63721H21.9528H21.948H21.9432C20.1114 5.63721 18.452 6.518 18.452 7.49719L18.4888 7.73842L19.2202 11.9107L18.4856 12.3344L16.5851 13.4374H16.5915C16.5915 13.4374 16.1635 13.6548 15.9654 13.7897C15.242 14.2896 15.0887 15.0181 15.5087 15.3196C15.6125 14.726 16.0852 14.1039 16.97 14.1039C17.6072 14.1039 18.0927 14.4309 18.4856 14.9212C18.5862 15.045 18.682 15.1768 18.7714 15.3196C18.8816 15.4989 18.9918 15.656 19.102 15.8084H14.2071C14.5664 16.5273 14.9082 17.2891 14.9082 18.1159V28.8822C14.9082 31.4881 16.9253 32.7323 19.1068 32.7323C20.7933 32.7323 21.0201 32.6562 21.9512 33.5766C22.8774 32.6546 23.1042 32.7323 24.7923 32.7323C26.9755 32.7323 28.9893 31.4881 28.9893 28.8822V18.1159C28.9893 17.2891 29.3311 16.5273 29.692 15.8084H24.7955C24.9041 15.6576 25.0143 15.4989 25.1245 15.3196C25.2155 15.1768 25.3097 15.045 25.4088 14.9212C25.8048 14.4293 26.2887 14.1039 26.926 14.1039C27.8107 14.1039 28.2818 14.7245 28.3872 15.3196C28.8073 15.0181 28.6555 14.2896 27.9273 13.7897C27.7325 13.6548 27.3045 13.4374 27.3045 13.4374H27.3108L25.4104 12.3344L24.6789 11.9107L25.4104 7.73842L25.4455 7.49719ZM19.1723 7.98282L21.7435 8.84933V12.8629L19.851 11.871L19.1723 7.98282ZM19.7041 16.5083C20.1257 16.9257 20.5394 17.1843 20.9322 17.3272C20.8811 17.5287 20.8141 17.9445 21.0041 18.3587C21.159 18.692 21.4401 18.9491 21.8442 19.1205C21.8889 19.5331 22.1508 20.1536 22.8774 20.4282C22.5596 20.7472 22.2498 21.0471 22.1236 21.1693L19.1771 21.1233C19.11 21.09 18.9966 21.0154 18.9455 20.9091C18.9391 20.8948 18.9296 20.8868 18.9248 20.871L19.4055 20.9487C19.4166 20.9503 19.4262 20.9503 19.4358 20.9503C19.5284 20.9503 19.6099 20.8868 19.6259 20.7916C19.6418 20.6853 19.57 20.5885 19.4662 20.5726L18.8753 20.4806L19.5316 18.2286L18.9104 16.9288L17.9138 17.9763L17.8531 20.3187L17.184 20.2139C17.0802 20.1933 16.9812 20.2695 16.9636 20.3726C16.9476 20.4758 17.0179 20.5726 17.1233 20.5917L17.4044 20.6345C17.3038 20.6916 17.2383 20.7361 17.2303 20.7424L17.1728 20.7821L17.1568 20.8519C16.9939 21.509 17.3629 22.1326 17.7605 22.412L17.7461 22.4945C17.7302 22.5961 17.7525 22.6945 17.8132 22.777C17.8707 22.8611 17.9601 22.9119 18.0592 22.9293C18.0799 22.9325 18.1023 22.9341 18.1214 22.9341C18.2939 22.9341 18.4441 22.8151 18.4872 22.6421C18.6357 22.6595 18.7714 22.6627 18.8641 22.6627H18.9423L22.8088 23.3562L22.8743 23.3134C23.1825 23.0991 24.3563 22.2485 24.7412 21.9676C24.8466 22.0581 24.9648 22.1406 25.1085 22.2088C24.9839 22.6246 24.976 23.2642 25.4694 23.7689H15.6157V18.1175C15.6157 17.57 15.4544 17.0193 15.2643 16.5114H19.7041V16.5083ZM24.4825 21.6788C24.0912 21.9644 23.0851 22.6945 22.7209 22.9484L19.2074 22.3215C19.2154 22.2898 19.2234 22.2596 19.2314 22.2279C19.2777 22.047 19.324 21.7994 19.3272 21.509L22.2802 21.5566L22.336 21.4994C22.3808 21.455 23.3166 20.5567 23.7941 20.0394C23.9075 20.1806 24.0497 20.3155 24.2349 20.4345C24.1711 20.7773 24.1982 21.2661 24.4825 21.6788ZM18.6006 21.0741C18.6836 21.2471 18.8337 21.3629 18.9375 21.428C18.9343 21.5899 18.9184 21.8422 18.8753 22.0644C18.8657 22.1136 18.8529 22.1596 18.8385 22.2057C18.8305 22.2342 18.8225 22.258 18.8162 22.2771C18.6612 22.2771 18.3562 22.258 18.1071 22.1676C17.8308 22.066 17.4187 21.5629 17.5146 21.009C17.6343 20.936 17.9106 20.7821 18.1694 20.7821C18.369 20.7805 18.5047 20.8741 18.6006 21.0741ZM18.2348 20.3774L18.2939 18.1286L18.8018 17.5938L19.1212 18.2572L18.492 20.4155L18.2348 20.3774ZM24.4505 32.0356C24.2589 32.0356 24.0816 32.0388 23.9219 32.0451L24.3403 30.7517C24.4058 30.5724 24.0752 30.3423 23.9395 30.1407C24.1455 30.2693 24.6789 30.5502 24.936 30.6629C24.9089 30.7041 24.4505 32.0356 24.4505 32.0356ZM25.7633 30.5661L25.4902 31.9817C25.3161 32.0055 25.1309 32.0182 24.9408 32.0261L25.2283 30.6644C25.3145 30.2598 24.2206 30.1344 23.6808 29.3393C23.4172 29.6345 22.9206 29.7218 22.4223 29.7218C21.9671 29.7218 21.512 29.6488 21.2357 29.5948C21.1654 29.5837 21.0983 29.5758 21.0329 29.5758C20.8732 29.5758 20.7278 29.625 20.6272 29.7932L20.5474 29.9265L19.0573 29.5773L18.6868 30.1868C18.6341 30.2851 18.6309 30.3693 18.7155 30.4613L18.8162 30.5708C18.7475 30.7866 18.4377 31.112 18.4377 31.112L18.2157 30.8374C18.04 30.6422 18.0687 30.2867 18.2524 29.9566L18.8433 28.9648L20.105 29.1457L19.9085 28.7013C19.645 28.1141 20.0459 27.3666 20.089 26.9365C20.0746 27.0667 19.9549 27.0952 19.8143 27.0952C19.6866 27.0952 19.5444 27.0714 19.4502 27.0714C19.4135 27.0714 19.3815 27.0746 19.3639 27.0873L19.0222 27.2936L18.7523 27.0572C18.7203 27.0111 18.7092 26.9048 18.789 26.8255L19.4135 26.1303L18.6756 25.2749L19.7089 25.7907L20.0235 25.4114C20.1098 25.4955 20.073 25.7161 20.073 25.7161C20.3956 25.7241 21.2996 26.2208 21.3475 27.3793C21.3507 27.4142 21.3507 27.4539 21.3507 27.492C21.3507 27.492 21.3587 27.5063 21.3746 27.5301C21.4385 27.6174 21.6142 27.8411 21.8378 27.8618L23.2655 28.0014H23.2719C23.4284 28.0014 23.7398 27.8189 24.1391 27.8189C24.3563 27.8189 24.5991 27.8745 24.8578 28.0363C24.8578 28.0363 24.9871 27.9348 25.198 27.9237C25.2139 27.9221 25.2315 27.9221 25.2475 27.9221C25.8879 27.9221 26.153 28.4966 26.4963 28.9743C26.7551 29.3377 27.1 29.8773 27.1 29.8773C26.9723 30.0281 26.8541 30.1106 26.6561 30.1106C26.6018 30.1106 26.5395 30.1058 26.4724 30.0931C25.7857 29.9677 25.6866 28.5648 25.2954 28.4537C25.2746 28.4474 25.2522 28.4458 25.2331 28.4458C25.1069 28.4458 25.051 28.5569 25.051 28.5569C25.2299 29.0346 25.1261 29.2282 25.3177 29.5964C25.4615 29.8694 25.717 30.0947 25.8224 30.201C25.8224 30.2042 25.7936 30.4105 25.7633 30.5661ZM18.0959 29.2266L18.1614 29.3901C18.1183 29.5329 17.6232 29.736 17.6232 29.736L17.5162 29.5043C17.4028 29.2568 17.4267 28.8394 17.7717 28.5839L18.5734 28.0982L19.423 28.2776C19.4071 28.5458 19.5684 28.7457 19.5684 28.7457L18.6772 28.5759L18.1438 28.9425C18.0544 29.0044 18.048 29.1203 18.0959 29.2266ZM25.8975 31.9039L26.1418 30.6375C26.1546 30.5629 26.1706 30.4756 26.1817 30.4026C26.2504 30.4312 26.3239 30.455 26.4037 30.4692C26.4948 30.4867 26.5794 30.4946 26.6561 30.4946C27.0298 30.4946 27.247 30.2994 27.3923 30.1328L27.5807 29.9154L27.4274 29.6773C27.4131 29.6535 27.0745 29.1203 26.8126 28.7553C26.7615 28.6838 26.7119 28.6124 26.6624 28.5347C26.3654 28.0935 25.9933 27.5396 25.2475 27.5396L25.1804 27.5412C25.0574 27.5491 24.952 27.5729 24.8674 27.6047C24.6326 27.4952 24.3914 27.4396 24.1407 27.4396C23.8325 27.4396 23.5722 27.5237 23.3997 27.5825C23.3502 27.5967 23.3055 27.6126 23.2703 27.619L21.8761 27.4825C21.8585 27.4793 21.801 27.446 21.7324 27.3635V27.3571L22.0342 27.2365C21.9496 26.2383 20.9849 25.6241 20.4467 25.4162C20.4228 25.3162 20.3749 25.2162 20.2902 25.1353L19.99 24.8528L19.7265 25.167L19.5971 25.3273L17.6455 24.5306L18.9152 26.1145L18.4137 26.8683C18.23 27.0619 18.4329 27.2555 18.4329 27.2555L18.9503 27.6094L19.4869 27.4111C19.5061 27.4111 19.5221 27.4158 19.5396 27.4174C19.5141 27.4984 19.4805 27.8158 19.4582 27.9046L18.5271 27.7221L17.5481 28.2712C17.045 28.6378 16.9764 29.2457 17.1632 29.6615L17.2718 29.8979L17.4267 30.2312L17.7685 30.0899C17.7733 30.0884 17.7781 30.0868 17.7813 30.0836C17.6583 30.474 17.7078 30.8454 17.9282 31.0898L18.1358 31.35L18.4121 31.6976L18.7155 31.3738C18.805 31.285 19.094 30.9628 19.1835 30.6867L19.249 30.4756L19.1004 30.3137L19.0765 30.2851L19.2426 30.0122L20.4579 30.2963L20.731 30.3582L20.8763 30.1201L20.9562 29.99C20.9706 29.963 20.9754 29.9582 21.0313 29.9582C21.0744 29.9582 21.1175 29.963 21.1638 29.9725C21.6222 30.0582 22.0454 30.1011 22.4207 30.1011C22.7848 30.1011 23.002 30.0868 23.2623 30.0011C23.2623 30.0011 23.9155 30.7374 23.9379 30.766L23.5386 31.9912L23.5211 32.0658C22.7641 32.1261 22.3951 32.2911 21.9496 32.7339C21.3028 32.0959 20.8444 32.0293 19.1052 32.0293C17.0243 32.0293 15.6141 30.8168 15.6141 28.8806V24.1466H28.2818L28.285 28.8806C28.2866 30.4518 27.3588 31.5468 25.8975 31.9039ZM28.6364 16.5083C28.4431 17.0161 28.2818 17.5668 28.2818 18.1143L28.2834 21.647C27.5408 21.5232 27.453 20.7281 27.4498 20.6932L27.4354 20.5314L27.2757 20.5171C26.9531 20.4869 26.7391 20.3504 26.5586 20.1759C26.1945 19.814 26.1929 19.2268 26.1945 19.2221C26.1897 19.2522 25.7936 19.8029 26.2536 20.4044C26.4468 20.6583 26.7263 20.8138 27.0888 20.8757C27.1735 21.3169 27.5041 21.939 28.2834 22.0343V23.7641H26.0923C25.0814 23.2055 25.5094 22.2215 25.5301 22.1803L25.6164 21.993L25.4231 21.92C24.3292 21.5169 24.6294 20.4314 24.6454 20.3853L24.6901 20.2266L24.5416 20.1568C23.6376 19.741 23.7606 18.619 23.7718 18.573C23.4939 18.7967 23.3933 19.2538 23.5849 19.7013C23.4811 19.8188 23.3422 19.9616 23.1905 20.1171C22.2546 19.8807 22.2259 19.0253 22.2259 18.9856L22.2243 18.8539L22.1013 18.8063C21.7356 18.6714 21.4848 18.4698 21.3618 18.1984C21.2229 17.8985 21.2724 17.5843 21.3107 17.4335C21.4177 17.4573 21.5247 17.4748 21.627 17.4827C21.7324 17.4938 21.841 17.5001 21.9496 17.5001H21.956H21.9639C22.0725 17.5001 22.1795 17.4938 22.2849 17.4827C22.8679 17.4256 23.5211 17.1764 24.2014 16.5067H28.6364V16.5083ZM25.2219 12.9375L26.0875 13.4374H26.1003L26.3175 13.5628C25.8288 13.6977 25.4551 13.9405 25.1421 14.2595C25.1309 14.269 25.1197 14.2817 25.1085 14.2928C25.0366 14.369 24.9648 14.4515 24.8977 14.5356C24.8849 14.5515 24.8722 14.5689 24.8578 14.5864C24.7907 14.6721 24.7284 14.7594 24.6677 14.8514C24.6581 14.8673 24.647 14.8832 24.6358 14.8974C24.5639 15.0038 24.4953 15.118 24.4266 15.2355C23.8101 16.2908 22.8263 16.9209 21.9512 16.9225C21.0776 16.9209 20.0938 16.2908 19.4773 15.2355C19.4103 15.1212 19.3432 15.0101 19.2713 14.9022C19.2569 14.8816 19.2442 14.8609 19.2314 14.8435C19.1707 14.7562 19.11 14.6705 19.0477 14.5896C19.0318 14.5673 19.0174 14.5499 19.0014 14.5308C18.9343 14.4499 18.8657 14.369 18.797 14.2944C18.7826 14.2833 18.773 14.269 18.7587 14.2563C18.4441 13.9373 18.0719 13.6961 17.5816 13.5628L17.802 13.4374H17.8116L18.6772 12.9375L19.5668 12.4312L21.9432 13.7167L21.948 13.7119L21.9544 13.7167L24.3308 12.4312L25.2219 12.9375ZM24.0497 11.8726L22.1556 12.8645V8.84933L24.7252 7.98282L24.0497 11.8726ZM21.9496 8.40814L19.1324 7.30199C19.3719 6.7386 20.4771 6.25932 21.9496 6.25773C23.4236 6.25932 24.5288 6.7386 24.7667 7.30199L21.9496 8.40814Z" fill="#333333"/>
</svg>
