<?xml version="1.0" encoding="UTF-8"?>
<svg xmlns="http://www.w3.org/2000/svg" xmlns:xlink="http://www.w3.org/1999/xlink" width="120px" height="120px" viewBox="0 0 120 120" version="1.1">
<g id="surface1">
<path style=" stroke:none;fill-rule:nonzero;fill:rgb(0%,0%,0%);fill-opacity:1;" d="M 10.734375 13.328125 L 21.433594 26.660156 L 44.757812 26.660156 C 67.125 26.660156 69.492188 26.683594 71.96875 26.925781 C 78.054688 27.53125 82.761719 29.164062 85.957031 31.796875 C 91.605469 36.433594 95.148438 46.855469 95.148438 58.828125 C 95.148438 67.828125 93.132812 76.191406 89.671875 81.574219 C 88.257812 83.769531 85.933594 86.375 83.84375 88.105469 C 79.992188 91.296875 76.320312 92.621094 69.652344 93.21875 C 69.03125 93.277344 66.535156 93.316406 63.722656 93.316406 L 58.867188 93.304688 L 49.386719 105.445312 C 44.171875 112.117188 39.492188 118.117188 38.988281 118.773438 L 38.066406 119.972656 L 51.183594 119.9375 C 59.507812 119.910156 64.792969 119.867188 65.65625 119.804688 C 71.675781 119.367188 75.371094 118.84375 79.28125 117.875 C 86.191406 116.171875 91.183594 113.585938 97.117188 108.625 C 100.207031 106.046875 102.660156 103.570312 105.269531 100.371094 C 107.96875 97.074219 109.921875 94.140625 111.875 90.460938 C 116.035156 82.640625 118.351562 74.359375 119.042969 64.824219 C 119.171875 63.117188 119.214844 58.445312 119.121094 56.5625 C 118.582031 45.3125 115.742188 35.492188 110.484375 26.703125 C 106.121094 19.390625 100.035156 12.921875 92.851562 7.972656 C 90.328125 6.21875 88.503906 5.207031 86.128906 4.222656 C 81.140625 2.140625 75.171875 0.90625 67.4375 0.355469 C 64.421875 0.140625 58.75 0.0976562 30.347656 0.0429688 L 0.0351562 -0.0078125 Z M 10.734375 13.328125 "/>
<path style=" stroke:none;fill-rule:nonzero;fill:rgb(0%,0%,0%);fill-opacity:1;" d="M 0.113281 77.417969 C 0.09375 94.636719 0.0507812 111.257812 0.0273438 114.339844 L -0.0195312 119.964844 L 21.375 119.964844 L 21.425781 116.472656 C 21.449219 114.5625 21.492188 104.101562 21.511719 93.234375 L 21.5625 73.488281 L 37.640625 73.488281 L 42.417969 67.421875 C 45.050781 64.085938 49.816406 58.0625 53.011719 54.027344 L 58.824219 46.699219 L 58.175781 46.679688 C 57.816406 46.660156 52.761719 46.589844 46.933594 46.519531 C 41.105469 46.441406 32.117188 46.324219 26.960938 46.253906 C 21.804688 46.183594 13.660156 46.121094 8.871094 46.121094 L 0.164062 46.121094 Z M 0.113281 77.417969 "/>
</g>
</svg>
